<svg width="151" height="364" viewBox="0 0 151 364" fill="none" xmlns="http://www.w3.org/2000/svg">
<path fill-rule="evenodd" clip-rule="evenodd" d="M43.4217 348.801C43.4217 348.801 43.0438 344.063 39.9584 344.063C36.8729 344.063 35.9643 344.063 33.9223 344.063C31.8803 344.063 29.8833 346.964 29.3166 349.098C29.3166 349.098 27.3196 349.585 26.8968 351.423C26.474 353.261 25.5205 360.133 25.3765 360.804C25.2326 361.483 24.7108 364 27.7963 364C30.8818 364 47.8925 364 49.8355 364C51.7875 364 51.5447 362.694 51.5447 361.945C51.5447 361.195 51.1129 358.417 50.0694 356.962C49.0259 355.499 43.4217 348.801 43.4217 348.801Z" fill="#4D4C4E"/>
<path fill-rule="evenodd" clip-rule="evenodd" d="M43.4215 348.801C43.4215 348.801 43.0437 344.063 39.9582 344.063C36.8727 344.063 35.9641 344.063 33.9221 344.063C31.8801 344.063 29.8831 346.964 29.3164 349.098L31.7992 353.871C31.7992 353.871 32.8966 354.942 35.0556 354.942C37.2145 354.942 42.0272 354.942 42.0272 354.942C42.0272 354.942 43.8623 354.611 43.7723 353.069C43.6823 351.528 43.4215 348.801 43.4215 348.801Z" fill="#292929"/>
<path fill-rule="evenodd" clip-rule="evenodd" d="M25.4845 360.133C25.4305 360.464 25.3945 360.699 25.3765 360.803C25.2326 361.483 24.7108 364 27.7963 364C30.8818 364 47.8925 364 49.8355 364C51.7875 364 51.5447 362.693 51.5447 361.944C51.5447 361.622 51.4637 360.934 51.3018 360.142H25.4845V360.133Z" fill="#202023"/>
<path fill-rule="evenodd" clip-rule="evenodd" d="M86.7084 344.803C86.7084 344.803 96.0368 352.756 99.4191 353.391C102.801 354.018 110.205 354.654 111.779 355.534C113.353 356.414 114.811 360.142 114.99 360.838C115.161 361.535 115.575 363.991 113.299 363.991C111.023 363.991 73.3049 363.991 71.5508 363.991C69.8057 363.991 69.4548 363.042 69.4548 361.657C69.4548 360.272 70.5073 358.879 70.5073 358.879C70.5073 358.879 70.5073 352.817 70.5073 351.118C70.5073 349.42 71.4429 348.026 73.4759 347.895C77.0021 347.678 80.8432 349.637 83.1191 346.04C84.1266 344.446 84.5674 343.21 86.7084 344.803Z" fill="#4D4C4E"/>
<path fill-rule="evenodd" clip-rule="evenodd" d="M86.708 344.803C86.708 344.803 95.6496 352.433 99.2029 353.339C97.9165 354.724 95.6766 355.395 94.7051 355.316C93.4187 355.212 83.7845 350.944 82.9119 349.803C82.0393 348.662 82.9479 346.31 82.9479 346.31C83.0109 346.223 83.0648 346.136 83.1278 346.04C84.1263 344.446 84.5671 343.21 86.708 344.803Z" fill="#292929"/>
<path fill-rule="evenodd" clip-rule="evenodd" d="M114.217 358.879C114.631 359.767 114.919 360.551 114.99 360.838C115.161 361.535 115.575 364 113.299 364C111.023 364 73.3049 364 71.5508 364C69.8057 364 69.4548 363.051 69.4548 361.666C69.4548 360.281 70.5073 358.887 70.5073 358.887H114.217V358.879Z" fill="#202023"/>
<path fill-rule="evenodd" clip-rule="evenodd" d="M89.3976 69.8168C89.3976 69.8168 98.5011 74.2501 99.9314 77.2463C101.362 80.2512 109.899 120.891 109.899 120.891L118.022 133.024C118.022 133.024 105.239 143.833 95.0648 135.184C84.8908 126.535 82.7769 117.285 82.7769 117.285L89.3976 69.8168Z" fill="#3D3D3D"/>
<path fill-rule="evenodd" clip-rule="evenodd" d="M90.6485 157.342L93.4731 163.003L94.2288 171.678C94.2288 171.678 97.3412 176.46 97.881 177.888C98.4207 179.325 100.31 191.031 100.517 193.174C100.715 195.325 90.9094 290.881 89.569 308.083C88.2287 325.285 89.749 343.915 89.9289 345.587C90.1088 347.26 81.7609 350.125 78.7024 350.369C76.9212 350.508 73.1881 350.038 70.2375 349.359L70.1836 349.341H70.1746C69.0051 349.045 68.9242 347.625 68.9242 347.625L68.1146 317.376C68.2045 312.873 68.2045 300.427 68.0156 295.07C67.8267 289.705 67.197 183.201 67.197 183.201L72.9722 159.85L90.6485 157.342Z" fill="#202023"/>
<path fill-rule="evenodd" clip-rule="evenodd" d="M40.8935 157.786L39.6071 161.879C39.6071 161.879 35.5231 164.51 35.2713 165.825C35.0104 167.14 33.832 170.014 33.4452 171.922C33.0584 173.829 35.1453 178.454 34.5067 179.883C33.868 181.32 30.3867 251.599 30.3867 259.943C30.3867 268.287 30.1438 267.922 29.748 274.349L27.0583 346.676C27.0583 346.676 26.6355 349.045 29.4421 349.672C32.2488 350.308 43.0614 349.838 44.9955 349.437C46.3988 348.941 47.4603 348.444 47.8831 348.087C49.1694 347.016 48.7826 329.1 49.0435 326.347C49.3044 323.604 54.9626 268.174 56.5008 258.863C58.0391 249.544 69.9223 181.607 72.2341 172.523C74.546 163.447 81.1937 163.299 81.1937 163.299L40.8935 157.786Z" fill="#202023"/>
<path fill-rule="evenodd" clip-rule="evenodd" d="M95.3803 162.611C95.3803 162.611 79.719 166.653 61.5839 165.006C43.4488 163.36 75.0233 152.882 83.632 155.783C92.2498 158.7 95.3803 162.611 95.3803 162.611Z" fill="#DE8D4D"/>
<path fill-rule="evenodd" clip-rule="evenodd" d="M52.0479 64.6604L30.8813 71.1057C30.8813 71.1057 36.5845 78.8488 33.8409 100.989C33.8409 100.989 39.823 127.084 39.823 130.559C39.823 134.043 36.5935 149.094 36.5935 151.332C36.5935 153.422 62.9776 167.759 89.1997 159.423C97.0798 156.915 95.0558 153.196 94.5611 151.123C91.0078 136.151 91.4486 118.078 90.693 113.749C89.8654 109.02 94.8039 100.58 94.8039 100.58L89.5775 69.9821L74.9237 64.5037L52.0479 64.6604Z" fill="white"/>
<path fill-rule="evenodd" clip-rule="evenodd" d="M53.9373 49.8536H72.3242V69.5901H65.0198L53.9373 65.4094V49.8536Z" fill="#D77F68"/>
<path fill-rule="evenodd" clip-rule="evenodd" d="M53.9372 60.7062L67.2147 69.5902L72.531 60.8717L74.9149 64.5124L72.4591 76.9761L67.2147 69.5902L61.3405 77.1155L52.0481 64.6779L53.9372 60.7062Z" fill="#DBDADB"/>
<path fill-rule="evenodd" clip-rule="evenodd" d="M60.8189 176.948C60.8189 181.494 58.2101 182.504 58.2101 182.504C55.2146 184.778 32.042 191.005 31.1334 190.5C30.2249 189.995 29.7661 187.338 29.7661 187.338C35.4603 149.398 37.6282 140.279 33.5533 104.517C37.1425 84.2836 33.6792 68.6669 33.6792 68.6669C38.7527 67.6043 43.6733 66.62 48.7738 65.7404C48.7738 65.7404 59.5775 102.827 60.0992 105.361C63.0767 119.828 60.8998 161.827 60.8189 176.948Z" fill="#4D4C4E"/>
<path fill-rule="evenodd" clip-rule="evenodd" d="M75.7339 64.8433C75.7339 64.8433 76.3996 64.7214 76.7864 64.7823C77.1732 64.8433 89.1373 69.6773 89.4252 69.834C89.722 69.9908 89.9829 70.0866 90.5046 72.6734C91.0264 75.2603 94.9125 99.7349 95.0384 100.649C95.3353 102.731 95.6951 105.231 95.7131 107.626C95.803 118.775 97.899 136.499 99.86 152.029C101.722 166.757 103.476 179.508 103.296 182.827C103.206 184.464 99.7701 186.363 98.8615 187.06C97.944 187.756 97.4942 187.756 95.5332 186.938C93.5811 186.119 87.797 179.491 87.797 179.491C87.797 179.491 85.8449 177.34 85.9709 173.934C86.1058 170.528 83.677 122.206 83.677 119.68C83.677 117.155 83.2542 103.829 83.4431 102.313C83.641 100.797 76.7054 65.2352 76.7054 65.2352L75.7339 64.8433Z" fill="#4D4C4E"/>
<path fill-rule="evenodd" clip-rule="evenodd" d="M81.7065 33.8623C81.8414 33.8797 81.9853 33.9058 82.1203 33.932C84.63 34.4545 86.5191 36.5972 86.5461 39.1927C86.5821 42.1976 84.0993 44.6712 80.9868 44.706C77.8834 44.7409 75.3286 42.337 75.2926 39.3233C75.2656 37.5727 76.1022 36.0136 77.4066 34.9946C77.2537 36.5972 77.5055 38.5917 79.6195 38.8095L79.5835 35.6652C79.5745 34.3936 80.8069 33.8187 81.7065 33.8623Z" fill="#D77F68"/>
<path fill-rule="evenodd" clip-rule="evenodd" d="M44.6357 33.8536C44.5008 33.871 44.3568 33.8884 44.2219 33.9146C41.7121 34.4023 39.7871 36.5275 39.7241 39.1144C39.6432 42.1192 42.0989 44.619 45.2024 44.6974C48.3059 44.7757 50.8966 42.398 50.9686 39.3931C51.0136 37.6424 50.204 36.0659 48.9086 35.0381C49.0435 36.6495 48.7647 38.6353 46.6417 38.8182L46.7227 35.6827C46.7587 34.4198 45.5353 33.8275 44.6357 33.8536Z" fill="#D77F68"/>
<path fill-rule="evenodd" clip-rule="evenodd" d="M63.1306 61.1328C52.6328 61.1328 43.8711 48.5907 43.8711 38.6789V25.527C43.8711 15.2668 52.5428 6.87927 63.1306 6.87927C73.7184 6.87927 82.3902 15.2668 82.3902 25.527V38.4089C82.3902 49.2613 74.7529 61.1328 63.1306 61.1328Z" fill="#E6AD83"/>
<path fill-rule="evenodd" clip-rule="evenodd" d="M73.4483 42.3631C71.973 42.3892 70.8035 43.5651 70.8305 44.9935C70.8575 46.4219 72.0719 47.5542 73.5472 47.528C75.0225 47.5019 76.1919 46.3261 76.1649 44.8977C76.1379 43.4693 74.9235 42.337 73.4483 42.3631Z" fill="#D7766D"/>
<path fill-rule="evenodd" clip-rule="evenodd" d="M52.7134 42.7725C51.2381 42.7987 50.0687 43.9745 50.0957 45.4029C50.1227 46.8313 51.3371 47.9636 52.8123 47.9375C54.2876 47.9113 55.457 46.7355 55.4301 45.3071C55.4031 43.8874 54.1887 42.7464 52.7134 42.7725Z" fill="#D7766D"/>
<path fill-rule="evenodd" clip-rule="evenodd" d="M56.7346 28.828C57.1394 29.0022 57.3193 29.4725 57.1394 29.8644C56.9505 30.2564 56.4738 30.4306 56.069 30.2564C56.06 30.2564 53.6312 29.1415 51.3103 30.5525C50.9325 30.7877 50.4287 30.6745 50.1948 30.3086C49.961 29.9428 50.0689 29.4551 50.4467 29.2286C53.5142 27.356 56.7256 28.828 56.7346 28.828Z" fill="#202023"/>
<path fill-rule="evenodd" clip-rule="evenodd" d="M75.7778 29.1762C76.1646 29.3852 76.3086 29.8642 76.0927 30.2388C75.8768 30.6133 75.382 30.7526 74.9952 30.5436C74.9862 30.5436 72.6564 29.2371 70.2276 30.4652C69.8318 30.6655 69.337 30.5175 69.1391 30.1342C68.9322 29.751 69.0851 29.2807 69.4809 29.0803C72.6923 27.4516 75.7688 29.1762 75.7778 29.1762Z" fill="#202023"/>
<path fill-rule="evenodd" clip-rule="evenodd" d="M63.6437 39.9417C64.0035 40.8824 64.6332 42.5982 64.5793 42.8769C64.5073 43.2776 62.3663 43.6521 61.8086 43.1208C61.4308 42.7724 61.8986 41.2308 62.3034 40.1943C62.8611 38.7746 63.1669 38.6701 63.6437 39.9417Z" fill="#EBBF9E"/>
<path fill-rule="evenodd" clip-rule="evenodd" d="M67.1783 47.3888C67.1783 49.5488 65.3612 51.3082 63.1303 51.3082C60.8904 51.3082 59.0823 49.5488 59.0823 47.3888C59.0823 46.9882 59.4151 46.6659 59.8289 46.6659H66.4317C66.8455 46.6746 67.1783 46.9969 67.1783 47.3888Z" fill="#202023"/>
<path fill-rule="evenodd" clip-rule="evenodd" d="M60.2339 46.6747H66.027V47.3366C66.027 47.685 65.7302 47.9637 65.3794 47.9637H60.8906C60.5307 47.9637 60.2429 47.685 60.2429 47.3366V46.6747H60.2339Z" fill="white"/>
<path fill-rule="evenodd" clip-rule="evenodd" d="M66.0629 50.0889C65.3252 50.8379 64.2817 51.3083 63.1303 51.3083C61.9789 51.3083 60.9354 50.8379 60.1978 50.0889C60.9354 49.3398 61.9789 48.8695 63.1303 48.8695C64.2817 48.8782 65.3252 49.3398 66.0629 50.0889Z" fill="#D26070"/>
<path fill-rule="evenodd" clip-rule="evenodd" d="M53.7125 39.2888C54.9898 39.2888 56.0333 38.2785 56.0333 37.0417C56.0333 35.8049 54.9898 34.7946 53.7125 34.7946C52.4351 34.7946 51.3916 35.8049 51.3916 37.0417C51.3916 38.2785 52.4351 39.2888 53.7125 39.2888Z" fill="#202023"/>
<path fill-rule="evenodd" clip-rule="evenodd" d="M72.5489 39.2886C73.8263 39.2886 74.8698 38.2782 74.8698 37.0414C74.8698 35.8047 73.8263 34.7943 72.5489 34.7943C71.2715 34.7943 70.228 35.8047 70.228 37.0414C70.228 38.2782 71.2715 39.2886 72.5489 39.2886Z" fill="#202023"/>
<path fill-rule="evenodd" clip-rule="evenodd" d="M43.8712 38.1649C45.0046 37.7381 46.174 34.9074 45.7332 30.866C45.7332 30.866 51.7333 26.6069 49.6013 20.6842C47.4694 14.7616 42.09 16.399 42.09 16.399C42.09 16.399 38.5638 19.0903 42.117 34.7942C43.6283 35.0642 43.2864 37.0413 43.8712 38.1649Z" fill="#202023"/>
<path fill-rule="evenodd" clip-rule="evenodd" d="M82.39 38.1649C81.2566 37.7381 80.0872 34.9074 80.5279 30.866C80.5279 30.866 74.5279 26.6069 76.6598 20.6842C78.7918 14.7616 84.1712 16.399 84.1712 16.399C84.1712 16.399 87.6974 19.0903 84.1442 34.7942C82.6329 35.0642 82.9747 37.0413 82.39 38.1649Z" fill="#202023"/>
<path fill-rule="evenodd" clip-rule="evenodd" d="M61.0796 34.7769H65.1816C65.2986 34.2108 65.5954 33.6969 66.0002 33.3049C66.54 32.7823 67.2866 32.4601 68.1052 32.4601H78.72C79.5386 32.4601 80.2852 32.7823 80.8249 33.3049L80.8609 33.3398C81.3827 33.8624 81.7065 34.5679 81.7065 35.343V37.3637C81.7065 38.5483 81.2028 39.6283 80.3932 40.4122C79.5836 41.1961 78.4771 41.6751 77.2447 41.6751H69.5805C68.3571 41.6751 67.2416 41.1873 66.432 40.4122C65.6224 39.6283 65.1277 38.5483 65.1277 37.3637V35.9092H61.1426V37.3637C61.1426 38.5483 60.6389 39.6283 59.8383 40.4122C59.0287 41.1961 57.9132 41.6751 56.6898 41.6751H49.0256C47.8022 41.6751 46.6867 41.1873 45.8771 40.4122C45.0675 39.6283 44.5728 38.5483 44.5728 37.3637V35.343C44.5728 34.5504 44.9056 33.8275 45.4453 33.3049C45.9851 32.7823 46.7317 32.4601 47.5503 32.4601H58.1651C58.9657 32.4601 59.7033 32.7736 60.2341 33.2788L60.27 33.3136C60.6658 33.6969 60.9627 34.2108 61.0796 34.7769ZM58.1561 33.5924H47.5413C47.0375 33.5924 46.5878 33.7927 46.2639 34.1062C45.9401 34.4285 45.7332 34.864 45.7332 35.343V37.3637C45.7332 38.2347 46.102 39.036 46.6957 39.6109C47.2894 40.1857 48.117 40.5428 49.0166 40.5428H56.6808C57.5804 40.5428 58.408 40.1857 59.0017 39.6109C59.5954 39.036 59.9642 38.2434 59.9642 37.3637V35.343C59.9642 34.864 59.7573 34.4198 59.4335 34.1062L59.4065 34.0801C59.0826 33.7753 58.6418 33.5924 58.1561 33.5924ZM78.72 33.5924H68.1052C67.6104 33.5924 67.1517 33.7927 66.8278 34.1062C66.504 34.4285 66.2971 34.864 66.2971 35.343V37.3637C66.2971 38.2347 66.6659 39.036 67.2596 39.6109C67.8533 40.1857 68.6809 40.5428 69.5805 40.5428H77.2447C78.1443 40.5428 78.9719 40.1857 79.5656 39.6109C80.1593 39.036 80.5281 38.2434 80.5281 37.3637V35.343C80.5281 34.8727 80.3302 34.4459 80.0243 34.1324L79.9974 34.1062C79.6735 33.7927 79.2147 33.5924 78.72 33.5924Z" fill="#272525"/>
<path fill-rule="evenodd" clip-rule="evenodd" d="M33.5626 68.8671C32.7979 70.1126 30.2162 70.4435 28.516 73.4659C20.2851 88.1071 4.86665 120.917 4.5698 122.781C3.58028 129.026 6.06306 137.318 11.1456 138.999C19.9972 141.925 38.1683 106.433 38.771 101.52C39.8954 92.3836 40.4352 80.4686 33.5626 68.8671Z" fill="#3D3D3D"/>
<path fill-rule="evenodd" clip-rule="evenodd" d="M148.292 119.733L149.426 118.984C149.426 118.984 143.831 111.389 143.884 107.661C143.947 103.933 150.586 101.895 150.586 101.895C150.586 101.895 151.207 101.477 150.928 100.571C150.649 99.6739 146.322 99.2559 144.226 99.883C142.13 100.51 107.093 119.768 107.093 119.768C107.093 119.768 105.248 121.292 105.105 124.088C104.961 126.883 108.766 134.905 110.376 136.699C111.995 138.494 138.541 121.144 138.541 121.144L148.292 119.733Z" fill="#FAEAB4"/>
<path fill-rule="evenodd" clip-rule="evenodd" d="M148.292 119.733L149.425 118.984C149.425 118.984 143.83 111.389 143.884 107.661C143.947 103.933 150.586 101.895 150.586 101.895C150.586 101.895 151.207 101.477 150.928 100.571C150.667 99.7351 146.943 99.3171 144.73 99.7613C143.533 100.772 142.562 102.156 142.409 103.994C141.95 109.351 143.281 114.507 143.281 114.507C143.281 114.507 143.47 115.709 142.724 116.005C142.112 116.258 116.969 128.843 108.253 133.216C109.053 134.792 109.845 136.099 110.385 136.708C112.004 138.503 138.55 121.153 138.55 121.153L148.292 119.733Z" fill="#DEC288"/>
<path fill-rule="evenodd" clip-rule="evenodd" d="M139.053 120.534L138.019 119.454C138.019 119.454 138.873 119.001 141.383 118.94C143.893 118.879 148.921 118.757 148.921 118.757C148.921 118.757 149.407 118.74 149.434 118.984C149.461 119.227 149.434 121.405 149.434 121.405L142.517 122.694C142.517 122.694 139.179 122.546 139.134 122.668C139.089 122.781 139.053 120.534 139.053 120.534Z" fill="#C8A268"/>
<path fill-rule="evenodd" clip-rule="evenodd" d="M100.094 145.375L104.655 144.861C104.655 144.861 105.986 144.53 106.858 143.99C107.731 143.45 149.444 121.37 149.444 121.37L139.962 122.154C139.953 122.154 101.236 140.793 100.094 145.375Z" fill="#AB8454"/>
<path fill-rule="evenodd" clip-rule="evenodd" d="M137.938 119.498C138.766 119.019 139.845 119.28 140.34 120.081C140.835 120.882 140.565 121.928 139.737 122.407L100.408 145.235C99.5809 145.714 98.5014 145.453 98.0066 144.652C97.5119 143.85 97.7818 142.805 98.6094 142.326L137.938 119.498Z" fill="#EAC67E"/>
<path fill-rule="evenodd" clip-rule="evenodd" d="M141.159 125.76C141.159 125.76 141.348 126.64 140.862 127.127C140.367 127.615 137.794 127.911 137.794 127.911L139.063 130.646C139.063 130.646 139.315 132.205 138.685 132.902C138.064 133.59 135.338 134.313 135.338 134.313C135.338 134.313 134.475 136.952 132.919 137.109C131.371 137.257 128.295 137.022 128.295 137.022C128.295 137.022 124.949 138.137 123.707 138.346C122.466 138.555 120.424 137.327 120.388 136.36C120.361 135.402 121.872 134.113 123.95 134.896C123.95 134.896 123.824 134.017 124.571 132.972C125.317 131.918 126.271 131.526 128.493 132.493C128.493 132.493 128.448 131.23 129.437 130.454C130.427 129.671 133.305 129.941 133.305 129.941L141.159 125.76Z" fill="#E6AD83"/>
<path fill-rule="evenodd" clip-rule="evenodd" d="M123.671 134.949C123.626 134.801 123.716 134.644 123.878 134.6C124.031 134.557 124.193 134.644 124.238 134.801C124.238 134.801 124.535 136.037 128.358 136.725C128.52 136.752 128.619 136.9 128.592 137.056C128.565 137.213 128.412 137.309 128.25 137.283C124.049 136.534 123.671 134.957 123.671 134.949ZM133.314 130.193C133.153 130.193 133.027 130.062 133.027 129.914C133.027 129.758 133.162 129.627 133.314 129.627H135.959C136.121 129.627 136.247 129.758 136.247 129.906C136.247 130.062 136.121 130.193 135.959 130.193H133.314ZM128.142 132.51C128.142 132.51 128.295 133.128 129.239 133.668C130.139 134.182 135.302 134.583 135.32 134.583C135.482 134.592 135.626 134.478 135.635 134.322C135.644 134.165 135.527 134.025 135.365 134.017C135.347 134.017 130.319 133.625 129.536 133.181C128.808 132.762 128.709 132.353 128.709 132.353C128.664 132.205 128.502 132.118 128.349 132.162C128.187 132.205 128.097 132.362 128.142 132.51Z" fill="#D77F68"/>
<path fill-rule="evenodd" clip-rule="evenodd" d="M8.50044 75.6698L7.43896 76.114L7.78979 69.93C7.78979 69.93 7.62787 68.6584 8.69835 67.9355C9.76882 67.2126 12.0987 66.3764 12.0987 66.3764C12.0987 66.3764 12.9263 66.0716 13.9788 66.3329C15.0312 66.5855 18.0268 67.4303 18.0268 67.4303C18.0268 67.4303 18.6834 67.6568 18.5665 68.4232C18.4496 69.1897 17.2891 70.0868 13.8438 69.2594L11.6939 69.9475L11.8288 71.2365L8.50044 75.6698Z" fill="#D77F68"/>
<path fill-rule="evenodd" clip-rule="evenodd" d="M0.215706 58.5202L0.989326 57.7015C1.29518 57.3705 1.82591 57.3531 2.16775 57.6492L26.9506 78.8489C27.2924 79.1451 27.3194 79.659 27.0045 79.9899L26.2309 80.8087C25.9251 81.1396 25.3943 81.1571 25.0525 80.8609L0.278675 59.6612C-0.0721531 59.3651 -0.0901442 58.8425 0.215706 58.5202Z" fill="#EAC67E"/>
<path fill-rule="evenodd" clip-rule="evenodd" d="M19.2505 74.5463C19.2505 74.5463 19.3584 72.7085 18.3779 72.1598C17.3974 71.6111 13.4843 70.1827 13.4843 70.1827C13.4843 70.1827 12 69.8604 11.0195 71.1756C10.03 72.4995 6.69262 77.168 6.69262 77.168C6.69262 77.168 6.01795 78.4744 6.80057 79.72C6.80057 79.72 6.22485 81.3748 6.57568 82.4897C6.91751 83.6045 9.83208 88.6824 10.2279 89.9453C10.6237 91.2169 9.57121 94.5789 9.57121 94.5789L18.189 95.7548C18.189 95.7548 18.5398 92.1228 18.8726 90.6856C19.2145 89.2485 21.9491 84.85 21.7692 82.9774C21.5893 81.1048 19.7722 77.8212 19.7722 77.8212C19.7722 77.8212 20.4109 77.9954 21.0856 78.3264C21.7602 78.6486 22.192 79.058 22.6328 79.1451C23.0736 79.2322 24.162 78.7183 24.189 78.2654C24.207 77.8125 23.5503 77.2899 22.282 76.3231C21.0136 75.365 20.3209 74.5811 19.2505 74.5463Z" fill="#E6AD83"/>
<path d="M19.7896 77.8387L17.01 77.3858C17.01 77.3858 14.2034 76.9155 13.5917 77.229C12.989 77.5513 9.02192 80.4168 9.02192 80.4168M19.2499 74.5464L13.5827 73.7799C13.5827 73.7799 12.872 73.6406 12.3323 74.2241C11.8016 74.8077 6.79102 79.7288 6.79102 79.7288L19.2499 74.5464ZM11.8106 84.9111C11.8106 84.9111 14.6262 83.2911 13.4028 80.2165L14.8421 80.0772C15.1749 80.0423 19.097 81.7146 18.5842 78.6749C18.4943 78.1261 17.5407 77.7865 16.3623 77.2987L11.8106 84.9111Z" stroke="#D77F68" stroke-width="0.7087" stroke-miterlimit="2.6131" stroke-linecap="round" stroke-linejoin="round"/>
<path fill-rule="evenodd" clip-rule="evenodd" d="M8.06856 89.1353L20.5724 91.0863C20.5724 91.0863 21.8138 91.5305 21.6429 92.5408C21.481 93.5511 21.2831 130.559 21.2831 130.559C16.4075 146.524 -1.36781 142.979 0.701176 124.288C1.16895 120.029 2.05951 115.239 2.85112 111.014C4.41635 102.696 6.7552 90.3372 6.7552 90.3372C6.7552 90.3372 7.08804 89.1353 8.06856 89.1353Z" fill="#3D3D3D"/>
<path fill-rule="evenodd" clip-rule="evenodd" d="M72.2255 162.001C72.8282 161.993 73.4219 161.984 74.0246 161.958C74.2765 161.174 74.9331 158.822 74.7172 155.939C74.6453 154.99 74.3844 151.75 74.0336 147.465C71.8117 120.203 71.5058 96.7473 67.4758 69.1632C67.4128 68.7277 66.972 68.4229 66.4953 68.4838C66.0185 68.5361 65.6767 68.9368 65.7397 69.3722C69.7157 96.9214 70.0665 120.351 72.2794 147.578C72.6303 151.907 72.9001 155.164 72.9631 156.053C73.206 159.301 72.2705 161.749 72.2615 161.749C72.2435 161.818 72.2255 161.914 72.2255 162.001Z" fill="#DBDADB"/>
<path fill-rule="evenodd" clip-rule="evenodd" d="M84.1622 17.218C83.4155 -9.33832 48.0719 0.111851 41.829 10.6246C41.748 10.7553 41.73 11.1211 41.6041 11.0253C33.0583 4.86742 38.3027 22.4613 46.6956 23.4629C55.0885 24.4645 65.5233 24.961 74.4919 21.3029C74.4919 21.3029 76.5699 20.1619 77.1456 22.8619C77.7213 25.562 83.3616 22.5658 83.3616 22.5658L84.1622 17.218Z" fill="#202023"/>
<path fill-rule="evenodd" clip-rule="evenodd" d="M63.1308 58.4415C63.1308 58.4415 63.9314 58.4415 64.3812 58.9293C64.3812 58.9293 65.3168 58.4938 65.9554 58.8944C65.9554 58.8944 67.0799 58.459 67.7186 58.8335C67.7186 58.8335 69.2118 58.3631 69.6976 58.5112C70.1834 58.6593 69.9855 61.908 63.1398 61.908C56.2852 61.908 56.0873 58.6593 56.5731 58.5112C57.0588 58.3631 58.5521 58.8335 58.5521 58.8335C59.1908 58.459 60.3152 58.8944 60.3152 58.8944C60.9539 58.5025 61.8894 58.9293 61.8894 58.9293C62.3212 58.4415 63.1308 58.4415 63.1308 58.4415Z" fill="#202023"/>
</svg>
