<svg width="174" height="367" viewBox="0 0 174 367" fill="none" xmlns="http://www.w3.org/2000/svg">
<path fill-rule="evenodd" clip-rule="evenodd" d="M134.683 350.57C134.683 350.57 135.059 345.44 138.1 345.44C141.141 345.44 142.033 345.44 144.043 345.44C146.053 345.44 148.019 348.578 148.578 350.876C148.578 350.876 150.545 351.4 150.964 353.384C151.384 355.377 152.319 362.796 152.459 363.53C152.599 364.265 153.114 366.982 150.073 366.982C147.032 366.982 130.278 366.982 128.365 366.982C126.442 366.982 126.678 365.567 126.678 364.754C126.678 363.941 127.097 360.935 128.129 359.362C129.16 357.806 134.683 350.57 134.683 350.57Z" fill="#4D4C4E"/>
<path fill-rule="evenodd" clip-rule="evenodd" d="M134.683 350.57C134.683 350.57 135.059 345.44 138.1 345.44C141.142 345.44 142.033 345.44 144.043 345.44C146.053 345.44 148.019 348.578 148.579 350.876L146.132 356.041C146.132 356.041 145.048 357.203 142.924 357.203C140.801 357.203 136.055 357.203 136.055 357.203C136.055 357.203 134.246 356.845 134.334 355.184C134.43 353.515 134.683 350.57 134.683 350.57Z" fill="#292929"/>
<path fill-rule="evenodd" clip-rule="evenodd" d="M152.354 362.814C152.406 363.172 152.441 363.426 152.467 363.539C152.607 364.273 153.123 366.991 150.082 366.991C147.04 366.991 130.287 366.991 128.373 366.991C126.451 366.991 126.687 365.576 126.687 364.763C126.687 364.413 126.765 363.67 126.931 362.814H152.354Z" fill="#202023"/>
<path fill-rule="evenodd" clip-rule="evenodd" d="M93.8357 346.244C93.8357 346.244 84.6507 354.844 81.3123 355.525C77.9827 356.207 70.6854 356.889 69.1386 357.85C67.5917 358.803 66.1497 362.831 65.9837 363.583C65.8089 364.335 65.4069 367 67.6529 367C69.8901 367 107.049 367 108.771 367C110.493 367 110.842 365.978 110.842 364.474C110.842 362.971 109.811 361.468 109.811 361.468C109.811 361.468 109.811 354.914 109.811 353.07C109.811 351.226 108.893 349.723 106.883 349.591C103.414 349.355 99.6298 351.479 97.3839 347.581C96.3701 345.851 95.9419 344.523 93.8357 346.244Z" fill="#4D4C4E"/>
<path fill-rule="evenodd" clip-rule="evenodd" d="M93.8356 346.244C93.8356 346.244 85.0265 354.494 81.5308 355.473C82.8067 356.967 85.0003 357.693 85.9703 357.614C87.2375 357.509 96.7283 352.886 97.5935 351.654C98.45 350.422 97.5586 347.87 97.5586 347.87C97.4974 347.774 97.4362 347.686 97.3838 347.581C96.37 345.851 95.9418 344.523 93.8356 346.244Z" fill="#292929"/>
<path fill-rule="evenodd" clip-rule="evenodd" d="M66.7352 361.459C66.3245 362.421 66.0448 363.269 65.9749 363.574C65.8001 364.326 65.3981 366.991 67.6441 366.991C69.8813 366.991 107.041 366.991 108.762 366.991C110.484 366.991 110.834 365.969 110.834 364.466C110.834 362.963 109.802 361.459 109.802 361.459H66.7352Z" fill="#202023"/>
<path fill-rule="evenodd" clip-rule="evenodd" d="M95.2165 69.6292C95.2165 69.6292 86.5646 70.9837 84.974 74.4532C82.7193 79.3472 77.8515 92.2464 74.2422 99.8058C72.1273 104.228 69.5755 107.706 67.1722 109.62C63.6153 112.469 59.9186 112.609 54.6313 113.238L40.8408 114.872L39.46 125.307V127.195L63.6677 133.548C76.3222 133.146 90.2438 115.624 91.6071 108.93C92.9879 102.218 95.2165 69.6292 95.2165 69.6292Z" fill="#3D3D3D"/>
<path fill-rule="evenodd" clip-rule="evenodd" d="M90.2351 158.866L87.491 164.546L86.7569 173.251C86.7569 173.251 83.7331 178.048 83.2087 179.482C82.6844 180.924 80.8491 192.669 80.6481 194.819C80.4559 196.978 89.9817 292.856 91.2838 310.116C92.586 327.376 91.109 346.069 90.9343 347.747C90.7595 349.425 98.8695 352.301 101.841 352.545C103.571 352.685 107.198 352.213 110.065 351.532L110.117 351.514C111.253 351.217 111.332 349.792 111.332 349.792L112.118 319.441C112.031 314.923 112.031 302.434 112.214 297.06C112.398 291.676 112.608 188.833 112.608 188.833L107.399 161.383L90.2351 158.866Z" fill="#202023"/>
<path fill-rule="evenodd" clip-rule="evenodd" d="M138.581 159.312L139.831 163.419C139.831 163.419 143.798 166.058 144.052 167.378C144.305 168.697 145.45 171.581 145.826 173.495C146.202 175.409 144.165 180.05 144.795 181.483C145.415 182.925 148.797 253.442 148.797 261.814C148.797 270.187 149.033 269.819 149.418 276.269L152.031 348.84C152.031 348.84 152.441 351.217 149.715 351.846C146.988 352.484 136.483 352.012 134.605 351.61C133.241 351.112 132.21 350.614 131.799 350.256C130.55 349.181 130.925 331.204 130.672 328.442C130.418 325.69 124.921 270.073 123.427 260.731C121.924 251.38 112.398 195.667 110.152 186.561C107.906 177.454 99.4377 164.852 99.4377 164.852L138.581 159.312Z" fill="#202023"/>
<path fill-rule="evenodd" clip-rule="evenodd" d="M85.6384 164.555C85.6384 164.555 100.845 168.61 118.463 166.958C136.081 165.307 105.407 154.793 97.0432 157.704C88.6797 160.631 85.6384 164.555 85.6384 164.555Z" fill="#DE8D4D"/>
<path fill-rule="evenodd" clip-rule="evenodd" d="M128.548 64.8838L148.308 72.3034C148.308 72.3034 142.767 80.0901 145.432 102.366C145.432 102.366 139.621 128.61 139.621 132.115C139.621 135.619 142.758 150.756 142.758 153.01C142.758 155.108 117.126 169.536 91.6509 161.147C83.9953 158.63 85.9616 154.881 86.4335 152.792C89.8856 137.734 89.4573 119.557 90.1914 115.196C90.9954 110.442 93.023 95.1741 93.023 95.1741L96.1866 69.2884L110.126 64.91L128.548 64.8838Z" fill="white"/>
<path fill-rule="evenodd" clip-rule="evenodd" d="M106.779 163.742C106.193 163.734 105.616 163.716 105.031 163.699C104.795 162.912 104.183 160.544 104.419 157.642C104.498 156.69 104.786 153.43 105.17 149.113C106.219 137.359 107.958 117.774 107.985 116.052C107.993 114.925 107.88 113.09 107.757 111.176C107.617 109.035 107.478 106.806 107.495 105.32C107.521 102.463 112.354 70.4333 112.372 70.3371C112.433 69.9002 112.87 69.5943 113.333 69.6467C113.796 69.6992 114.119 70.1012 114.058 70.5381C114.041 70.6343 109.234 102.524 109.208 105.312C109.191 106.78 109.33 108.965 109.461 111.062C109.584 113.02 109.706 114.907 109.697 116.043C109.68 117.791 107.932 137.428 106.883 149.209C106.499 153.561 106.202 156.847 106.132 157.73C105.861 160.998 106.744 163.454 106.752 163.463C106.77 163.568 106.787 163.655 106.779 163.742Z" fill="#DBDADB"/>
<path fill-rule="evenodd" clip-rule="evenodd" d="M129.518 51.0146H111.655V70.8178H118.751L129.518 66.6317V51.0146Z" fill="#D77F68"/>
<path fill-rule="evenodd" clip-rule="evenodd" d="M129.518 60.6016L116.619 70.8178L111.76 62.3756L109.138 65.7228L111.524 78.2287L116.619 70.8178L122.326 78.3685L131.362 65.8888L129.518 60.6016Z" fill="#DBDADB"/>
<path fill-rule="evenodd" clip-rule="evenodd" d="M108.771 174.518C108.771 179.08 111.306 180.094 111.306 180.094C114.225 182.375 147.172 192.643 148.063 192.136C148.954 191.629 149.391 188.964 149.391 188.964C146.883 171.695 146.516 156.026 142.863 139.089C144.191 137.254 142.479 136.301 142.479 136.301C142.479 135.156 145.712 105.862 145.712 105.862C142.225 85.561 148.308 72.8017 148.308 72.8017C142.146 70.2236 139.839 68.9389 133.486 67.06C133.171 66.9639 133.556 69.8041 133.468 70.1187C122.911 107.951 117.694 136.179 108.771 174.518Z" fill="#4D4C4E"/>
<path fill-rule="evenodd" clip-rule="evenodd" d="M107.889 65.504C107.889 65.504 106.49 65.3293 106.106 65.3904C105.73 65.4516 94.9108 69.4017 94.6311 69.5591C94.3427 69.7164 94.0893 69.8125 93.5824 72.4081C93.0755 75.0036 88.6971 95.6457 88.5748 96.5634C88.2864 98.6521 87.9368 101.16 87.9193 103.564C87.8669 110.695 86.4337 125.184 86.4337 129.72C86.4337 148.501 77.3361 173.076 77.9391 184.445C78.1751 188.946 95.9507 179.053 97.0169 178.677C97.0169 178.677 98.9221 176.519 98.791 173.102C98.6686 169.676 98.4152 119.993 98.4152 117.459C98.4152 114.925 99.63 101.955 99.4464 100.435C99.2542 98.9142 105.887 66.946 105.887 66.946L107.889 65.504Z" fill="#4D4C4E"/>
<path fill-rule="evenodd" clip-rule="evenodd" d="M21.8067 114.007L20.3822 114.47C20.3822 114.47 19.1499 114.61 19.2461 115.327C19.3422 116.043 19.6393 116.472 21.562 116.909C23.4846 117.345 29.6021 119.434 31.9005 120.527C35.4487 122.213 43.8995 127.273 43.6199 117.704C43.5325 115.143 21.8067 114.007 21.8067 114.007Z" fill="#E6AD83"/>
<path fill-rule="evenodd" clip-rule="evenodd" d="M79.8092 120.561L80.9977 120.308L49.0295 108.423C49.0295 108.423 48.3828 108.178 47.7885 108.073C47.1943 107.968 45.2978 107.645 45.2978 107.645L44.8259 115.449L79.8092 120.561Z" fill="#DBDADB"/>
<path fill-rule="evenodd" clip-rule="evenodd" d="M80.9978 120.308L46.7748 114.383C45.5338 114.164 44.3366 115.012 44.1181 116.253C43.8996 117.503 44.7473 118.691 45.9883 118.91L80.2112 124.835C81.4609 125.054 82.6495 124.206 82.868 122.965C83.0864 121.724 82.2475 120.527 80.9978 120.308Z" fill="#95908E"/>
<path fill-rule="evenodd" clip-rule="evenodd" d="M44.8085 118.7L4.76516 111.77C3.68149 111.586 2.78135 110.511 2.72017 109.393L0.00226403 55.2442C-0.0501715 54.1256 0.815015 53.3565 1.88994 53.5488L42.6673 60.6101C43.751 60.7936 44.6686 61.8685 44.7123 62.9872L46.6874 117.005C46.7398 118.123 45.8834 118.892 44.8085 118.7Z" fill="#DBDADB"/>
<path fill-rule="evenodd" clip-rule="evenodd" d="M42.982 116.367L41.0069 62.3492C40.9632 61.2306 40.0456 60.1557 38.9619 59.9722L42.6761 60.6189C43.7598 60.8024 44.6774 61.8773 44.7211 62.996L46.3641 107.837L46.6 114.365L46.6525 115.72L46.6962 117.013C46.7311 117.922 46.1718 118.604 45.3853 118.717C45.2017 118.744 45.0095 118.744 44.8085 118.709L41.0943 118.062C42.178 118.246 43.0257 117.485 42.982 116.367Z" fill="#95908E"/>
<path fill-rule="evenodd" clip-rule="evenodd" d="M139.149 37.8707C139.28 37.9143 139.402 37.958 139.533 38.0017C141.849 38.9106 143.317 41.3314 142.933 43.9007C142.487 46.8808 139.699 48.9433 136.71 48.4889C133.722 48.0432 131.668 45.2553 132.122 42.2752C132.384 40.5449 133.433 39.1204 134.849 38.3251C134.438 39.8894 134.36 41.9082 136.352 42.45L136.824 39.3301C137.016 38.0717 138.292 37.6871 139.149 37.8707Z" fill="#D77F68"/>
<path fill-rule="evenodd" clip-rule="evenodd" d="M103.597 32.0766C103.458 32.0679 103.327 32.0679 103.187 32.0766C100.696 32.1728 98.5112 33.973 98.0305 36.5162C97.4712 39.4788 99.4201 42.3453 102.383 42.9046C105.345 43.4639 108.212 41.515 108.771 38.5524C109.094 36.8308 108.579 35.1441 107.504 33.9206C107.373 35.5374 106.779 37.46 104.716 37.3114L105.302 34.2177C105.546 32.968 104.471 32.1902 103.597 32.0766Z" fill="#D77F68"/>
<path fill-rule="evenodd" clip-rule="evenodd" d="M116.942 61.9822C106.875 60.3392 100.495 46.5486 102.094 36.7432L104.218 23.713C105.87 13.5579 115.535 6.60148 125.69 8.2532C135.845 9.90492 142.802 19.5705 141.15 29.7256L139.07 42.4849C137.322 53.2254 128.076 63.7999 116.942 61.9822Z" fill="#E6AD83"/>
<path fill-rule="evenodd" clip-rule="evenodd" d="M129.859 45.002C128.443 44.801 127.123 45.7798 126.922 47.1955C126.721 48.6113 127.7 49.9309 129.116 50.1319C130.532 50.3329 131.851 49.3541 132.052 47.9384C132.262 46.5226 131.275 45.203 129.859 45.002Z" fill="#D7766D"/>
<path fill-rule="evenodd" clip-rule="evenodd" d="M109.907 42.1702C108.492 41.9692 107.172 42.948 106.971 44.3638C106.77 45.7795 107.749 47.0992 109.173 47.3002C110.598 47.5012 111.909 46.5224 112.11 45.1066C112.311 43.6908 111.332 42.3712 109.907 42.1702Z" fill="#D7766D"/>
<path fill-rule="evenodd" clip-rule="evenodd" d="M116.016 28.9917C116.374 29.2276 116.47 29.717 116.234 30.0753C115.998 30.4336 115.509 30.5298 115.151 30.2938C115.142 30.2938 112.992 28.8081 110.536 29.8481C110.134 30.0142 109.671 29.8306 109.505 29.4286C109.339 29.0266 109.523 28.5634 109.925 28.3974C113.158 27.0253 116.007 28.9829 116.016 28.9917Z" fill="#202023"/>
<path fill-rule="evenodd" clip-rule="evenodd" d="M134.22 32.304C134.561 32.5749 134.613 33.0643 134.351 33.4051C134.08 33.746 133.59 33.7984 133.25 33.5362C133.241 33.5275 131.213 31.8757 128.688 32.7147C128.277 32.8545 127.831 32.6273 127.691 32.2166C127.552 31.8058 127.779 31.3601 128.19 31.2203C131.537 30.1192 134.211 32.304 134.22 32.304Z" fill="#202023"/>
<path fill-rule="evenodd" clip-rule="evenodd" d="M120.849 41.0693C121.041 42.0569 121.364 43.8484 121.268 44.1281C121.128 44.5126 119.031 44.5476 118.577 43.9358C118.279 43.5338 118.97 42.0744 119.52 41.113C120.281 39.8021 120.595 39.741 120.849 41.0693Z" fill="#EBBF9E"/>
<path fill-rule="evenodd" clip-rule="evenodd" d="M123.034 49.0046C122.684 51.1457 120.665 52.6052 118.524 52.2556C116.383 51.906 114.924 49.8873 115.273 47.7461C115.334 47.3529 115.71 47.082 116.103 47.1519L122.439 48.1831C122.833 48.2355 123.095 48.6113 123.034 49.0046Z" fill="white"/>
<path fill-rule="evenodd" clip-rule="evenodd" d="M116.497 47.2041L122.046 48.1042L121.941 48.7597C121.889 49.1005 121.557 49.3365 121.216 49.284L116.907 48.5849C116.567 48.5325 116.331 48.2004 116.383 47.8595L116.497 47.2041Z" fill="white"/>
<path fill-rule="evenodd" clip-rule="evenodd" d="M121.53 51.5038C120.7 52.1331 119.625 52.4302 118.524 52.2554C117.414 52.0719 116.496 51.4514 115.911 50.5862C116.741 49.957 117.816 49.6598 118.917 49.8346C120.018 50.0182 120.945 50.6474 121.53 51.5038Z" fill="white"/>
<path fill-rule="evenodd" clip-rule="evenodd" d="M112.153 34.4275C110.921 34.2265 109.767 35.0567 109.566 36.2889C109.365 37.5212 110.196 38.6747 111.428 38.8757C112.66 39.0767 113.814 38.2378 114.015 37.0143C114.216 35.7908 113.377 34.6285 112.153 34.4275Z" fill="#202023"/>
<path fill-rule="evenodd" clip-rule="evenodd" d="M102.173 36.2278C103.335 35.9831 104.908 33.3614 105.135 29.2976C105.135 29.2976 111.568 26.0204 110.484 19.8155C109.4 13.6106 103.973 14.3972 103.973 14.3972C103.973 14.3972 100.163 16.5121 101.037 32.6185C102.444 33.1254 101.797 35.0218 102.173 36.2278Z" fill="#202023"/>
<path fill-rule="evenodd" clip-rule="evenodd" d="M139.114 42.2404C138.091 41.6374 137.436 38.6485 138.502 34.7246C138.502 34.7246 133.442 29.5684 136.44 24.0365C139.437 18.5045 144.331 20.969 144.331 20.969C144.331 20.969 147.276 24.1851 141.334 39.1816C139.839 39.2078 139.848 41.2179 139.114 42.2404Z" fill="#202023"/>
<path fill-rule="evenodd" clip-rule="evenodd" d="M119.223 35.5546L123.156 36.1926C123.357 35.6508 123.724 35.1876 124.178 34.8642C124.781 34.4273 125.55 34.2263 126.337 34.3574L136.518 36.0178C137.305 36.1489 137.969 36.5859 138.406 37.1889L138.432 37.2326C138.852 37.8269 139.044 38.5784 138.913 39.3475L138.589 41.3488C138.397 42.5198 137.742 43.5161 136.842 44.1628C135.941 44.8095 134.797 45.1154 133.617 44.9231L126.267 43.7259C125.096 43.5336 124.1 42.8782 123.453 41.978C122.806 41.0779 122.5 39.933 122.693 38.7532L122.929 37.3112L119.11 36.6908L118.856 38.1327C118.664 39.3125 118.008 40.3001 117.108 40.9468C116.208 41.5935 115.063 41.8994 113.884 41.7071L106.534 40.5098C105.363 40.3175 104.366 39.6621 103.72 38.762C103.073 37.8618 102.767 36.717 102.959 35.5459L103.283 33.5446C103.414 32.7581 103.851 32.0939 104.454 31.6569C105.057 31.2287 105.826 31.019 106.612 31.1501L116.794 32.8105C117.563 32.9329 118.218 33.3611 118.646 33.9379L118.673 33.9728C119.005 34.4273 119.197 34.9779 119.223 35.5546ZM116.61 33.9291L106.438 32.2687C105.957 32.19 105.494 32.3124 105.127 32.5746C104.76 32.8367 104.498 33.2475 104.419 33.7194L104.096 35.7207C103.956 36.5859 104.183 37.4336 104.655 38.0978C105.136 38.762 105.861 39.2426 106.726 39.3824L114.076 40.5797C114.941 40.7196 115.789 40.4923 116.453 40.0117C117.117 39.531 117.598 38.8057 117.738 37.9405L118.061 35.9392C118.14 35.4585 118.017 34.9953 117.746 34.6283L117.729 34.5933C117.467 34.2525 117.073 33.9991 116.61 33.9291ZM136.326 37.1365L126.153 35.476C125.673 35.3973 125.21 35.5197 124.843 35.7906C124.475 36.0528 124.213 36.4548 124.135 36.9355L123.811 38.9367C123.671 39.8019 123.899 40.6496 124.371 41.3138C124.851 41.978 125.577 42.4587 126.442 42.5985L133.792 43.7958C134.657 43.9356 135.504 43.7084 136.169 43.2277C136.833 42.7471 137.313 42.0217 137.453 41.1565L137.777 39.1552C137.855 38.692 137.733 38.2376 137.488 37.8793L137.462 37.8531C137.209 37.486 136.807 37.2151 136.326 37.1365Z" fill="#272525"/>
<path fill-rule="evenodd" clip-rule="evenodd" d="M132.603 41.2616C132.551 41.5675 132.262 41.786 131.948 41.7335C131.642 41.6811 131.423 41.3927 131.476 41.0781C131.554 40.5799 131.432 40.0905 131.152 39.706C130.882 39.3302 130.462 39.0506 129.955 38.9719C129.448 38.8933 128.968 39.0156 128.583 39.2953C128.207 39.5662 127.928 39.9944 127.849 40.4926C127.797 40.8072 127.508 41.0169 127.194 40.9645C126.879 40.912 126.669 40.6236 126.722 40.309C126.853 39.505 127.298 38.8233 127.919 38.3776C128.539 37.9319 129.326 37.7222 130.139 37.8533C130.951 37.9844 131.624 38.4301 132.07 39.0506C132.525 39.6623 132.734 40.4576 132.603 41.2616Z" fill="#202023"/>
<path fill-rule="evenodd" clip-rule="evenodd" d="M19.0539 73.3521C22.0515 73.3521 24.6558 78.045 24.883 83.8392C25.1015 89.6333 22.8555 94.3263 19.8579 94.3263C16.8604 94.3263 14.2561 89.6333 14.0288 83.8392C13.8104 78.045 16.0563 73.3521 19.0539 73.3521Z" fill="#95908E"/>
<path fill-rule="evenodd" clip-rule="evenodd" d="M144.34 20.9427C148.841 -5.31876 113.316 -2.74941 105.302 6.40933C105.197 6.52294 105.11 6.87251 105.005 6.76764C98.0744 -0.914168 99.6125 17.3946 107.408 19.9727C115.203 22.5508 125.053 25.0327 134.316 23.1275C134.316 23.1275 136.518 22.4022 136.536 25.1638C136.553 27.9341 142.522 26.0552 142.522 26.0552L144.34 20.9427Z" fill="#202023"/>
<path fill-rule="evenodd" clip-rule="evenodd" d="M117.423 59.4566C117.423 59.4566 116.645 59.343 116.147 59.7537C116.147 59.7537 115.317 59.1856 114.644 59.4828C114.644 59.4828 113.63 58.8885 112.957 59.1682C112.957 59.1682 111.594 58.4865 111.105 58.5652C110.615 58.6438 110.309 61.8948 116.89 62.8998C123.471 63.9048 124.152 60.715 123.707 60.4965C123.261 60.2781 121.758 60.5228 121.758 60.5228C121.198 60.0596 120.054 60.3217 120.054 60.3217C119.503 59.8323 118.542 60.1295 118.542 60.1295C118.201 59.5702 117.423 59.4566 117.423 59.4566Z" fill="#202023"/>
<path fill-rule="evenodd" clip-rule="evenodd" d="M108.588 113.946C104.856 109.515 104.166 108.292 104.166 108.292L96.9121 105.853C94.3515 107.942 99.3416 109.41 100.757 110.118C101.526 110.503 100.548 110.704 102.261 113.421C102.261 113.421 99.4989 111.473 96.5712 112.373C93.6436 113.282 91.5724 114.024 91.5724 114.024C91.5112 115.265 90.8995 115.842 92.1055 116.218C93.1979 116.559 97.0956 115.073 97.8909 115.493L101.579 117.45C98.2404 117.337 98.3191 117.223 95.7497 118.071C94.937 118.342 92.5687 119.032 92.2715 119.408C91.4763 120.413 92.5949 121.61 94.0631 121.785C95.6361 121.968 98.3016 120.937 99.6912 120.955C100.731 120.963 101.465 120.937 100.181 121.427C99.2891 121.767 96.2391 122.449 95.505 123.052C94.4039 123.952 95.776 125.683 97.2966 125.377C98.8172 125.071 102.864 123.585 104 124.319C105.136 125.053 108.046 127.999 111.052 127.125C114.565 126.102 116.025 126.854 116.261 126.19C116.741 124.817 117.729 120.693 116.348 118.281C115.911 117.52 111.673 116.873 110.589 115.991C110.065 115.545 109.409 114.916 108.588 113.946Z" fill="#E6AD91"/>
<path fill-rule="evenodd" clip-rule="evenodd" d="M148.307 72.8015C148.307 72.8015 154.355 74.1911 156.697 80.1512C159.031 86.1027 172.166 121.383 173.424 129.117C174.683 136.852 167.149 146.701 159.765 146.246C152.38 145.792 114.312 133.539 114.312 133.539C114.312 133.539 113.482 132.788 113.56 131.809C113.639 130.83 115.116 120.028 114.819 117.398C126.94 119.163 135.172 121.339 145.607 123.052C150.641 123.874 150.746 124.477 149.225 119.749L140.905 94.0991C140.897 94.0904 141.185 77.9664 148.307 72.8015Z" fill="#3D3D3D"/>
</svg>
