<svg width="126" height="369" viewBox="0 0 126 369" fill="none" xmlns="http://www.w3.org/2000/svg">
<path fill-rule="evenodd" clip-rule="evenodd" d="M51.1284 352.749C51.1284 352.749 50.7564 347.675 47.7454 347.675C44.7344 347.675 43.8576 347.675 41.865 347.675C39.8724 347.675 37.933 350.783 37.3751 353.059C37.3751 353.059 35.4268 353.573 35.0105 355.539C34.5943 357.505 33.6644 364.855 33.5316 365.582C33.3899 366.308 32.8851 369 35.8961 369C38.9071 369 55.4767 369 57.3807 369C59.2759 369 59.0456 367.601 59.0456 366.795C59.0456 365.989 58.6294 363.013 57.6109 361.464C56.5925 359.914 51.1284 352.749 51.1284 352.749Z" fill="#4D4C4E"/>
<path fill-rule="evenodd" clip-rule="evenodd" d="M51.1283 352.749C51.1283 352.749 50.7564 347.675 47.7453 347.675C44.7343 347.675 43.8576 347.675 41.865 347.675C39.8724 347.675 37.9329 350.783 37.375 353.059L39.7927 358.169C39.7927 358.169 40.8642 359.32 42.972 359.32C45.0708 359.32 49.7733 359.32 49.7733 359.32C49.7733 359.32 51.5622 358.975 51.4737 357.319C51.3851 355.663 51.1283 352.749 51.1283 352.749Z" fill="#292929"/>
<path fill-rule="evenodd" clip-rule="evenodd" d="M33.6466 364.864C33.5935 365.218 33.5581 365.466 33.5404 365.582C33.3987 366.308 32.8939 369 35.9049 369C38.9159 369 55.4854 369 57.3895 369C59.2847 369 59.0544 367.601 59.0544 366.795C59.0544 366.449 58.9836 365.714 58.8153 364.864H33.6466Z" fill="#202023"/>
<path fill-rule="evenodd" clip-rule="evenodd" d="M91.4759 348.472C91.4759 348.472 100.571 356.982 103.865 357.655C107.16 358.328 114.377 359.01 115.91 359.949C117.442 360.897 118.867 364.882 119.036 365.626C119.204 366.37 119.602 369 117.388 369C115.174 369 78.4045 369 76.7042 369C75.0038 369 74.6584 367.99 74.6584 366.503C74.6584 365.015 75.6769 363.527 75.6769 363.527C75.6769 363.527 75.6769 357.044 75.6769 355.22C75.6769 353.396 76.589 351.908 78.5728 351.775C82.0089 351.545 85.755 353.635 87.969 349.791C88.9608 348.082 89.3859 346.763 91.4759 348.472Z" fill="#4D4C4E"/>
<path fill-rule="evenodd" clip-rule="evenodd" d="M91.476 348.472C91.476 348.472 100.19 356.628 103.653 357.602C102.395 359.081 100.217 359.798 99.2604 359.719C98.0117 359.613 88.6155 355.043 87.7654 353.821C86.9152 352.599 87.8008 350.083 87.8008 350.083C87.8628 349.995 87.9159 349.898 87.9779 349.8C88.9609 348.082 89.386 346.763 91.476 348.472Z" fill="#292929"/>
<path fill-rule="evenodd" clip-rule="evenodd" d="M118.283 363.527C118.69 364.483 118.965 365.316 119.036 365.617C119.204 366.361 119.602 368.991 117.388 368.991C115.174 368.991 78.4045 368.991 76.7042 368.991C75.0038 368.991 74.6584 367.982 74.6584 366.494C74.6584 365.006 75.6769 363.518 75.6769 363.518H118.283V363.527Z" fill="#202023"/>
<path fill-rule="evenodd" clip-rule="evenodd" d="M15.625 59.3602L20.7615 63.434L20.3453 68.9955L12.304 69.8545L9.31958 67.5431L9.84208 66.9232L10.4709 60.3255L15.625 59.3602Z" fill="#D77F68"/>
<path fill-rule="evenodd" clip-rule="evenodd" d="M95.4434 69.5798C95.4434 69.5798 103.113 72.5643 104.698 74.1318C106 75.4071 117.459 99.7875 122.339 110.68C126.652 120.324 127.387 129.26 121.631 138.789C118.46 144.032 107.727 151.949 103.343 158.565C100.562 162.762 95.3283 160.291 95.3283 160.291C95.3283 160.291 92.9372 159.548 92.0959 159.034C91.2546 158.52 90.7144 150.399 90.7144 150.399C90.7144 150.399 97.87 136.248 99.0212 134.724C100.173 133.201 106.035 124.814 106.035 124.814L94.611 96.8119C94.6021 96.8119 86.9948 83.4217 95.4434 69.5798Z" fill="#3D3D3D"/>
<path fill-rule="evenodd" clip-rule="evenodd" d="M97.1527 159.982L99.9335 165.738L100.677 174.558C100.677 174.558 103.742 179.42 104.273 180.873C104.804 182.334 106.664 194.236 106.868 196.415C107.063 198.602 97.4095 295.761 96.09 313.252C94.7705 330.742 96.2671 349.685 96.4442 351.385C96.6214 353.086 88.403 355.999 85.392 356.247C83.6385 356.389 79.9633 355.911 77.0585 355.22L77.0054 355.202C75.8541 354.901 75.7744 353.458 75.7744 353.458L74.9774 322.701C75.066 318.122 75.066 305.467 74.88 300.021C74.694 294.566 74.8888 191.163 74.8888 191.163L79.7596 162.532L97.1527 159.982Z" fill="#202023"/>
<path fill-rule="evenodd" clip-rule="evenodd" d="M48.1618 160.433L46.8954 164.596C46.8954 164.596 42.8748 167.27 42.618 168.607C42.3612 169.945 41.201 172.867 40.8202 174.806C40.4394 176.746 42.5029 181.448 41.8652 182.901C41.2365 184.362 37.8092 255.821 37.8092 264.305C37.8092 272.789 37.5701 272.417 37.1804 278.953L34.5414 352.492C34.5414 352.492 34.1251 354.901 36.8882 355.539C39.6512 356.185 50.2961 355.707 52.2001 355.3C53.5817 354.795 54.6267 354.29 55.0429 353.927C56.3093 352.838 55.9285 334.621 56.1853 331.823C56.4421 329.033 62.0125 272.674 63.5269 263.207C65.0413 253.731 75.5179 191.978 77.7939 182.75C80.0698 173.522 87.8365 166.048 87.8365 166.048L84.9938 163.205L48.1618 160.433Z" fill="#202023"/>
<path fill-rule="evenodd" clip-rule="evenodd" d="M98.6142 164.117C98.6142 164.117 84.5332 168.563 68.2205 166.757C51.9078 164.95 80.3089 153.428 88.049 156.616C95.798 159.813 98.6142 164.117 98.6142 164.117Z" fill="#DE8D4D"/>
<path fill-rule="evenodd" clip-rule="evenodd" d="M59.143 65.7452L38.3049 72.2189C38.3049 72.2189 43.9196 79.9945 41.2185 102.232C41.2185 102.232 47.1078 128.437 47.1078 131.935C47.1078 135.433 43.9285 150.55 43.9285 152.799C43.9285 154.898 69.903 169.307 95.7181 160.929C103.476 158.414 101.483 154.668 100.996 152.587C97.4982 137.549 97.9321 119.403 97.1882 115.055C96.3735 110.308 101.235 101.833 101.235 101.833L96.0901 71.1031L81.6637 65.6035L59.143 65.7452Z" fill="white"/>
<path fill-rule="evenodd" clip-rule="evenodd" d="M79.6091 163.506C80.1936 163.497 80.7869 163.488 81.3803 163.462C81.6282 162.674 82.2659 160.318 82.0622 157.413C81.9913 156.457 81.7345 153.207 81.3891 148.894C80.4504 137.16 78.8917 117.606 78.8917 115.888C78.8917 114.763 79.0334 112.93 79.1751 111.017C79.3345 108.883 79.5028 106.651 79.5028 105.172C79.5028 102.32 74.9508 70.3415 74.9331 70.2441C74.8711 69.8101 74.4372 69.5002 73.9678 69.5533C73.4984 69.6064 73.1619 70.0138 73.2239 70.4477C73.2328 70.5363 77.7759 102.382 77.7759 105.172C77.7759 106.633 77.6076 108.821 77.4571 110.911C77.3065 112.868 77.1648 114.745 77.1648 115.888C77.1648 117.632 78.7323 137.239 79.6711 149.009C80.0164 153.348 80.2821 156.634 80.3441 157.52C80.5832 160.787 79.6622 163.241 79.6533 163.241C79.6179 163.329 79.6091 163.426 79.6091 163.506Z" fill="#DBDADB"/>
<path fill-rule="evenodd" clip-rule="evenodd" d="M61.0117 50.6902H79.1044V70.7578H71.9223L61.0117 66.5069V50.6902Z" fill="#D77F68"/>
<path fill-rule="evenodd" clip-rule="evenodd" d="M60.8075 61.0695L74.0826 70.7579L79.1039 61.592L81.6633 65.5949L79.2456 78.2677L74.0826 70.7579L68.2996 78.4094L59.1426 65.7631L60.8075 61.0695Z" fill="#DBDADB"/>
<path fill-rule="evenodd" clip-rule="evenodd" d="M56.8845 189.02C49.3923 191.456 39.1549 194.041 38.5526 193.696C37.6582 193.182 37.2065 190.481 37.2065 190.481C42.8124 151.905 44.9467 142.633 40.9349 106.27C44.4684 85.6976 38.3047 72.7679 38.3047 72.7679C38.3047 72.7679 53.6521 66.3385 54.4225 66.2765C55.193 66.2145 55.9192 66.8433 55.9192 66.8433C58.2395 75.0616 63.0217 79.2682 64.722 86.9463C68.4238 103.737 74.4282 183.317 56.8845 189.02Z" fill="#4D4C4E"/>
<path fill-rule="evenodd" clip-rule="evenodd" d="M82.4697 65.9314C82.4697 65.9314 83.1251 65.8074 83.5059 65.8694C83.8867 65.9314 95.7625 69.3232 96.0548 69.4826C96.347 69.642 96.6038 69.7395 97.1175 72.3697C97.6311 74.9999 101.351 101.417 101.483 102.347C102.342 108.599 109.799 182.29 109.604 185.903C109.516 187.568 106.133 189.499 105.238 190.207C104.335 190.916 103.892 190.916 101.962 190.083C100.031 189.251 90.2718 180.067 90.2718 180.067C90.2718 180.067 88.3412 177.88 88.4741 174.417C88.8106 165.313 87.6505 68.0834 83.4262 66.3388L82.4697 65.9314Z" fill="#4D4C4E"/>
<path fill-rule="evenodd" clip-rule="evenodd" d="M38.3051 72.6971C38.3051 72.6971 35.3914 73.9016 34.0631 76.824C32.7347 79.7465 10.4176 101.47 10.4176 101.47L9.81543 122.928L16.2714 124.708L40.9353 106.27C44.398 98.5654 46.426 80.8269 38.3051 72.6971Z" fill="#3D3D3D"/>
<path fill-rule="evenodd" clip-rule="evenodd" d="M25.3225 56.5439C27.0139 53.834 29.3076 52.4967 30.1932 52.0982C31.3622 51.5669 28.5992 47.13 25.3402 50.823C25.3402 50.823 23.321 51.8325 22.7542 50.9646C22.1875 50.0968 26.2169 36.5206 26.6597 35.0328C27.1025 33.545 25.659 32.7037 25.1011 32.9162C24.5431 33.1199 23.9321 35.2807 22.9845 37.9552C22.0369 40.6297 20.9476 43.6231 20.6377 43.7913C20.3366 43.9507 19.7875 43.685 19.7963 41.9936C19.7963 40.3021 20.1417 30.9945 19.6635 30.286C19.1853 29.5775 17.7329 29.7281 17.3078 31.1007C16.8827 32.4823 16.8562 41.8961 16.5108 43.1006C16.1654 44.305 15.1558 43.747 14.9521 42.888C14.7396 42.0378 13.4732 31.8269 13.0481 31.1539C12.623 30.4808 11.1441 30.6845 11.0289 32.2431C10.9227 33.8018 11.7728 43.6231 11.4717 44.2695C11.1795 44.916 10.1965 45.0312 9.30203 43.3574C8.40758 41.6836 6.90206 37.973 6.4327 37.7073C5.95447 37.4416 4.65265 38.7788 5.29028 40.674C5.91905 42.5692 7.336 47.3426 7.46884 48.0776C8.15961 51.9565 7.81423 55.6849 8.72639 58.6339C9.05406 59.6966 9.65627 60.6796 10.4267 61.521C12.2511 63.5135 15.0673 64.7357 17.6886 64.5143C22.2317 64.1335 23.0022 60.2723 25.3225 56.5439Z" fill="#E6AD83"/>
<path fill-rule="evenodd" clip-rule="evenodd" d="M25.3397 50.8318C25.3397 50.8318 23.3205 51.8413 22.7537 50.9735C22.5855 50.7166 22.8157 49.3617 23.2408 47.5374L21.5493 54.7815L25.3397 50.8318Z" fill="#D77F68"/>
<path fill-rule="evenodd" clip-rule="evenodd" d="M22.7627 104.667C22.7627 104.667 23.3827 76.3546 23.3561 73.5207C23.3295 70.6868 23.7635 67.233 21.7355 66.5865C21.7355 66.5865 13.6145 67.5961 8.55778 65.3644C8.45151 65.4264 -8.69363 124 5.84786 126.913C10.7186 127.887 15.1732 126.541 18.1488 122.716L22.7627 104.667Z" fill="#3D3D3D"/>
<path fill-rule="evenodd" clip-rule="evenodd" d="M89.0053 34.4308C89.1381 34.4485 89.2798 34.4751 89.4126 34.5016C91.8834 35.033 93.7432 37.2116 93.7698 39.8506C93.8052 42.906 91.3521 45.421 88.2968 45.4565C85.2415 45.4919 82.7264 43.0476 82.691 39.9835C82.6732 38.2034 83.488 36.6182 84.781 35.5821C84.6304 37.2116 84.8784 39.2396 86.9595 39.461L86.9241 36.264C86.9064 34.971 88.1197 34.3865 89.0053 34.4308Z" fill="#D77F68"/>
<path fill-rule="evenodd" clip-rule="evenodd" d="M52.5097 34.4219C52.3769 34.4396 52.2352 34.4573 52.1023 34.4839C49.6315 34.9798 47.7363 37.1406 47.6655 39.7709C47.5858 42.8262 50.0035 45.3678 53.0588 45.4475C56.1141 45.5272 58.6557 43.1096 58.7354 40.0543C58.7797 38.2742 57.9827 36.6713 56.7074 35.6263C56.8403 37.2646 56.5657 39.2838 54.4757 39.4698L54.5554 36.2816C54.5997 34.9975 53.3953 34.3953 52.5097 34.4219Z" fill="#D77F68"/>
<path fill-rule="evenodd" clip-rule="evenodd" d="M70.7179 62.1587C60.383 62.1587 51.7573 49.4061 51.7573 39.328V25.9555C51.7573 15.5232 60.2945 6.99487 70.7179 6.99487C81.1414 6.99487 89.6786 15.5232 89.6786 25.9555V39.0535C89.6786 50.088 82.1598 62.1587 70.7179 62.1587Z" fill="#E6AD83"/>
<path fill-rule="evenodd" clip-rule="evenodd" d="M80.8754 43.0739C79.423 43.1005 78.2717 44.2961 78.2983 45.7484C78.3249 47.2008 79.5204 48.3521 80.9728 48.3255C82.4252 48.299 83.5764 47.1034 83.5499 45.651C83.5322 44.1986 82.3278 43.0474 80.8754 43.0739Z" fill="#D7766D"/>
<path fill-rule="evenodd" clip-rule="evenodd" d="M60.4625 43.4901C59.0102 43.5166 57.8589 44.7122 57.8855 46.1646C57.912 47.617 59.1076 48.7682 60.56 48.7417C62.0123 48.7151 63.1636 47.5195 63.137 46.0672C63.1105 44.6236 61.9149 43.4635 60.4625 43.4901Z" fill="#D7766D"/>
<path fill-rule="evenodd" clip-rule="evenodd" d="M64.4208 29.3118C64.8193 29.4889 64.9964 29.9671 64.8193 30.3657C64.6422 30.7642 64.1639 30.9413 63.7654 30.7642C63.7566 30.7642 61.3655 29.6306 59.0806 31.0653C58.7087 31.3044 58.2127 31.1893 57.9825 30.8173C57.7522 30.4454 57.8585 29.9494 58.2305 29.7192C61.2503 27.8152 64.4119 29.3118 64.4208 29.3118Z" fill="#202023"/>
<path fill-rule="evenodd" clip-rule="evenodd" d="M83.1782 29.6661C83.559 29.8786 83.7007 30.3657 83.4882 30.7465C83.2757 31.1273 82.7886 31.269 82.4078 31.0565C82.3989 31.0565 80.1052 29.7281 77.7141 30.9767C77.3245 31.1804 76.8374 31.0299 76.6425 30.6402C76.4389 30.2506 76.5894 29.7723 76.9791 29.5687C80.1318 27.9126 83.1694 29.6661 83.1782 29.6661Z" fill="#202023"/>
<path fill-rule="evenodd" clip-rule="evenodd" d="M71.2314 40.6121C71.5856 41.5686 72.2055 43.3132 72.1524 43.5966C72.0815 44.004 69.9827 44.3848 69.4247 43.8445C69.0617 43.4903 69.5133 41.9228 69.9118 40.8689C70.452 39.4254 70.7531 39.3192 71.2314 40.6121Z" fill="#EBBF9E"/>
<path fill-rule="evenodd" clip-rule="evenodd" d="M74.703 47.7766C74.703 49.9728 72.923 51.7617 70.7178 51.7617C68.5216 51.7617 66.7327 49.9728 66.7327 47.7766C66.7327 47.3692 67.0603 47.0415 67.4677 47.0415H73.968C74.3754 47.0415 74.703 47.378 74.703 47.7766Z" fill="#202023"/>
<path fill-rule="evenodd" clip-rule="evenodd" d="M67.8748 47.0414H73.578V47.7144C73.578 48.0687 73.2857 48.3521 72.9404 48.3521H68.5212C68.167 48.3521 67.8836 48.0687 67.8836 47.7144V47.0414H67.8748Z" fill="white"/>
<path fill-rule="evenodd" clip-rule="evenodd" d="M73.6047 50.5217C72.8785 51.2833 71.8512 51.7615 70.7176 51.7615C69.584 51.7615 68.5568 51.2833 67.8306 50.5217C68.5568 49.7601 69.584 49.2819 70.7176 49.2819C71.86 49.2819 72.8785 49.7601 73.6047 50.5217Z" fill="#D26070"/>
<path fill-rule="evenodd" clip-rule="evenodd" d="M61.4455 39.9478C62.703 39.9478 63.7303 38.9206 63.7303 37.663C63.7303 36.4055 62.703 35.3782 61.4455 35.3782C60.1879 35.3782 59.1606 36.4055 59.1606 37.663C59.1606 38.9206 60.1879 39.9478 61.4455 39.9478Z" fill="#202023"/>
<path fill-rule="evenodd" clip-rule="evenodd" d="M79.9902 39.9478C81.2477 39.9478 82.275 38.9206 82.275 37.663C82.275 36.4055 81.2477 35.3782 79.9902 35.3782C78.7326 35.3782 77.7053 36.4055 77.7053 37.663C77.7142 38.9206 78.7326 39.9478 79.9902 39.9478Z" fill="#202023"/>
<path fill-rule="evenodd" clip-rule="evenodd" d="M51.7574 38.8055C52.8821 38.3716 54.0245 35.4934 53.5906 31.3842C53.5906 31.3842 59.4886 27.0536 57.3986 21.0316C55.2998 15.0095 50.0039 16.6745 50.0039 16.6745C50.0039 16.6745 46.5324 19.4109 50.0393 35.3782C51.5271 35.6528 51.1817 37.6631 51.7574 38.8055Z" fill="#202023"/>
<path fill-rule="evenodd" clip-rule="evenodd" d="M89.6783 38.8056C88.5624 38.3716 87.4112 35.4934 87.8451 31.3843C87.8451 31.3843 81.947 27.0537 84.037 21.0317C86.1359 15.0096 90.5816 18.3837 90.5816 18.3837C90.5816 18.3837 97.4715 20.0221 91.4052 35.3783C89.9174 35.6528 90.2539 37.6632 89.6783 38.8056Z" fill="#202023"/>
<path fill-rule="evenodd" clip-rule="evenodd" d="M68.6986 35.3606H72.7369C72.8521 34.7849 73.1443 34.2624 73.5428 33.8639C74.0742 33.3326 74.8092 33.0049 75.6151 33.0049H86.0652C86.8711 33.0049 87.6061 33.3326 88.1375 33.8639L88.1729 33.8993C88.6865 34.4307 89.0053 35.148 89.0053 35.9362V37.9908C89.0053 39.1952 88.5094 40.2933 87.7212 41.0904C86.9242 41.8874 85.8261 42.3745 84.6217 42.3745H77.0764C75.872 42.3745 74.7738 41.8786 73.9768 41.0904C73.1797 40.2933 72.6927 39.1952 72.6927 37.9908V36.5118H68.7695V37.9908C68.7695 39.1952 68.2735 40.2933 67.4854 41.0904C66.6883 41.8874 65.5902 42.3745 64.3858 42.3745H56.8405C55.6361 42.3745 54.5379 41.8786 53.7409 41.0904C52.9439 40.2933 52.4568 39.1952 52.4568 37.9908V35.9362C52.4568 35.1303 52.7845 34.3953 53.3158 33.8639C53.8472 33.3326 54.5822 33.0049 55.3881 33.0049H65.8381C66.6263 33.0049 67.3525 33.3237 67.875 33.8373L67.9104 33.8728C68.3001 34.2624 68.5835 34.7849 68.6986 35.3606ZM65.8204 34.1562H55.3704C54.8833 34.1562 54.4317 34.3598 54.1129 34.6787C53.7852 35.0063 53.5903 35.4491 53.5903 35.9362V37.9908C53.5903 38.8764 53.9534 39.6911 54.5379 40.2756C55.1224 40.8601 55.9372 41.2232 56.8228 41.2232H64.3681C65.2537 41.2232 66.0684 40.8601 66.6529 40.2756C67.2374 39.6911 67.6005 38.8852 67.6005 37.9908V35.9362C67.6005 35.4491 67.3968 34.9975 67.078 34.6787L67.0514 34.6521C66.7326 34.3421 66.2987 34.1562 65.8204 34.1562ZM86.0652 34.1562H75.6151C75.1281 34.1562 74.6764 34.3598 74.3576 34.6787C74.0388 35.0063 73.8351 35.4491 73.8351 35.9362V37.9908C73.8351 38.8764 74.1982 39.6911 74.7827 40.2756C75.3672 40.8601 76.1819 41.2232 77.0675 41.2232H84.6128C85.4984 41.2232 86.3131 40.8601 86.8976 40.2756C87.4821 39.6911 87.8452 38.8852 87.8452 37.9908V35.9362C87.8452 35.458 87.6592 35.024 87.3493 34.7052L87.3227 34.6787C87.0039 34.3598 86.5611 34.1562 86.0652 34.1562Z" fill="#272525"/>
<path fill-rule="evenodd" clip-rule="evenodd" d="M90.7056 17.5068C89.9706 -9.49499 55.1755 0.113727 49.0295 10.8029C48.9498 10.9357 48.932 11.3077 48.8081 11.2102C40.3949 4.94908 45.5579 22.8381 53.8205 23.8566C62.0832 24.875 72.3561 25.3798 81.1855 21.6603C81.1855 21.6603 83.2312 20.5001 83.798 23.2455C84.3648 25.9908 89.9174 22.9444 89.9174 22.9444L90.7056 17.5068Z" fill="#202023"/>
<path fill-rule="evenodd" clip-rule="evenodd" d="M70.7175 59.422C70.7175 59.422 71.5145 59.422 71.9485 59.9179C71.9485 59.9179 72.8607 59.4751 73.4983 59.8825C73.4983 59.8825 74.6053 59.4397 75.234 59.8205C75.234 59.8205 76.7041 59.3423 77.1824 59.4928C77.6606 59.6434 77.4658 62.9467 70.7175 62.9467C63.9693 62.9467 63.7744 59.6434 64.2527 59.4928C64.7309 59.3423 66.201 59.8205 66.201 59.8205C66.8297 59.4397 67.9367 59.8825 67.9367 59.8825C68.5655 59.484 69.4865 59.9179 69.4865 59.9179C69.9293 59.422 70.7175 59.422 70.7175 59.422Z" fill="#202023"/>
</svg>
