<svg width="134" height="358" viewBox="0 0 134 358" fill="none" xmlns="http://www.w3.org/2000/svg">
<path fill-rule="evenodd" clip-rule="evenodd" d="M43.1333 341.882C43.1333 341.882 42.7491 337.116 39.6576 337.116C36.5661 337.116 35.6637 337.116 33.6176 337.116C31.5715 337.116 29.579 340.038 29.0072 342.171C29.0072 342.171 27.0057 342.655 26.5858 344.507C26.1569 346.358 25.2098 353.257 25.0668 353.937C24.9239 354.616 24.3967 357.148 27.4972 357.148C30.5887 357.148 47.6098 357.148 49.5665 357.148C51.5143 357.148 51.282 355.835 51.282 355.077C51.282 354.327 50.8532 351.53 49.8078 350.069C48.7445 348.616 43.1333 341.882 43.1333 341.882Z" fill="#4D4C4E"/>
<path fill-rule="evenodd" clip-rule="evenodd" d="M43.1335 341.881C43.1335 341.881 42.7493 337.116 39.6578 337.116C36.5663 337.116 35.6639 337.116 33.6178 337.116C31.5717 337.116 29.5702 340.03 29.0073 342.17L31.4912 346.966C31.4912 346.966 32.5902 348.043 34.7525 348.043C36.9148 348.043 41.7397 348.043 41.7397 348.043C41.7397 348.043 43.5803 347.715 43.482 346.169C43.3926 344.63 43.1335 341.881 43.1335 341.881Z" fill="#292929" stroke="#4D4C4E" stroke-width="0.216" stroke-miterlimit="2.6131"/>
<path fill-rule="evenodd" clip-rule="evenodd" d="M25.174 353.269C25.1204 353.616 25.0846 353.858 25.0578 353.963C24.9149 354.666 24.3877 357.282 27.4881 357.282C30.5796 357.282 47.6007 357.282 49.5575 357.282C51.5053 357.282 51.273 355.926 51.273 355.142C51.273 354.811 51.1926 354.093 51.0228 353.269H25.174Z" fill="#202023"/>
<path fill-rule="evenodd" clip-rule="evenodd" d="M85.8692 337.865C85.8692 337.865 95.2152 345.858 98.5926 346.49C101.979 347.123 109.395 347.764 110.968 348.647C112.54 349.537 114.005 353.28 114.175 353.975C114.354 354.67 114.756 357.147 112.478 357.147C110.199 357.147 72.431 357.147 70.6798 357.147C68.9285 357.147 68.5801 356.194 68.5801 354.803C68.5801 353.405 69.6344 352.014 69.6344 352.014C69.6344 352.014 69.6344 345.928 69.6344 344.209C69.6344 342.498 70.5636 341.1 72.6098 340.975C76.1391 340.756 79.99 342.725 82.2684 339.108C83.287 337.506 83.7248 336.264 85.8692 337.865Z" fill="#4D4C4E"/>
<path fill-rule="evenodd" clip-rule="evenodd" d="M85.8693 337.865C85.8693 337.865 94.831 345.527 98.3782 346.441C97.0826 347.831 94.8489 348.51 93.875 348.432C92.5883 348.331 82.9386 344.035 82.063 342.887C81.1873 341.739 82.0987 339.373 82.0987 339.373C82.1613 339.287 82.2238 339.201 82.2774 339.107C83.2871 337.506 83.7249 336.264 85.8693 337.865Z" fill="#292929"/>
<path fill-rule="evenodd" clip-rule="evenodd" d="M113.407 352.018C113.827 352.924 114.113 353.712 114.184 354.004C114.363 354.705 114.765 357.203 112.486 357.203C110.208 357.203 72.4398 357.203 70.6886 357.203C68.9373 357.203 68.5889 356.242 68.5889 354.831C68.5889 353.421 69.6432 352.018 69.6432 352.018H113.407Z" fill="#202023"/>
<path fill-rule="evenodd" clip-rule="evenodd" d="M110.413 90.1204L109.824 85.0736L108.966 80.3081C108.966 80.3081 104.918 72.2849 104.883 70.9021C104.856 69.5194 106.419 64.3164 106.857 62.7539C107.304 61.1915 111.387 56.4181 112.057 55.5432C112.728 54.6682 114.157 56.6135 113.147 58.129C112.138 59.6446 111.298 60.9493 111.298 60.9493L110.288 65.582C110.288 65.582 111.87 62.1758 112.048 61.8399C112.227 61.5039 112.71 60.8711 114.014 60.4727C115.319 60.0743 116.096 60.7774 116.748 61.4649C117.401 62.1524 116.677 63.3242 115.453 63.1601L114.845 66.1132L116.096 64.3086C116.096 64.3086 116.659 63.7617 117.436 63.8554C118.214 63.9492 119.277 64.8007 119.679 65.207C120.081 65.6054 119.447 66.8866 119.447 66.8866C119.447 66.8866 120.304 66.8632 120.778 67.0897C121.251 67.3163 122.1 68.66 122.297 69.2537C122.493 69.8475 121.698 76.4801 121.332 77.9566C120.975 79.441 119.715 80.4331 119.715 80.4331L120.823 87.8626L110.413 90.1204Z" fill="#E6AD83"/>
<path fill-rule="evenodd" clip-rule="evenodd" d="M110.127 87.7073L109.824 85.0944L109.296 82.1597C111.762 82.6932 114.899 83.0777 120.027 82.4657L120.706 87.0404C116.114 87.2993 111.092 87.6289 110.797 87.8564C110.717 87.9192 110.476 87.8564 110.127 87.7073Z" fill="#D77F68"/>
<path fill-rule="evenodd" clip-rule="evenodd" d="M78.6231 0.311177C78.4623 0.0299388 78.0692 -0.0794317 77.7475 0.0611875C77.4258 0.201807 77.3008 0.545543 77.4616 0.826781L113.434 63.7617C113.916 63.9258 115.087 64.4492 114.953 65.6444C114.926 65.8788 114.899 66.0897 114.872 66.2772L117.088 70.1521C117.365 70.1052 117.874 69.988 117.999 69.7849C118.107 69.5974 118.357 69.0427 118.518 68.6756L78.6231 0.311177ZM118.089 71.9176L122.771 80.1126C123.155 80.7844 125.13 80.0345 124.745 79.3626L120.233 71.6286C119.956 71.8864 119.608 72.191 119.456 72.2457C119.233 72.3238 118.357 72.0504 118.089 71.9176Z" fill="#313132"/>
<path fill-rule="evenodd" clip-rule="evenodd" d="M85.4492 96.5182C85.4671 96.5417 87.8527 92.0652 88.1029 92.1043C88.9071 92.2371 92.4811 93.948 93.2048 94.3855C96.5554 96.3776 111.012 107.135 111.012 107.135C111.012 105.229 107.268 83.0654 107.939 82.8779C107.939 82.8779 116.132 83.7685 121.234 81.7998C121.234 81.7998 122.413 82.3857 122.771 84.0576C123.128 85.7294 133.519 122.807 133.519 122.807C133.519 122.807 133.35 129.455 127.247 130.525C119.84 131.822 101.899 121.174 94.0089 117.088C90.6226 115.338 87.3971 114.229 84.3413 112.901L85.4492 96.5182Z" fill="#3D3D3D"/>
<path d="M110.297 65.5901L109.44 68.2837" stroke="#D77F68" stroke-width="0.7087" stroke-miterlimit="2.6131" stroke-linecap="round" stroke-linejoin="round"/>
<path d="M109.457 71.6991C109.457 71.6991 111.28 66.7228 111.834 65.0432C112.379 63.3636 113.308 63.5355 114.041 64.0276C114.774 64.5276 114.863 66.1135 114.863 66.1135L114.47 67.7305C114.47 67.7305 116.328 71.3241 115.73 73.3396" stroke="#D77F68" stroke-width="0.7087" stroke-miterlimit="2.6131" stroke-linecap="round" stroke-linejoin="round"/>
<path d="M119.456 66.8857L117.874 70.043C117.874 70.043 117.204 70.6599 116.382 70.2378" stroke="#D77F68" stroke-width="0.7087" stroke-miterlimit="2.6131" stroke-linecap="round" stroke-linejoin="round"/>
<path d="M122.082 68.7534C122.082 68.7534 122.136 69.5736 121.761 70.069C121.385 70.5644 119.956 72.1155 119.607 72.3511C119.25 72.5866 117.963 72.1237 117.633 71.1166" stroke="#D77F68" stroke-width="0.7087" stroke-miterlimit="2.6131" stroke-linecap="round" stroke-linejoin="round"/>
<path d="M115.462 63.3018C115.462 63.3018 114.336 62.9824 114.014 62.1841" stroke="#D77F68" stroke-width="0.7087" stroke-miterlimit="2.6131" stroke-linecap="round" stroke-linejoin="round"/>
<path fill-rule="evenodd" clip-rule="evenodd" d="M89.6396 170.719L92.4452 175.796L93.1957 183.577C93.1957 183.577 96.2872 187.866 96.8233 189.147C97.3594 190.436 99.2357 200.936 99.4323 202.858C99.6289 204.787 89.8898 290.495 88.5585 305.924C87.2272 321.353 88.7372 338.063 88.9248 339.563C89.1035 341.063 80.8119 343.633 77.774 343.852C76.0048 343.977 72.2968 343.555 69.3662 342.946L69.3126 342.93C68.151 342.665 68.0706 341.391 68.0706 341.391L67.2665 314.259C67.3558 310.221 67.3469 298.94 67.1682 294.253C66.9716 289.323 64.3 203.616 64.3 203.616L72.0913 172.976L89.6396 170.719Z" fill="#202023"/>
<path fill-rule="evenodd" clip-rule="evenodd" d="M40.2202 171.124L38.9425 174.795C38.9425 174.795 34.886 177.155 34.6269 178.334C34.3678 179.514 33.1973 182.092 32.8131 183.803C32.4289 185.514 34.5018 189.662 33.8674 190.943C33.2331 192.232 29.7752 255.268 29.7752 262.752C29.7752 270.237 29.525 269.908 29.1408 275.674L26.4693 340.546C26.4693 340.546 26.0493 342.671 28.8371 343.233C31.6248 343.804 42.3646 343.382 44.2856 343.022C45.6795 342.577 46.7338 342.132 47.1537 341.811C48.4314 340.851 48.0472 324.781 48.3064 322.312C48.5655 319.851 54.1856 270.135 55.7135 261.784C57.2413 253.425 66.9894 196.802 69.2857 188.654C71.582 180.514 80.231 176.077 80.231 176.077L40.2202 171.124Z" fill="#202023"/>
<path fill-rule="evenodd" clip-rule="evenodd" d="M92.9097 175.632C92.9097 175.632 77.3629 179.257 59.3501 177.781C41.3372 176.304 72.6989 166.904 81.2496 169.506C89.8004 172.115 92.9097 175.632 92.9097 175.632Z" fill="#DE8D4D"/>
<path fill-rule="evenodd" clip-rule="evenodd" d="M51.2998 87.6045L30.2759 93.7917C30.2759 93.7917 35.9406 101.221 33.2155 122.47C33.2155 122.47 39.1483 147.508 39.1483 150.852C39.1483 154.195 35.7351 162.531 35.7351 164.679C35.7351 166.679 61.9414 180.452 87.9779 172.445C95.8049 170.039 93.7945 166.468 93.3121 164.476C89.7827 150.11 90.4261 138.868 89.6755 134.72C88.8535 130.181 93.7588 122.087 93.7588 122.087L88.5676 92.7215L74.0125 87.4639L51.2998 87.6045Z" fill="white"/>
<path fill-rule="evenodd" clip-rule="evenodd" d="M53.1851 74.3081H71.4392V92.0107H64.184L53.1851 88.2687V74.3081Z" fill="#D77F68"/>
<path fill-rule="evenodd" clip-rule="evenodd" d="M53.1853 83.8706L66.3734 92.0104L71.5467 84.1518L74.0128 87.464L71.5825 98.6426L66.3734 92.0104L60.5299 98.7676L51.3 87.6046L53.1853 83.8706Z" fill="#DBDADB"/>
<path fill-rule="evenodd" clip-rule="evenodd" d="M63.7108 186.514C63.7108 190.592 61.1197 191.498 61.1197 191.498C58.1443 193.537 31.4288 200.92 30.5263 200.467C29.6239 200.013 29.1682 197.631 29.1682 197.631C31.7326 182.194 32.1078 168.187 35.8426 153.047C34.4845 151.406 36.2268 150.555 36.2268 150.555C36.2268 149.531 32.9209 123.345 32.9209 123.345C36.486 105.197 30.2762 93.7912 30.2762 93.7912C30.2762 93.7912 45.7605 88.1195 46.5378 88.0648C47.3151 88.0101 48.0478 88.5648 48.0478 88.5648C51.8362 100.314 57.0721 111.47 58.3766 122.454C60.8516 143.453 57.6708 163.82 63.7108 186.514Z" fill="#4D4C4E"/>
<path fill-rule="evenodd" clip-rule="evenodd" d="M74.8345 87.7524C74.8345 87.7524 75.4957 87.643 75.8799 87.6977C76.273 87.7524 88.1476 92.0881 88.4335 92.2287C88.7283 92.3694 88.9875 92.4553 89.5057 94.7755C90.0239 97.0957 93.8838 119.048 94.0089 119.868C94.3038 121.735 94.6612 123.977 94.679 126.126C94.8041 140.688 102.327 191.553 102.211 193.576C102.122 195.045 98.7087 196.748 97.8063 197.373C96.9038 197.998 96.4481 197.998 94.5003 197.263C92.5525 196.529 82.7062 188.428 82.7062 188.428C82.7062 188.428 80.7673 186.498 80.8924 183.444C82.5453 144.453 83.832 125.407 75.7995 88.1039L74.8345 87.7524Z" fill="#4D4C4E"/>
<path fill-rule="evenodd" clip-rule="evenodd" d="M7.7149 141.781H57.018C58.2332 141.781 59.2339 142.648 59.2339 143.718V177.74C59.2339 178.803 58.2332 179.678 57.018 179.678H7.7149C6.49974 179.678 5.49902 178.811 5.49902 177.74V143.718C5.50796 142.648 6.49974 141.781 7.7149 141.781Z" fill="#B36D3D"/>
<path fill-rule="evenodd" clip-rule="evenodd" d="M33.8415 125.345C32.4388 127.681 11.0038 151.149 11.0038 151.149L1.73827 148.235C1.73827 148.235 -1.88932 143.649 1.78294 134.673C7.26007 123.681 14.0774 112.689 19.5546 101.705C19.5546 101.705 22.235 96.2523 30.2676 93.7915C34.7618 98.6819 39.7297 115.509 33.8415 125.345Z" fill="#3D3D3D"/>
<path fill-rule="evenodd" clip-rule="evenodd" d="M76.7196 56.6367C76.8626 56.6289 76.9966 56.6211 77.1306 56.6211H77.1396C79.686 56.6367 81.9823 58.1758 82.5541 60.4413C83.2242 63.0741 81.33 65.6834 78.319 66.2772C75.3079 66.8631 72.3236 65.2069 71.6446 62.5741C71.2514 61.0429 71.7339 59.5195 72.7883 58.3945C72.9759 59.832 73.646 61.5351 75.7457 61.3398L75.0399 58.5898C74.7629 57.4883 75.8351 56.7617 76.7196 56.6367Z" fill="#D77F68"/>
<path fill-rule="evenodd" clip-rule="evenodd" d="M40.6939 63.2854C40.5598 63.3245 40.4347 63.3714 40.3097 63.4182H40.3007C37.9598 64.301 36.5391 66.504 37.0216 68.7852C37.5845 71.4413 40.4973 73.1912 43.5262 72.7068C46.5641 72.2147 48.5656 69.6679 48.0116 67.0196C47.69 65.4806 46.5641 64.2385 45.0899 63.5667C45.5545 64.9572 45.7064 66.7462 43.6871 67.293L43.1063 64.5197C42.874 63.4026 41.5606 63.0979 40.6939 63.2854Z" fill="#D77F68"/>
<path fill-rule="evenodd" clip-rule="evenodd" d="M64.4518 83.9093C54.2481 85.792 43.0704 76.3549 40.9707 67.66L38.183 56.1136C36.0118 47.114 42.6505 38.1925 52.9436 36.2941C63.2367 34.3958 73.4404 40.2002 75.6116 49.1998L78.3457 60.504C80.6509 70.0349 75.7367 81.8235 64.4518 83.9093Z" fill="#E6AD83"/>
<path fill-rule="evenodd" clip-rule="evenodd" d="M70.5009 65.5833C69.0713 65.8771 68.1867 67.1397 68.5084 68.4101C68.839 69.6806 70.2596 70.4667 71.6892 70.1809C73.1188 69.8871 74.0034 68.6245 73.6817 67.3541C73.3511 66.0836 71.9215 65.2895 70.5009 65.5833Z" fill="#D7766D"/>
<path fill-rule="evenodd" clip-rule="evenodd" d="M50.433 69.7794C49.0034 70.0732 48.1188 71.3358 48.4405 72.6063C48.7711 73.8769 50.1918 74.663 51.6214 74.3771C53.0509 74.0833 53.9355 72.8207 53.6138 71.5502C53.2833 70.2796 51.8626 69.4935 50.433 69.7794Z" fill="#D7766D"/>
<path fill-rule="evenodd" clip-rule="evenodd" d="M51.3891 56.84C51.818 56.9296 52.095 57.3204 51.9967 57.7112C51.8984 58.102 51.4695 58.3543 51.0406 58.2648C51.0317 58.2648 48.4316 57.6949 46.4749 59.429C46.1532 59.7139 45.6439 59.7058 45.3402 59.4127C45.0364 59.1196 45.0364 58.6556 45.358 58.3788C47.9402 56.091 51.3712 56.8319 51.3891 56.84Z" fill="#202023"/>
<path fill-rule="evenodd" clip-rule="evenodd" d="M69.9648 53.6015C70.3848 53.724 70.626 54.1322 70.492 54.516C70.358 54.8998 69.9112 55.1203 69.4913 54.9978C69.4823 54.9978 66.9448 54.2384 64.8361 55.8225C64.4966 56.0757 63.9873 56.0348 63.7014 55.7246C63.4155 55.4143 63.4691 54.9488 63.8086 54.6875C66.5963 52.6053 69.9559 53.6015 69.9648 53.6015Z" fill="#202023"/>
<path fill-rule="evenodd" clip-rule="evenodd" d="M60.4581 65.2379C61.0031 66.0294 61.977 67.4591 61.9859 67.7337C61.9949 68.1134 60.0024 68.8403 59.3501 68.4688C58.9123 68.2184 59.0374 66.7402 59.2072 65.7225C59.4484 64.3332 59.7165 64.1717 60.4581 65.2379Z" fill="#EBBF9E"/>
<path fill-rule="evenodd" clip-rule="evenodd" d="M65.4707 71.1276C65.9264 73.0507 64.5415 74.9422 62.3703 75.3458C60.1991 75.7494 58.0637 74.5227 57.608 72.5996C57.5186 72.2435 57.7777 71.8953 58.1798 71.8241L64.5951 70.6211C64.9883 70.5499 65.3814 70.7794 65.4707 71.1276Z" fill="#202023"/>
<path fill-rule="evenodd" clip-rule="evenodd" d="M58.573 71.8397L64.1931 70.7405L64.336 71.3521C64.4075 71.6744 64.1842 71.9885 63.8357 72.0546L59.4665 72.9059C59.118 72.972 58.7785 72.7654 58.707 72.4431L58.573 71.8397Z" fill="white"/>
<path fill-rule="evenodd" clip-rule="evenodd" d="M64.9612 73.8336C64.3983 74.6596 63.487 75.2893 62.3701 75.5019C61.2532 75.7228 60.1364 75.4856 59.2607 74.9376C59.8236 74.1116 60.735 73.4819 61.8519 73.2693C62.9688 73.0485 64.0856 73.2857 64.9612 73.8336Z" fill="#D26070"/>
<path fill-rule="evenodd" clip-rule="evenodd" d="M40.8638 67.2078C41.8735 66.6296 42.4096 63.9343 41.1229 60.4733C41.1229 60.4733 46.0461 55.6607 42.7223 50.8404C39.3985 46.02 34.5111 48.4263 34.5111 48.4263C34.5111 48.4263 31.6519 51.4185 38.4425 64.5671C39.9703 64.528 40.0507 66.3249 40.8638 67.2078Z" fill="#202023"/>
<path fill-rule="evenodd" clip-rule="evenodd" d="M78.2926 60.2939C77.0953 60.1221 75.3619 57.8408 74.933 54.2235C74.933 54.2235 68.205 51.5594 69.0181 45.9812C69.8312 40.3951 75.4155 40.8717 75.4155 40.8717C75.4155 40.8717 79.4094 42.5983 79.2844 57.0204C77.8726 57.5361 78.6232 59.2002 78.2926 60.2939Z" fill="#202023"/>
<path fill-rule="evenodd" clip-rule="evenodd" d="M56.8665 61.1451L60.8515 60.4108C60.8426 59.8875 61.0213 59.3953 61.334 58.9735C61.745 58.4188 62.4062 57.997 63.2014 57.8486L73.5123 55.9425C74.3075 55.7941 75.1028 55.9503 75.7371 56.3097L75.7729 56.3331C76.3894 56.7003 76.854 57.2627 77.0148 57.9423L77.4437 59.7156C77.6939 60.7546 77.4348 61.7935 76.8183 62.6216C76.2018 63.4496 75.2189 64.0824 74.0306 64.3011L66.5788 65.676C65.3905 65.8947 64.2021 65.6682 63.255 65.1292C62.3079 64.5901 61.5931 63.7308 61.3429 62.6919L61.0391 61.4186L57.1614 62.1372L57.4652 63.4106C57.7153 64.4495 57.4562 65.4885 56.8397 66.3165C56.2232 67.1446 55.2404 67.7695 54.052 67.9961L46.6003 69.3709C45.4119 69.5897 44.2236 69.3631 43.2765 68.8241C42.3293 68.2851 41.6056 67.4258 41.3644 66.3868L40.9355 64.6136C40.7657 63.9183 40.9355 63.2231 41.3554 62.6684C41.7664 62.1138 42.4276 61.692 43.2228 61.5436L53.5338 59.6375C54.3111 59.4891 55.0885 59.6375 55.7228 59.9812L55.7675 60.0046C56.2411 60.2702 56.6342 60.6686 56.8665 61.1451ZM53.775 60.6296L43.4641 62.5356C42.9816 62.6216 42.5795 62.8794 42.3293 63.2153C42.0792 63.559 41.9719 63.973 42.0702 64.4027L42.4991 66.1759C42.6867 66.9415 43.2139 67.5742 43.9108 67.9726C44.6167 68.371 45.4834 68.5351 46.359 68.3788L53.8108 67.004C54.6864 66.8399 55.4101 66.379 55.8658 65.7697C56.3215 65.1526 56.5091 64.3948 56.3304 63.6293L55.9015 61.856C55.7943 61.4342 55.5084 61.0827 55.1242 60.8639L55.0974 60.8483C54.7132 60.6296 54.2396 60.5436 53.775 60.6296ZM73.7625 56.9424L63.4426 58.8407C62.9602 58.9266 62.5581 59.1844 62.3079 59.5203C62.0577 59.8562 61.9505 60.278 62.0488 60.6999L62.4777 62.4732C62.6653 63.2387 63.1925 63.8715 63.8894 64.2699C64.5863 64.6683 65.4619 64.8323 66.3376 64.6761L73.7893 63.3012C74.6649 63.1372 75.3887 62.6763 75.8444 62.0669C76.3 61.4576 76.4877 60.6921 76.309 59.9265L75.8801 58.1532C75.7818 57.7392 75.5048 57.4033 75.1296 57.1768L75.0938 57.1611C74.7275 56.9424 74.245 56.8487 73.7625 56.9424Z" fill="#272525"/>
<path fill-rule="evenodd" clip-rule="evenodd" d="M53.4176 65.0357C53.4802 65.3193 53.2836 65.6029 52.9709 65.6597C52.6582 65.7164 52.3454 65.5381 52.2829 65.2545C52.1757 64.7926 51.8719 64.4117 51.4698 64.1767C51.0677 63.9417 50.5674 63.8444 50.0581 63.9417C49.5488 64.0389 49.1288 64.3144 48.8697 64.6791C48.6106 65.0438 48.5034 65.4976 48.6106 65.9595C48.6821 66.2431 48.4766 66.5268 48.1639 66.5835C47.8511 66.6402 47.5384 66.4619 47.4759 66.1783C47.3061 65.4328 47.4759 64.6953 47.9047 64.1037C48.3336 63.5122 49.0037 63.0665 49.8258 62.9044C50.6478 62.7504 51.4609 62.9044 52.1131 63.2934C52.7565 63.6824 53.2479 64.2982 53.4176 65.0357Z" fill="#202023"/>
<path fill-rule="evenodd" clip-rule="evenodd" d="M71.7343 61.6649C71.7968 61.9491 71.6003 62.2332 71.2875 62.29C70.9748 62.3469 70.6621 62.1683 70.5996 61.8841C70.4923 61.4214 70.1885 61.0398 69.7865 60.8043C69.3844 60.5689 68.884 60.4715 68.3747 60.5689C67.8654 60.6663 67.4455 60.9424 67.1864 61.3077C66.9273 61.673 66.82 62.1277 66.9273 62.5904C66.9898 62.8746 66.7932 63.1587 66.4805 63.2155C66.1678 63.2724 65.8551 63.0938 65.7925 62.8096C65.6228 62.0627 65.7925 61.3239 66.2214 60.7313C66.6503 60.1386 67.3204 59.6921 68.1424 59.5297C68.9644 59.3755 69.7775 59.5297 70.4298 59.9194C71.0642 60.3091 71.5556 60.918 71.7343 61.6649Z" fill="#202023"/>
<path fill-rule="evenodd" clip-rule="evenodd" d="M71.8952 174.921C72.4849 174.913 73.0835 174.897 73.6822 174.874C73.9324 174.124 74.5757 171.866 74.3702 169.093C74.2987 168.179 74.0396 165.077 73.6911 160.953C71.4127 133.954 71.502 119.119 67.383 91.9093C67.3205 91.4953 66.8826 91.1984 66.4091 91.2531C65.9355 91.3078 65.596 91.6906 65.6586 92.1046C69.724 119.33 69.6793 134.04 71.9488 161.054C72.2972 165.202 72.5653 168.343 72.6278 169.187C72.8691 172.304 71.9399 174.655 71.9309 174.655C71.9041 174.749 71.8952 174.835 71.8952 174.921Z" fill="#DBDADB"/>
<path fill-rule="evenodd" clip-rule="evenodd" d="M75.4243 40.8714C69.5004 17.6234 36.8879 31.7941 32.8582 42.0901C32.8046 42.2229 32.8582 42.5432 32.7152 42.4807C23.1816 38.4732 31.7324 53.097 40.1134 52.5814C48.4854 52.0658 58.7606 50.7847 66.7842 46.0741C66.7842 46.0741 68.5891 44.7227 69.6791 47.0115C70.7692 49.3004 75.6834 45.7148 75.6834 45.7148L75.4243 40.8714Z" fill="#202023"/>
<path fill-rule="evenodd" clip-rule="evenodd" d="M62.915 81.7995C62.915 81.7995 63.7102 81.7427 64.1927 82.1647C64.1927 82.1647 65.0773 81.7021 65.7474 82.0186C65.7474 82.0186 66.8285 81.5398 67.4897 81.8482C67.4897 81.8482 68.9282 81.3126 69.4197 81.4181C69.9111 81.5236 69.9736 84.5587 63.1831 85.0213C56.4015 85.492 55.9458 82.4893 56.4193 82.3189C56.884 82.1484 58.4029 82.4812 58.4029 82.4812C59.0105 82.0916 60.1541 82.4162 60.1541 82.4162C60.7617 82.0024 61.7088 82.3432 61.7088 82.3432C62.1109 81.8563 62.915 81.7995 62.915 81.7995Z" fill="#202023"/>
<path fill-rule="evenodd" clip-rule="evenodd" d="M24.1553 179.077C25.5938 180.873 27.2378 184.732 30.5259 185.271C32.6435 185.615 37.2271 185.873 40.1756 185.701C43.9819 185.482 42.8204 184.896 42.0341 181.951C42.0341 181.951 44.4019 180.155 44.4019 179.616C44.4019 179.077 42.3468 174.405 42.3468 174.405L33.3047 170.453C33.2957 170.46 22.815 174.593 24.1553 179.077Z" fill="#E6AD83"/>
<path fill-rule="evenodd" clip-rule="evenodd" d="M31.6603 185.428C31.9105 185.459 32.1696 185.483 32.4466 185.506C31.2582 183.014 31.1064 182.881 31.1064 182.881C30.9723 182.764 30.7489 182.764 30.6149 182.881C30.4809 182.999 30.4809 183.194 30.6149 183.311C30.606 183.311 30.6953 183.389 31.6603 185.428ZM35.2969 185.694C35.547 185.702 35.8062 185.717 36.0563 185.725C34.6178 182.678 34.4391 182.522 34.4391 182.522C34.3051 182.405 34.0817 182.405 33.9477 182.522C33.8137 182.639 33.8137 182.834 33.9477 182.952C33.9477 182.959 34.046 183.045 35.2969 185.694ZM38.996 185.749C39.2461 185.741 39.4963 185.733 39.7376 185.725C37.8344 181.655 37.62 181.467 37.62 181.467C37.4859 181.35 37.2626 181.35 37.1285 181.467C36.9945 181.584 36.9945 181.78 37.1285 181.897C37.1285 181.897 37.2536 182.014 38.996 185.749ZM42.2751 182.795C42.1232 182.811 41.9713 182.741 41.9088 182.608C39.5767 177.553 39.4159 177.413 39.4159 177.413C39.2819 177.295 39.2819 177.1 39.4159 176.983C39.5499 176.866 39.7733 176.866 39.9073 176.983C39.9073 176.983 40.1396 177.186 42.2662 181.772C42.1143 181.889 42.0249 181.967 42.0249 181.967C42.1053 182.256 42.1947 182.538 42.2751 182.795Z" fill="#D07954"/>
<path fill-rule="evenodd" clip-rule="evenodd" d="M33.4924 165.67C36.6821 170.983 36.9859 170.639 35.6636 172.029C35.6636 172.029 27.0503 175.709 24.066 179.693C24.066 179.693 22.7794 179.646 21.5463 178.248C20.3044 176.849 1.81798 148.382 1.81798 148.382C1.81798 148.382 -2.35464 140.828 1.94307 137.273C3.67645 135.836 6.90197 132.789 9.40375 132.281L12.5131 127.578C17.9992 135.609 30.3026 160.366 33.4924 165.67Z" fill="#3D3D3D"/>
</svg>
