<svg width="81" height="110" viewBox="0 0 81 110" fill="none" xmlns="http://www.w3.org/2000/svg">
<path d="M35.748 57.3732L35.6348 82.2297L45.1743 82.2731L45.2875 57.4166L35.748 57.3732Z" fill="#F6D005"/>
<path d="M55.3724 39.6016C51.2761 39.5831 47.9242 42.9363 47.8387 47.0933L47.8437 47.0923L47.8088 54.8684L55.3053 54.9006C59.4442 54.9212 62.8247 51.4992 62.8455 47.2813C62.8622 43.0694 59.5113 39.6222 55.3724 39.6016Z" fill="#F6D005"/>
<path d="M80.6515 41.2799C80.7565 18.6202 62.7477 0.0992963 40.5106 0.000405766C18.2787 -0.0994856 0.105456 18.2568 0.000429002 40.9165C-0.0716362 56.9644 8.94215 70.9294 22.1079 77.7488C22.0636 78.0578 22.0141 78.3678 22.0093 78.6901L21.9154 99.3512C21.8977 103.131 24.8978 106.216 28.604 106.232L30.792 106.243L30.7912 106.986C30.7768 110.676 33.9053 109.874 37.7432 109.891L42.2926 109.909C46.1305 109.926 49.2539 110.753 49.2693 107.068L49.2702 106.325L51.4582 106.336C55.1644 106.352 58.1953 103.294 58.2079 99.5151L58.3018 78.854C58.3016 78.5327 58.2507 78.2214 58.2109 77.9132C71.4363 71.2103 80.5804 57.3329 80.6515 41.2799ZM55.576 100.298C55.5758 100.777 55.1309 101.165 54.5826 101.163L25.5282 101.03C24.9799 101.027 24.539 100.635 24.5392 100.155L24.5472 98.6211C24.5474 98.1417 24.9973 97.7527 25.5405 97.7561L54.595 97.8895C55.1433 97.8919 55.5841 98.2842 55.5789 98.7645L55.576 100.298ZM55.6098 92.543C55.6096 93.0224 55.1647 93.4104 54.6165 93.408L25.5671 93.2736C25.0188 93.2712 24.5779 92.8789 24.5781 92.3995L24.5861 90.8652C24.5863 90.3858 25.0362 89.9968 25.5794 90.0002L54.6339 90.1336C55.1822 90.136 55.623 90.5283 55.6178 91.0087L55.6098 92.543ZM55.5294 57.4944L55.5293 57.5207L48.576 57.492L47.5373 57.4863L47.4236 82.3441L54.6617 82.3746C55.2099 82.377 55.6508 82.7693 55.6455 83.2497L55.6376 84.784C55.6374 85.2634 55.1925 85.6515 54.6442 85.649L25.6009 85.5187C25.0526 85.5163 24.6118 85.124 24.612 84.6446L24.6199 83.1103C24.6201 82.6309 25.07 82.2419 25.6132 82.2453L32.8624 82.2789L32.9761 57.4211L32.0325 57.4177L24.4246 57.3812L24.4247 57.3285C19.3953 56.7725 15.4782 52.4047 15.5017 47.1328C15.5241 41.5081 20.0394 36.9509 25.5587 36.973C31.0262 37 35.4558 41.509 35.5187 47.0588L35.5349 47.0609L35.4979 54.8796L45.0354 54.9251L45.0703 47.1489L45.0754 47.1479C45.1665 41.5782 49.6473 37.0857 55.1249 37.1107C60.6452 37.1379 65.1181 41.7331 65.0917 47.3638C65.0728 52.8192 60.8233 57.2555 55.5294 57.4944Z" fill="#F6D005"/>
<path d="M25.8072 39.469C21.6683 39.4483 18.2868 42.8653 18.266 47.0832C18.2452 51.3012 21.5971 54.7534 25.74 54.7679L32.3457 54.7968L33.2467 54.7981L33.2795 47.0381L33.2744 47.0392C33.2333 42.8808 29.9086 39.4864 25.8072 39.469Z" fill="#F6D005"/>
</svg>
