<svg width="100" height="100" viewBox="0 0 100 100" fill="none" xmlns="http://www.w3.org/2000/svg">
<path d="M0 100L8.43807 96.7816L3.21834 91.5619L0 100Z" fill="white"/>
<path d="M86.1474 33.2359C87.6503 31.733 88.1854 29.673 87.7162 27.9282L87.467 27.6716L96.7628 18.3685C100.37 14.7616 101.066 9.60052 98.317 6.85137L93.1486 1.68296C90.3994 -1.06619 85.2383 -0.377067 81.6314 3.23715L72.3356 12.533L72.0791 12.2764C70.7448 11.9245 69.2419 12.1517 67.9297 12.9362L64.8799 9.9011L64.0076 9.0287C63.6117 8.63282 62.4827 9.10934 61.493 10.099L32.7479 38.8515C31.7582 39.8485 31.6629 41.3587 32.5426 42.2385C33.4223 43.1182 34.9399 43.0229 35.9369 42.0332L62.8859 15.0842L64.2128 16.4038L45.2034 35.4206L43.6052 37.0114L30.2186 50.4053V50.3979L12.756 67.8606V67.8679C11.9203 68.7036 11.3778 69.7227 11.1505 70.7563L3.59952 90.5722L9.43506 96.4078L29.2436 88.8568C30.2773 88.6295 31.2963 88.087 32.1321 87.2513L86.1474 33.2359Z" fill="white"/>
</svg>
