<svg width="160" height="80" viewBox="0 0 160 80" fill="none" xmlns="http://www.w3.org/2000/svg">
<path d="M156.757 56.9765V33.41C156.757 33.052 156.542 32.7537 156.233 32.5628C155.985 32.2526 155.656 31.99 155.253 31.823L79.4326 0.208123C78.7612 -0.0722882 77.9353 -0.0722882 77.2639 0.226021L1.41011 33.3086C0.537222 33.6904 -0.00665304 34.466 6.14635e-05 35.3311C0.00677597 36.1962 0.557366 36.9658 1.43697 37.3357L32.693 50.5091V66.0809C32.693 67.5187 33.5659 68.8313 34.9625 69.5174C49.2039 76.474 63.8147 80 78.3986 80H78.9022C93.3115 79.9165 107.721 76.3904 121.734 69.5174C123.131 68.8253 123.997 67.5187 123.997 66.0868V49.3517L147.699 39.1196L154.387 36.1664V56.9765C152.513 57.4418 151.137 58.9453 151.137 60.7531C151.137 62.9307 153.124 64.6967 155.568 64.6967C158.019 64.6967 160 62.9307 160 60.7531C160.007 58.9453 158.63 57.4418 156.757 56.9765Z" fill="#CD1A1A"/>
</svg>
