<svg width="193" height="157" viewBox="0 0 193 157" fill="none" xmlns="http://www.w3.org/2000/svg">
<path d="M103.427 29.9494C105.491 29.3989 105.997 31.4524 107.556 34.1411C109.115 36.8297 116.89 49.2989 116.363 52.2204C115.836 55.1419 112.318 57.3647 110.717 58.5291C109.115 59.6934 104.775 52.2204 103.174 49.066C101.551 45.8905 103.427 29.9494 103.427 29.9494Z" fill="#AA0031"/>
<path d="M122.642 42.9902L110.548 47.6477C110.548 47.6477 108.062 54.5915 110.358 58.7196C110.358 58.7196 124.011 55.5441 125.212 54.4009C127.551 52.1781 122.642 42.9902 122.642 42.9902Z" fill="#AA0031"/>
<path d="M125.318 42.4398C125.802 41.8682 126.751 41.0003 127.53 40.1111C128.036 39.5395 129.153 39.3278 130.691 38.2481C131.07 37.9729 131.449 37.5919 131.386 38.1635C131.323 38.7351 129.869 39.3913 129.616 40.1111C129.511 40.3863 131.765 39.9417 132.376 39.6454C132.924 39.3913 136.084 38.4598 136.211 38.8621C136.422 39.6242 132.629 40.344 132.798 40.6404C132.924 40.8732 136.927 38.9679 136.948 39.4548C137.033 40.5133 133.556 41.0849 133.345 41.6989C133.345 41.6989 134.167 41.4448 135.052 41.1484C135.874 40.8944 136.611 40.4287 136.801 40.5557C138.149 41.4025 132.418 42.6727 133.071 42.9267C133.388 43.0537 136.211 41.2755 136.232 41.9529C136.232 42.2916 132.734 44.1969 132.734 44.1969C132.734 44.1969 128.415 46.4621 126.708 46.9067C125.676 47.1819 123.738 47.5841 123.738 47.5841L122.474 43.9217C122.474 43.9217 124.475 43.4348 125.318 42.4398Z" fill="#D8A798"/>
<path d="M124.622 42.5459C123.737 43.054 122.094 43.7738 122.094 43.7738C122.094 43.7738 122.789 48.2195 124.896 50.6328C126.814 49.5743 127.087 49.3626 127.087 49.3626C127.087 49.3626 124.348 45.1286 124.622 42.5459Z" fill="white"/>
<path d="M93.8189 73.6025C94.1982 77.0744 91.3117 79.8689 87.4349 79.8265L65.9441 79.636C62.4465 79.6148 59.4547 76.9474 59.2018 73.7296L56.2943 35.9409C56.0625 32.9559 58.5276 30.2885 61.8355 29.9709L82.1254 28.0021C85.7704 27.6422 89.0572 29.9286 89.4154 33.1253L93.8189 73.6025Z" fill="#151823"/>
<path d="M85.939 2.99997C82.5047 5.87912 80.5031 15.0035 81.7883 19.4281C83.0735 23.8315 87.6456 27.621 89.1205 27.7692C90.5743 27.9385 102.9 28.9335 102.731 28.1502C101.825 24.0644 105.323 12.1032 101.046 8.29253C96.7898 4.46072 92.2388 1.22167 88.7834 2.34369C87.1189 2.87295 85.939 2.99997 85.939 2.99997Z" fill="#BFBFCB"/>
<path d="M99.6551 29.1029C98.391 28.0444 96.7054 27.2611 96.0523 23.5563C96.3683 21.1005 98.8966 17.4169 99.0863 16.8242L88.4251 14.9612C86.1285 23.3234 84.0637 24.0855 80.4609 25.4193C78.5225 25.1864 81.5986 38.8623 82.7574 39.1587C99.8658 43.5833 101.299 29.9497 99.6551 29.1029Z" fill="#D8A798"/>
<path d="M96.6422 22.3069C95.062 23.5771 91.8383 31.5159 83.6634 38.2057C81.3458 40.111 79.7866 27.3031 79.0492 25.8C81.7882 26.1387 83.0945 24.7838 84.8012 23.0055C86.7817 20.952 87.5823 16.4851 87.6877 16.1887C87.6666 16.1887 96.895 20.825 96.6422 22.3069Z" fill="url(#paint0_linear)"/>
<path d="M85.5386 12.6746C85.4543 14.7069 85.1383 16.1253 85.7072 17.8825C86.887 21.4391 89.2047 24.1065 91.6698 24.4452C94.8092 24.8898 97.19 24.1912 100.077 16.8451C102.521 10.5999 104.227 3.57143 96.5579 1.36973C89.3522 -0.683773 85.7914 6.09068 85.5386 12.6746Z" fill="#D8A798"/>
<path d="M93.1867 5.43436C90.3212 5.39202 88.8885 8.56756 87.4347 11.3409C87.0133 12.1453 84.2743 12.0395 84.2111 12.9498C83.0733 11.1503 81.9356 4.82042 87.5611 1.58137C90.6583 -0.196936 92.2596 0.607534 92.2596 0.607534L93.1867 5.43436Z" fill="#BFBFCB"/>
<path d="M92.5333 5.15933C95.7991 7.14934 99.9077 6.95881 100.687 11.2564C101.446 15.5539 100.35 19.0259 100.35 19.0259C100.35 19.0259 104.353 10.5366 102.078 5.09582C100.519 1.36985 94.8299 -0.662495 92.7651 0.50187C90.7003 1.66624 92.5333 5.15933 92.5333 5.15933Z" fill="#CCD4DD"/>
<path d="M86.3391 12.2089C84.0636 8.01721 83.4105 13.0981 84.0426 14.6223C84.8221 16.5065 85.391 16.6758 85.391 16.6758L86.3391 12.2089Z" fill="#D8A798"/>
<path d="M100.034 2.66138C101.93 3.95276 104.901 7.89042 104.817 14.559C104.775 17.7769 107.387 25.1018 109.621 26.0545C110.674 26.499 108.904 26.2238 108.188 26.1815C106.819 26.0756 106.734 24.9748 106.734 24.9748C106.734 24.9748 106.734 26.372 107.661 26.8589C108.567 27.3458 105.934 27.5787 105.365 27.2188C104.606 26.7319 103.721 25.504 103.721 25.504C103.721 25.504 104.522 28.7007 105.597 29.3782C106.524 29.9498 102.247 27.6634 101.994 26.499C101.636 24.8266 99.7814 21.7781 101.046 18.0521C102.289 14.3473 101.699 8.80074 99.5496 7.06478C97.4006 5.32882 100.034 2.66138 100.034 2.66138Z" fill="#CCD4DD"/>
<path d="M92.3229 4.10107C92.4914 5.62532 92.9128 6.64149 94.9987 7.67883C97.0635 8.71617 100.477 12.8232 100.182 14.6438C100.645 12.4421 100.709 8.67383 98.6859 6.74734C96.6421 4.82086 92.3229 4.10107 92.3229 4.10107Z" fill="#BFBFCB"/>
<path d="M83.4947 23.5347C85.5806 26.0963 86.4234 28.7637 88.7199 32.7225C91.4379 37.4223 96.1575 35.8557 97.7798 31.1347C99.4022 26.4138 97.8641 26.4138 97.8641 26.4138L104.754 29.9492C104.754 29.9492 105.344 38.015 104.775 41C104.206 43.985 105.66 47.4781 102.668 52.5166C101.509 54.4642 100.392 57.915 101.614 60.5612C103.405 64.4354 106.376 68.246 105.386 70.9981C102.542 70.4054 87.835 80.313 80.2922 76.1636C72.7493 72.0143 66.8077 70.1513 65.7121 70.977C68.9989 61.281 73.9713 54.4007 73.4235 48.1132C72.054 32.405 70.8952 28.2556 70.8952 28.2556L83.4947 23.5347Z" fill="#D1203D"/>
<path d="M73.9082 29.0389C77.8482 37.0835 77.2583 48.0497 79.2177 48.8753C80.819 49.5527 81.6618 53.6386 80.1658 54.1255C78.6699 54.6124 76.9422 53.5539 76.0573 53.6174C75.1724 53.6809 78.2275 55.6709 77.785 56.5812C77.3215 57.5127 79.2809 56.5812 77.7218 59.0158C73.9925 64.7952 78.8595 73.0939 78.3749 71.7814C72.2648 69.9819 66.0914 71.7602 66.0914 71.7602C66.0914 71.7602 67.7138 62.5089 72.033 56.2002C74.751 52.2202 69.7575 31.791 71.8434 29.3987C72.2437 28.9118 73.9082 29.0389 73.9082 29.0389Z" fill="#AA0031"/>
<path d="M86.9712 12.357L84.7589 10.1975L85.096 11.1714L87.1187 13.3309L86.9712 12.357Z" fill="#151823"/>
<path opacity="0.3" d="M93.7349 13.8606C93.5874 14.2629 93.3135 15.639 92.0704 15.8719C90.8062 16.1048 89.6474 15.766 88.7204 14.9615C87.7933 14.157 86.5081 13.0561 87.2876 12.5904C88.0672 12.1246 91.965 11.8917 92.871 12.5904C93.7559 13.289 93.7349 13.8606 93.7349 13.8606Z" fill="white"/>
<path opacity="0.35" d="M101.425 13.9663C101.172 13.6487 98.2857 12.95 97.4218 13.077C96.5369 13.2252 95.5466 13.2464 95.5677 13.9663C95.5888 14.6861 95.8416 16.274 96.7897 16.4434C97.7379 16.6339 99.5077 16.6339 100.308 15.9352C101.13 15.2366 101.488 14.0509 101.425 13.9663Z" fill="white"/>
<path d="M86.7609 12.5266C86.5502 13.437 86.8663 15.7024 91.1434 16.147C93.1871 16.3587 93.1871 14.6861 94.072 14.305C94.072 14.305 94.1984 14.2415 94.367 14.2415C94.367 14.2415 94.367 14.2415 94.3881 14.2415C94.4513 14.2415 94.5356 14.2415 94.5988 14.2415C94.683 14.2627 94.7463 14.2627 94.8095 14.2838H94.8305C94.9991 14.3474 95.0834 14.4109 95.0834 14.4109C95.8629 15.0037 95.3573 16.6974 97.4221 16.8668C100.962 17.1844 101.741 15.1307 101.741 14.1992C101.741 13.2676 99.6344 13.0559 97.9067 12.95C95.9683 12.823 95.2308 13.6063 95.2308 13.6063L94.683 13.564L94.1352 13.4793C94.1352 13.4793 93.5874 12.5689 91.6701 12.2302C89.9424 11.9126 86.9716 11.6373 86.7609 12.5266ZM95.9893 13.7969C96.2211 13.5428 97.5696 13.2041 99.2762 13.5217C101.257 13.8816 101.088 13.8816 101.215 14.2838C101.362 14.7496 100.688 15.9776 99.845 16.2528C99.1287 16.4857 97.0007 16.6974 96.4739 15.9564C95.9261 15.1942 95.5258 14.2838 95.9893 13.7969ZM87.6248 12.7595C87.7723 12.3784 88.1937 12.336 90.1952 12.4419C91.944 12.5266 93.166 13.1617 93.3346 13.4581C93.6717 14.051 93.0818 14.8343 92.3865 15.4483C91.7122 16.0623 89.2471 15.4483 88.615 15.046C87.8355 14.6014 87.3298 13.564 87.6248 12.7595Z" fill="#151823"/>
<path d="M178.708 62.2549H173.314V135.355H178.708V62.2549Z" fill="#96A6BC"/>
<path d="M54.3979 104.088L66.7867 95.9795L66.4074 86.199L51.9538 92.9734L54.3979 104.088Z" fill="#151823"/>
<path d="M71.1692 145.941H72.9601L67.2081 94.2219L64.0898 86.8335L22.2881 87.3416V98.096H22.3934L16.494 146.237H18.2638L28.5457 98.096H61.6669L71.1692 145.941Z" fill="#151823"/>
<path d="M21.5717 38.9469C19.9915 32.6382 18.8537 33.866 9.58314 34.607C2.20882 34.8187 0.607543 37.0627 0.797168 41.9954L7.16015 86.7279C7.3287 91.3641 11.7954 94.709 17.0839 94.1798C22.3723 93.6505 29.8309 91.2371 29.5991 86.6009L21.5717 38.9469Z" fill="#282A35"/>
<path d="M59.2228 151.361H62.0672L56.4838 102.987L75.046 93.8413L42.7676 87.9983L10.9316 93.1003V102.987H11.058L4.63184 151.699H6.42274L17.5685 102.987H50.9425L59.2228 151.361Z" fill="#151823"/>
<path d="M12.7437 93.7776C10.5525 93.7776 10.3839 92.9943 12.3855 92.084L27.0498 85.2883C29.0514 84.3568 28.609 84.1239 30.8002 84.1451L63.4368 84.3145C65.628 84.3356 67.5453 85.6058 65.8177 86.9819L59.0965 90.8984C57.3477 92.2322 54.1452 93.333 51.9539 93.333L12.7437 93.7776Z" fill="#151823"/>
<path d="M44.98 2.80933C40.7451 3.76198 31.3059 8.48292 31.5377 24.3605C31.7695 40.2381 26.4389 43.1384 26.4389 43.1384C26.4389 43.1384 38.1535 49.2989 42.1567 30.3517C46.1599 11.4044 44.98 2.80933 44.98 2.80933Z" fill="#A0593A"/>
<path d="M137.854 66.0447H132.46V132.985H137.854V66.0447Z" fill="#96A6BC"/>
<path d="M60.9294 60.9215C60.782 60.8368 59.6442 58.741 59.9181 56.4123C62.3622 44.3453 65.3962 36.9569 66.5339 32.8922C67.9666 27.7902 70.9796 27.8961 72.3491 28.5524C72.3491 28.5524 73.4447 36.47 73.5079 43.1597C73.529 44.4511 72.7283 47.0127 72.2437 49.3838C77.7218 49.3626 81.2825 48.9392 81.2825 48.9392C81.2825 48.9392 80.0816 57.7671 82.1464 59.3126C83.6423 60.3922 63.6474 62.6151 60.9294 60.9215Z" fill="#AA0031"/>
<path d="M83.9162 54.5703C84.2112 56.4756 82.9892 59.2489 81.9778 55.9252C81.1351 53.1307 81.43 50.1034 82.9892 49.4683C84.1691 48.9814 83.9162 54.5703 83.9162 54.5703Z" fill="#DCE1E5"/>
<path d="M82.7365 50.3576C84.6749 49.6378 86.6343 48.2406 88.1935 48.2406C90.5743 47.9865 90.1529 47.8807 90.7429 47.8807C91.986 47.8595 94.4511 47.4361 94.1561 48.2194C94.0297 48.5369 92.3652 48.8968 91.1432 49.1297L89.9844 49.3837C91.0379 49.9977 94.2194 52.0088 94.1983 52.4957C94.1351 53.4907 92.2599 51.8394 90.3426 51.5007C90.2794 51.5431 90.2372 51.5854 90.174 51.6489C91.5646 52.0088 93.1659 53.406 92.9763 53.66C92.7866 53.9141 90.3426 52.8768 88.8888 52.7074C88.8256 52.7709 88.7624 52.8133 88.6992 52.8556C89.879 53.2366 91.9439 53.9988 91.7542 54.2528C91.5225 54.5704 89.4577 54.0199 87.9196 53.9353C86.7608 54.6339 84.9488 54.655 84.0217 54.4645C82.4415 54.1258 82.1465 53.2578 82.1465 53.2578L82.7365 50.3576Z" fill="#D8A798"/>
<path d="M83.3686 49.5318C83.6214 49.2566 80.145 49.8917 80.145 49.8917C80.145 49.8917 78.333 55.4806 80.5664 57.6823C81.0088 58.1269 83.4107 57.3436 83.4107 57.3436C83.4107 57.3436 81.367 51.67 83.3686 49.5318Z" fill="white"/>
<path d="M74.2456 39.2006C74.7302 39.751 71.8015 49.7856 71.8015 49.7856L80.9878 49.2352C80.9878 49.2352 79.85 51.2251 79.8079 51.9237C77.4271 51.7756 71.338 51.9661 70.3056 52.0931C69.2732 52.199 64.1322 55.6285 64.5536 54.2736L67.2716 51.6909C67.2716 51.6909 64.6168 53.2575 64.659 52.5588C64.7011 51.8814 69.4417 49.7221 69.4417 49.7221C69.4417 49.7221 73.9927 38.9042 74.2456 39.2006Z" fill="#D1203D"/>
<path d="M124.243 107.75C124.264 109.422 125.486 114.228 125.486 114.228C125.486 114.228 139.434 119.055 142.574 117.848C145.713 116.641 136.295 115.011 131.491 104.828C128.963 99.4299 124.222 106.077 124.243 107.75Z" fill="#CC9483"/>
<path d="M124.264 109.994C124.117 107.538 122.031 102.245 122.031 102.245L130.522 100.234C130.522 100.234 128.52 99.9378 131.702 104.998C132.671 106.543 132.945 107.072 133.788 108.258C134.167 108.808 129.89 111.539 136.611 116.641C137.875 117.805 140.825 116.07 142.616 116.197C142.616 116.197 146.577 116.197 145.839 119.16C145.46 120.706 137.327 122.95 134.736 119.923C132.671 117.488 130.564 116.789 128.773 116.62C128.541 118.229 129.553 123.31 129.553 123.31C129.553 123.31 128.499 123.648 128.078 123.564C127.972 122.188 126.455 117.192 125.36 116.451C124.011 115.752 124.391 112.153 124.264 109.994Z" fill="#151823"/>
<path d="M110.885 63.1866C113.793 61.9376 120.05 60.371 122.979 63.9699C124.686 66.0658 125.234 67.8017 126.118 73.6447C126.687 77.4342 136.421 110.671 136.421 110.671L122.305 115.181C122.305 115.181 112.486 80.1016 109.747 79.6994C107.008 79.2972 104.375 67.1878 104.312 66.5315C104.248 65.8329 110.885 63.1866 110.885 63.1866Z" fill="#151823"/>
<path d="M114.404 124.601C114.151 128.496 118.597 134.657 123.822 138.552C123.822 138.552 119.292 142.68 111.875 133.746C109.642 131.058 107.114 121.171 107.114 121.171C107.114 121.171 115.204 112.005 114.404 124.601Z" fill="#CC9483"/>
<path d="M106.271 134.276C105.07 133.302 106.123 129.851 106.439 127.671C106.776 125.236 105.744 119.626 105.744 119.626L116.384 119.584C116.384 119.584 113.392 122.336 116.216 127.65C116.489 128.179 112.339 132.561 113.54 134.191C114.446 135.44 121.504 136.859 123.253 137.324C123.253 137.324 127.13 138.108 125.844 140.881C125.17 142.299 116.763 142.934 114.825 139.463C113.266 136.668 111.327 135.567 109.6 135.059C109.052 136.583 109.073 141.77 109.073 141.77C109.073 141.77 107.977 141.897 107.556 141.749C107.682 140.415 107.177 135.271 106.271 134.276Z" fill="#151823"/>
<path d="M96.7897 77.9422C100.371 79.7417 108.926 80.5462 108.589 82.3668C105.892 96.4238 103.658 115.435 104.333 123.098L117.332 125.109C117.332 125.109 123.632 87.1724 124.264 81.2236C125.044 74.0258 119.334 68.9661 113.287 69.0719C109.179 69.1566 96.7897 77.9422 96.7897 77.9422Z" fill="#282A35"/>
<path d="M48.0772 32.913C47.9087 30.0762 51.8276 24.0427 54.3559 22.328C54.3559 22.328 40.5976 13.9234 40.9979 18.3903C41.3139 21.8622 39.3334 29.9704 36.9104 31.0077C31.6009 33.3152 32.0223 47.2028 35.8148 51.0135C38.3853 53.5962 52.0172 48.3672 52.2279 48.219C53.2392 47.5627 47.4662 39.6451 48.0772 32.913Z" fill="#CC9483"/>
<path d="M85.2858 95.2591C83.1999 96.7622 69.3994 124.58 68.9359 126.676C67.3557 133.641 70.4529 140.817 74.119 145.454C70.4318 146.216 66.9554 144.395 63.0364 137.557C61.4352 134.763 58.9911 132.434 59.0543 130.423C59.2229 125.892 60.2553 128.962 62.4886 122.929C64.7431 116.874 66.6182 97.6302 74.3507 89.8184C79.0914 85.0551 87.3717 93.7561 85.2858 95.2591Z" fill="#CC9483"/>
<path d="M60.6556 126.485C59.1386 127.036 57.411 129.449 57.3477 132.116C57.2845 134.763 58.8226 136.71 56.7789 142.532C57.9588 143.273 58.0852 142.998 58.0852 142.998C58.0852 142.998 60.15 135.673 61.2035 136.562C62.2359 137.451 62.889 141.283 64.2585 144.416C65.607 147.528 73.7187 149.434 74.4351 148.883C75.1514 148.333 76.4156 146.195 74.7511 144.84C73.0655 143.485 72.8338 142.723 72.8338 142.723C72.8338 142.723 69.0623 143.633 66.9975 140.182C64.406 135.842 60.6556 126.485 60.6556 126.485Z" fill="#282A35"/>
<path d="M76.4156 77.7305C77.5112 82.6843 81.3669 91.4275 80.1028 93.6928C78.8386 95.9368 77.0688 131.376 77.5112 133.471C78.9861 140.458 84.8013 145.687 90.0686 148.333C87.0346 150.577 83.1157 150.408 76.7106 145.835C74.098 143.972 70.8954 142.892 70.1158 141.05C68.3671 136.88 70.6004 139.209 70.1158 132.794C69.6312 126.358 63.2893 108.088 67.0397 97.7363C69.3363 91.4064 67.3557 82.8536 67.9035 80.6519C68.4513 78.4502 76.4156 77.7305 76.4156 77.7305Z" fill="#CC9483"/>
<path d="M69.926 136.774C68.7882 137.917 68.2194 140.838 69.2518 143.273C70.2842 145.708 72.4965 146.83 73.0864 152.969C74.4559 153.138 74.4559 152.842 74.4559 152.842C74.4559 152.842 73.276 145.326 74.6034 145.686C75.9097 146.046 78.1009 149.264 80.6293 151.529C83.1787 153.795 91.3115 152.101 91.7329 151.296C92.1543 150.471 92.4071 148.015 90.3212 147.486C88.2353 146.957 87.7086 146.385 87.7086 146.385C87.7086 146.385 84.6535 148.777 81.3456 146.533C77.2371 143.675 69.926 136.774 69.926 136.774Z" fill="#151823"/>
<path d="M81.4511 110.502L92.66 106.395C92.66 106.395 91.1641 102.33 88.0037 90.4327C84.2533 76.3546 83.2841 74.4281 79.7866 72.7133C76.3101 71.0197 47.9085 70.3634 47.9085 66.4681L32.001 65.6213C26.4387 75.2537 19.6965 90.962 33.7498 92.7403C44.9798 94.1587 60.2131 87.4689 64.8905 91.2795C65.3329 96.1698 64.7641 117.361 64.7641 117.361L81.4511 110.502Z" fill="#D1203D"/>
<path d="M44.1161 35.2421C45.8859 36.6605 50.7951 41.8684 50.7951 41.8684C52.3121 44.6628 54.4612 50.9504 54.8826 53.0674C55.4514 56.0735 53.4709 58.9527 52.2067 60.6463C51.1533 62.0647 52.4596 66.6586 52.2278 68.5851C51.996 70.5327 51.9118 79.6994 51.9118 79.6994C51.9118 79.6994 30.1259 79.9323 27.8294 78.8738C26.4177 78.2175 30.0627 60.1594 30.463 52.3688C30.8634 44.5782 32.4225 35.0939 40.4078 27.4092C41.1453 29.124 41.4824 33.1251 44.1161 35.2421Z" fill="#8ACDFF"/>
<path d="M29.1147 61.9378C26.8813 71.168 21.5718 78.6623 22.7517 79.2339C22.7517 79.2339 45.6331 79.8478 45.8649 78.6835C50.2052 56.2642 40.7239 42.8634 41.1664 39.1375C41.4824 36.4065 41.4403 37.5709 43.2733 34.48C40.9346 32.5959 39.8179 31.7914 37.6478 28.9546C29.5993 40.196 30.9898 54.1683 29.1147 61.9378Z" fill="#66BCF7"/>
<path d="M111.349 156.018L114.193 156.695C114.699 155.658 116.827 154.261 120.24 152.609V71.2737C116.659 72.3957 113.14 73.5601 109.685 74.8303C110.801 109.867 111.328 147.867 111.349 156.018Z" fill="#96A6BC"/>
<path d="M114.193 76.249H35.2249V156.696H114.193V76.249Z" fill="#B6C2D3"/>
<path opacity="0.4" d="M44.5799 148.481V77.8362H103.511V147.444V148.481H44.5799ZM102.479 147.444V146.406V147.444ZM46.6236 146.406H101.467V79.8897H46.6236V146.406Z" fill="white"/>
<path d="M18.264 78.1116L130.08 77.794C130.08 77.794 143.859 71.824 174.557 67.7593C187.051 66.108 191.75 66.5738 191.75 66.5738L191.982 60.9001L148.684 61.4929C148.684 61.4929 142.553 59.5241 50.3317 67.7593C26.1229 69.9187 18.4325 72.9249 18.4325 72.9249L18.264 78.1116Z" fill="#96A6BC"/>
<path d="M138.318 60.6675C138.318 60.6675 104.059 61.7683 49.868 67.1244C23.2573 69.7495 18.4113 72.8192 18.4113 72.8192L18.3692 73.2638L129.511 71.6549C129.511 71.6549 163.032 61.1544 192.087 60.9215L138.318 60.6675Z" fill="#B6C2D3"/>
<path d="M134.02 61.6413C133.957 61.8107 133.999 61.98 134.125 62.0435L138.171 65.5578C138.318 65.6213 138.487 65.5366 138.571 65.3673L149.611 40.3865C149.801 39.8996 149.422 39.582 149.253 39.582L143.923 39.6879C143.775 39.6879 143.607 39.8149 143.522 39.9631L134.02 61.6413Z" fill="#151823"/>
<path d="M133.893 62.8057C133.83 62.975 133.851 63.1232 133.957 63.1656L137.875 64.9015C137.981 64.9439 138.149 64.8592 138.213 64.6686L148.853 40.323C148.937 40.1536 148.958 39.7937 148.642 39.7937L144.133 39.8784C144.007 39.8784 143.859 40.0054 143.775 40.1748L133.893 62.8057Z" fill="#282A35"/>
<path d="M107.578 64.7533C107.451 64.8804 107.514 64.965 107.725 64.965L137.812 64.9862C138.065 64.9862 138.149 64.8804 138.002 64.7322L134.357 61.6412C134.273 61.5565 134.041 61.5142 133.851 61.5142L111.075 61.7682C110.907 61.7682 110.717 61.8317 110.633 61.8952L107.578 64.7533Z" fill="#282A35"/>
<path opacity="0.42" d="M145.776 43.9219L138.739 59.6303L136.843 58.4659L143.501 43.6467L145.776 43.9219Z" fill="#B6C2D3"/>
<path d="M107.472 65.6423C107.472 65.8328 107.641 66.0022 107.872 66.0022L138.002 65.7905C138.212 65.7905 138.381 65.6211 138.381 65.4306V65.113C138.381 64.9225 138.212 64.7531 138.002 64.7743L107.872 64.986C107.662 64.986 107.493 65.1553 107.493 65.3459L107.472 65.6423Z" fill="#151823"/>
<path opacity="0.42" d="M132.166 61.9375L134.23 64.0757L117.417 64.0969L118.702 62.1069L132.166 61.9375Z" fill="#B6C2D3"/>
<path d="M40.324 14.4316C39.6287 7.31844 44.0533 4.31227 49.6788 3.76185C55.3044 3.21142 58.9073 7.08557 59.6026 14.1987C59.729 15.5536 58.7598 16.2734 58.6755 17.5225C58.8862 18.1576 59.6025 19.9147 60.045 20.7827C60.1293 21.3543 59.118 22.1799 58.3384 22.3704C57.3903 25.9482 56.5685 29.0602 52.6496 28.2769C47.1084 27.1337 41.0193 21.5448 40.324 14.4316Z" fill="#CC9483"/>
<path d="M56.7579 13.8389L58.8438 10.1129C61.7935 6.78923 52.2912 -0.00637484 44.4744 2.78808C37.2054 5.37083 36.6155 9.499 36.8894 14.0506C37.1633 18.581 39.8391 24.8685 39.8391 24.8685C39.8391 24.8685 42.3464 25.6094 45.4857 24.7838C47.9509 24.1275 51.343 21.9682 50.7531 21.3966C49.9314 20.5921 49.5521 16.9509 51.0691 16.5698C51.8066 16.4005 53.1972 17.7553 53.1972 17.7553L56.7579 13.8389Z" fill="#A0593A"/>
<path d="M59.4338 8.10181C60.2555 9.28734 60.4873 11.0656 57.2004 13.4367C54.2718 15.5326 53.5554 18.7716 54.1454 20.063C53.3237 18.8775 52.8391 17.8189 55.557 13.6696C58.2539 9.52021 59.4338 8.10181 59.4338 8.10181Z" fill="#BA784A"/>
<path d="M50.4792 21.9891C48.899 24.3601 48.1195 28.7847 40.7452 33.1881C33.3708 37.6127 30.379 41.4022 30.0629 43.1381C29.7469 44.8741 32.1067 23.2381 35.246 17.8821C38.3854 12.526 50.4792 21.9891 50.4792 21.9891Z" fill="#A0593A"/>
<path d="M58.2117 7.23389C57.6217 9.71079 58.6752 9.71079 54.5666 12.2089C50.437 14.6858 47.9719 21.0792 47.1502 25.1227C46.3285 29.145 36.1941 33.7601 33.2443 36.8509C30.2946 39.9206 30.2946 40.6404 30.2946 40.6404C30.2946 40.6404 31.5588 36.9356 38.891 31.4102C46.8974 25.3767 43.6105 22.053 47.382 16.2524C51.1534 10.4517 54.6931 10.3247 55.8729 9.1392C57.0318 7.9325 58.2117 7.23389 58.2117 7.23389Z" fill="#BA784A"/>
<path d="M96.7478 67.2087C96.6846 67.4416 96.5161 67.5897 96.3264 67.5686L84.043 70.6382C83.8533 70.5959 83.7269 70.363 83.7901 70.109L90.6166 42.609C90.8062 41.8258 91.2487 41.6564 91.7122 41.5505L102.879 41.0213C103.322 40.9789 103.553 41.487 103.511 41.7411L96.7478 67.2087Z" fill="#151823"/>
<path d="M58.9066 68.839C58.7802 68.9448 58.6327 69.1565 58.8644 69.1565L84.4217 69.7705C84.6956 69.7705 85.6859 69.4741 85.5173 69.3471L94.0294 65.727C93.9451 65.6423 95.3146 63.9699 95.125 63.991L81.6616 63.5676C81.4931 63.5676 80.9031 63.61 80.8188 63.6735L58.9066 68.839Z" fill="#151823"/>
<path d="M58.7172 69.7286C58.7172 69.9826 58.8858 70.1943 59.1175 70.1943L84.0006 70.6601C84.2323 70.6601 84.4009 70.4484 84.4009 70.1943V69.7709C84.4009 69.5168 84.2323 69.3051 84.0006 69.3051L59.1386 68.8394C58.9069 68.8394 58.7172 69.0511 58.7172 69.3051V69.7286Z" fill="#282A35"/>
<path d="M65.7966 63.2713C66.8079 63.6312 73.4869 62.9961 74.3297 62.9326C74.73 62.9114 76.3735 63.6524 76.6263 63.8006C77.0055 64.0335 79.0704 65.0497 78.4383 65.4308C78.0801 65.6425 76.9002 64.9227 76.0785 64.711C75.0882 64.4569 73.6555 64.4569 73.6555 64.4569C73.6555 64.4569 75.5518 64.6263 76.0364 64.8168C76.6474 65.0497 79.0493 66.2565 78.4172 66.6799C77.7851 67.1034 75.931 65.8966 75.931 65.8966L73.0234 65.8119C73.0234 65.8119 75.0882 65.9813 75.3832 66.1083C75.8889 66.3412 77.7219 66.8282 77.3427 67.2939C77.1741 67.5268 75.6571 67.1669 74.7933 67.0822C73.9505 66.9975 72.7284 67.2304 72.7284 67.2304C72.7284 67.2304 75.7414 67.061 76.1417 67.4845C76.542 67.8867 74.0769 68.2467 72.8759 68.2467C71.696 68.2678 67.2925 68.5854 64.4692 67.7597C63.5422 67.4845 65.7966 63.2713 65.7966 63.2713Z" fill="#D8A798"/>
<path d="M67.6716 63.0388C66.7657 64.6478 65.1222 66.9341 65.7754 69.7921L61.3297 69.4322C61.3297 69.4322 59.5599 64.7113 63.0574 62.2132C63.4788 61.9168 67.6716 63.0388 67.6716 63.0388Z" fill="#8ACDFF"/>
<path d="M36.8469 39.2647C34.0236 38.4179 33.0123 46.5472 34.3396 52.0514C36.9312 62.8058 37.9425 64.076 39.9652 66.5106C43.5892 70.8505 62.2778 70.0248 62.2778 70.0248L64.8272 62.3189C64.8272 62.3189 51.1952 59.2493 50.6896 58.3813C49.1936 55.7986 45.7172 46.8224 44.5583 43.2235C42.4935 36.9148 36.8469 39.2647 36.8469 39.2647Z" fill="#66BCF7"/>
<path d="M33.3915 44.7896C34.9296 48.706 35.1192 60.6883 42.7464 68.119C44.9587 70.2784 38.7853 65.8538 36.573 59.8204C33.9815 52.7284 33.3915 44.7896 33.3915 44.7896Z" fill="#8ACDFF"/>
<path d="M84.4852 21.968C84.9276 23.2382 90.8692 31.6429 90.8692 31.6429C90.8692 31.6429 87.0346 32.4897 85.644 34.8185C82.1254 27.684 82.9261 24.7837 82.8628 24.1486C82.8207 23.4923 84.4852 21.968 84.4852 21.968Z" fill="white"/>
<path d="M89.2048 31.3888C90.4479 33.2518 91.6278 34.3103 92.7234 36.6813C92.7234 36.6813 88.7202 36.8719 85.4334 30.6267C85.0331 29.8223 89.2048 31.3888 89.2048 31.3888Z" fill="white"/>
<path d="M91.8384 35.6229C95.7783 32.5956 97.1057 29.4202 97.1057 29.4202L98.7702 31.3254C98.7702 31.3254 94.3667 36.5332 92.6179 36.6391C90.8481 36.7449 91.8384 35.6229 91.8384 35.6229Z" fill="white"/>
<path d="M95.4833 30.5846C95.9889 30.3094 98.4751 32.2994 100.013 34.2047C100.371 31.3891 99.6971 28.1712 99.6971 28.1712L96.6421 23.8525C96.6421 23.8525 97.1688 24.5935 96.9792 26.4353C96.8106 28.2983 95.4833 30.5846 95.4833 30.5846Z" fill="white"/>
<defs>
<linearGradient id="paint0_linear" x1="83.2859" y1="30.2966" x2="95.4482" y2="15.6612" gradientUnits="userSpaceOnUse">
<stop offset="0.25" stop-color="white"/>
<stop offset="0.6429" stop-color="#C6C0B9"/>
</linearGradient>
</defs>
</svg>
