<svg width="175" height="157" viewBox="0 0 175 157" fill="none" xmlns="http://www.w3.org/2000/svg">
<path d="M115.477 4.35525L139.789 1.25464V6.12703L114.269 8.34176L115.477 4.35525Z" fill="#96A6BC"/>
<path d="M82.3309 149.871C82.2806 150.054 82.5575 150.237 82.9098 150.268L85.9551 150.497C86.3075 150.528 86.6346 150.405 86.685 150.207L117.742 3.3467C117.792 3.16341 117.515 2.98012 117.163 2.94958L114.118 2.70519C113.765 2.67464 113.438 2.81211 113.388 2.9954L82.3309 149.871Z" fill="#96A6BC"/>
<path d="M171.677 154.682C171.727 154.835 171.979 154.942 172.205 154.911L174.093 154.621C174.319 154.591 174.445 154.438 174.369 154.285L125.77 34.0783C125.72 33.9256 125.468 33.8339 125.267 33.8645L123.38 34.1547C123.153 34.1853 123.027 34.338 123.078 34.4907L171.677 154.682Z" fill="#96A6BC"/>
<path d="M151.039 147.061C151.089 147.198 151.316 147.29 151.542 147.259L153.43 146.969C153.656 146.938 153.782 146.801 153.732 146.663L110.192 38.9967C110.141 38.8593 109.915 38.7676 109.688 38.8134L107.801 39.1036C107.574 39.1342 107.448 39.2717 107.499 39.4091L151.039 147.061Z" fill="#96A6BC"/>
<path d="M115.225 6.70725L137.65 4.04956L117.189 104.263L94.8144 101.162L115.225 6.70725Z" fill="#E4EEF4"/>
<path d="M104.781 155.859C104.73 156.057 105.032 156.24 105.46 156.286L109.009 156.561C109.437 156.592 109.814 156.454 109.839 156.256L142.733 0.750557C142.784 0.551995 142.482 0.368706 142.054 0.338158L138.505 0.0479509C138.103 0.0174027 137.725 0.154869 137.675 0.353432L104.781 155.859Z" fill="#96A6BC"/>
<path d="M126.048 103.515L91.5174 100.078L86.509 100.567L120.536 104.798L126.048 103.515Z" fill="#B6C2D3"/>
<path d="M85.7287 102.339L121.492 106.524L125.695 106.035L126.375 103.072L121.064 103.576L85.4518 100.246L85.7287 102.339Z" fill="#96A6BC"/>
<path d="M123.128 59.1126L115.704 58.6085L115.855 57.8601L123.254 58.3489L123.128 59.1126Z" fill="#B6C2D3"/>
<path d="M122.951 60.0747L115.527 59.5707L115.577 59.2805L123.002 59.7845L122.951 60.0747Z" fill="#B6C2D3"/>
<path d="M115.469 59.8871L115.416 60.1755L122.845 60.6773L122.898 60.389L115.469 59.8871Z" fill="#B6C2D3"/>
<path d="M115.348 60.4823L115.295 60.7708L122.723 61.2753L122.776 60.9869L115.348 60.4823Z" fill="#B6C2D3"/>
<path d="M122.599 61.8771L115.175 61.373L115.25 61.0828L122.675 61.5868L122.599 61.8771Z" fill="#B6C2D3"/>
<path d="M113.388 58.4556L105.057 57.8905L105.183 57.1421L113.539 57.6919L113.388 58.4556Z" fill="#B6C2D3"/>
<path d="M104.917 58.5521L104.864 58.8406L113.194 59.402L113.246 59.1136L104.917 58.5521Z" fill="#B6C2D3"/>
<path d="M104.796 59.1532L104.743 59.4417L113.073 60.0048L113.126 59.7164L104.796 59.1532Z" fill="#B6C2D3"/>
<path d="M112.985 60.6095L104.629 60.0444L104.68 59.7542L113.035 60.3193L112.985 60.6095Z" fill="#B6C2D3"/>
<path d="M112.859 61.2203L104.529 60.655L104.579 60.3647L112.909 60.93L112.859 61.2203Z" fill="#B6C2D3"/>
<path d="M107.146 55.7371L105.485 55.6302L106.995 47.6877L108.656 47.7947L107.146 55.7371Z" fill="#6597EF"/>
<path d="M109.285 55.8897L107.649 55.7675L108.681 50.3606L110.317 50.4828L109.285 55.8897Z" fill="#6597EF"/>
<path opacity="0.7" d="M111.701 56.0426L110.04 55.9357L111.349 49.0623L113.01 49.1844L111.701 56.0426Z" fill="#6597EF"/>
<path opacity="0.7" d="M114.067 56.2108L112.406 56.0886L113.262 51.6284L114.923 51.7506L114.067 56.2108Z" fill="#6597EF"/>
<path opacity="0.7" d="M116.433 56.3635L114.772 56.2565L115.854 50.5745L117.515 50.6814L116.433 56.3635Z" fill="#6597EF"/>
<path opacity="0.68" d="M118.799 56.5315L117.163 56.4093L118.371 49.9636L120.007 50.0705L118.799 56.5315Z" fill="#FF781D"/>
<path d="M121.164 56.6844L119.528 56.5774L120.988 48.696L122.649 48.803L121.164 56.6844Z" fill="#FF781D"/>
<path d="M123.544 47.8886L121.9 56.7222L123.551 56.8353L125.194 48.0017L123.544 47.8886Z" fill="#E64A00"/>
<path d="M119.378 26.8844C114.722 26.6706 110.494 30.0309 109.915 34.3992C109.336 38.7829 112.633 42.525 117.314 42.7389C121.995 42.9527 126.249 39.5619 126.802 35.1782C127.331 30.7946 124.009 27.0983 119.378 26.8844ZM117.893 38.1872C115.905 38.0956 114.47 36.4918 114.722 34.6131C114.974 32.7344 116.786 31.2986 118.774 31.3903C120.762 31.4819 122.197 33.0704 121.945 34.9491C121.719 36.8278 119.881 38.2788 117.893 38.1872Z" fill="white"/>
<path opacity="0.7" d="M119.202 28.3355C115.427 28.1675 111.979 30.9015 111.501 34.4604C111.022 38.0345 113.715 41.0741 117.541 41.2574C121.341 41.4406 124.814 38.676 125.267 35.1019C125.72 31.5278 123.002 28.5035 119.202 28.3355ZM117.868 38.7066C115.553 38.5997 113.917 36.7515 114.219 34.5979C114.496 32.4442 116.61 30.7793 118.9 30.8862C121.19 30.9932 122.826 32.8261 122.549 34.9797C122.272 37.1334 120.158 38.8135 117.868 38.7066Z" fill="#6597EF"/>
<path d="M125.192 35.2699L122.55 35.1477C122.298 37.2555 120.234 38.8898 117.995 38.7829C117.869 38.7829 117.718 38.7677 117.592 38.7524L117.265 41.242C117.39 41.2573 117.541 41.2726 117.667 41.2879C121.367 41.4559 124.739 38.7676 125.192 35.2699Z" fill="#E64A00"/>
<path d="M111.425 34.4755C110.972 37.9886 113.565 40.967 117.239 41.242L117.566 38.6912C115.377 38.4773 113.842 36.6903 114.118 34.5977C114.269 33.3911 114.999 32.3371 116.006 31.6651C115.553 30.9319 115.05 30.1835 114.622 29.5725C112.91 30.7028 111.702 32.4593 111.425 34.4755Z" fill="#6597EF"/>
<path opacity="0.7" d="M126.903 25.3877C126.878 25.6626 126.626 25.8611 126.324 25.8459C126.047 25.8306 125.846 25.6015 125.871 25.3418C125.896 25.0669 126.173 24.8684 126.45 24.8836C126.752 24.8989 126.953 25.128 126.903 25.3877Z" fill="#6597EF"/>
<path d="M128.866 36.3239C128.841 36.5988 128.589 36.7973 128.287 36.782C128.01 36.7668 127.809 36.5377 127.834 36.278C127.884 36.0184 128.136 35.8046 128.413 35.8199C128.715 35.8351 128.916 36.0642 128.866 36.3239Z" fill="#E64A00"/>
<path d="M125.645 25.8157C125.67 25.8463 125.569 25.9532 125.443 26.0296L119.932 29.6188C119.806 29.7105 119.655 29.7563 119.655 29.7105C119.63 29.6799 119.73 29.573 119.856 29.4967L125.343 25.9074C125.494 25.831 125.619 25.7852 125.645 25.8157Z" fill="#72859B"/>
<path d="M127.633 36.3546C127.633 36.4004 127.557 36.431 127.456 36.431L123.656 36.3852C123.555 36.3852 123.505 36.3546 123.505 36.3088C123.505 36.263 123.581 36.2324 123.681 36.2324L127.482 36.2782C127.557 36.2782 127.633 36.3241 127.633 36.3546Z" fill="#72859B"/>
<path opacity="0.7" d="M118.371 81.3368C118.371 81.5048 118.271 81.6575 118.145 81.6728C117.994 81.7034 117.893 81.5812 117.868 81.4132C117.868 81.2451 117.969 81.0924 118.095 81.0771C118.246 81.0619 118.371 81.1688 118.371 81.3368Z" fill="#6597EF"/>
<path d="M117.792 81.7188C117.817 81.7341 117.767 81.8104 117.717 81.8715L115.376 84.575C115.326 84.6361 115.25 84.682 115.25 84.6667C115.25 84.6514 115.275 84.575 115.326 84.5139L117.666 81.8104C117.717 81.7493 117.792 81.7035 117.792 81.7188Z" fill="#72859B"/>
<path d="M105.963 79.55C105.888 79.6874 105.913 79.8708 106.014 79.9624C106.14 80.0388 106.291 79.993 106.366 79.8555C106.442 79.718 106.416 79.5347 106.291 79.443C106.215 79.3667 106.039 79.4125 105.963 79.55Z" fill="#FF781D"/>
<path d="M106.316 80.1609C106.29 80.1762 106.29 80.2525 106.316 80.3289L107.196 83.8265C107.222 83.9029 107.247 83.9792 107.272 83.964C107.297 83.9487 107.297 83.8723 107.272 83.796L106.391 80.2983C106.366 80.222 106.341 80.1609 106.316 80.1609Z" fill="#72859B"/>
<path d="M116.534 88.5768L116.811 85.8122L111.022 84.6667L104.68 84.3765L100.955 84.7583L100.653 87.6298C100.653 87.6451 100.653 87.6451 100.628 87.6603C100.628 87.6756 100.628 87.6909 100.628 87.7062V87.752C100.754 88.6379 104.152 89.2488 108.43 89.5238C112.834 89.814 116.232 89.5848 116.333 88.6684C116.333 88.6226 116.534 88.6226 116.534 88.5768Z" fill="#E64A00"/>
<path d="M116.509 88.7907C116.509 88.7449 116.559 88.6227 116.534 88.5769L116.811 85.8123L113.866 85.9497L109.109 86.0108L108.682 89.8904C112.935 90.1348 116.333 89.5391 116.509 88.7907Z" fill="#4A75DD"/>
<path d="M100.955 84.7585L100.653 87.6301C100.653 87.6454 100.653 87.6454 100.628 87.6606C100.628 87.6759 100.628 87.6912 100.628 87.7065V87.7523C100.754 88.6382 104.152 89.5699 108.405 89.8601C108.48 89.8601 108.581 89.8601 108.657 89.8754L109.034 86.179L103.497 85.4612L100.955 84.7585Z" fill="#66BCF7"/>
<path d="M100.93 84.7128C100.88 85.2626 104.353 85.95 108.707 86.2402C113.061 86.5304 116.635 86.3165 116.71 85.7667C116.761 85.2015 113.262 84.5295 108.933 84.2393C104.554 83.9491 101.005 84.1629 100.93 84.7128ZM104.051 84.9113C104.101 84.5753 106.266 84.4378 108.883 84.6211C111.526 84.7891 113.64 85.2168 113.589 85.5376C113.564 85.8736 111.4 86.0111 108.757 85.8278C106.115 85.6598 104 85.2626 104.051 84.9113Z" fill="#FF781D"/>
<path d="M101.005 84.7432L104.025 84.9417C104 85.2625 106.039 85.6749 108.606 85.8429C108.757 85.8582 108.933 85.8582 109.059 85.8734L109.008 86.2553C108.857 86.24 108.706 86.24 108.555 86.2247C104.327 85.9498 100.93 85.293 101.005 84.7432Z" fill="#8ACDFF"/>
<path d="M116.786 85.7664C116.736 86.3163 113.288 86.5301 109.034 86.2705L109.085 85.8734C111.626 86.0261 113.564 85.8734 113.59 85.5526C113.615 85.3693 113.061 85.1708 112.004 84.9875C112.658 84.9264 113.338 84.85 113.942 84.8042C115.704 85.0944 116.836 85.4457 116.786 85.7664Z" fill="#6597EF"/>
<path d="M106.618 85.6594L106.165 86.026L109.06 86.2552L109.085 85.8733L106.618 85.6594Z" fill="white"/>
<path opacity="0.55" d="M106.165 86.0261L105.788 89.5849C105.788 89.5849 108.606 89.8904 108.657 89.8751C108.783 88.6074 109.059 86.2247 109.059 86.2247L106.165 86.0261Z" fill="#E6EDF4"/>
<path d="M98.6145 83.1847C98.6397 83.3374 98.7655 83.4443 98.9165 83.3985C99.0675 83.3527 99.143 83.1999 99.1179 83.0319C99.0927 82.8792 98.9669 82.7723 98.8159 82.8181C98.6648 82.8639 98.5893 83.0319 98.6145 83.1847Z" fill="#8ACDFF"/>
<path d="M99.2434 83.3074C99.2434 83.3227 99.2937 83.3838 99.3441 83.4143L102.138 84.957C102.213 85.0029 102.264 85.0029 102.289 84.9876C102.289 84.9571 102.238 84.9112 102.188 84.8807L99.3944 83.3379C99.3189 83.2921 99.2434 83.2768 99.2434 83.3074Z" fill="#72859B"/>
<path d="M105.535 94.6404C105.435 94.6404 105.334 94.5793 105.284 94.4876C105.208 94.3349 105.258 94.1516 105.384 94.0447C105.46 93.9989 105.51 93.9836 105.56 93.9836C105.661 93.9836 105.762 94.0447 105.812 94.1364C105.888 94.2738 105.837 94.4724 105.711 94.5793C105.661 94.6404 105.586 94.6404 105.535 94.6404Z" fill="#A0AAAF"/>
<path d="M105.712 93.8462C105.687 93.8462 105.687 93.7699 105.712 93.6782L106.819 89.4779C106.844 89.3863 106.895 89.3252 106.92 89.3405C106.945 89.3557 106.92 89.4321 106.895 89.5085L105.787 93.7088C105.787 93.7851 105.737 93.8462 105.712 93.8462Z" fill="#72859B"/>
<path d="M104.681 64.361L104.504 65.2556L121.894 66.526L122.072 65.6313L104.681 64.361Z" fill="#B6C2D3"/>
<path d="M121.668 67.6513L104.277 66.3834L104.327 66.0474L121.743 67.3152L121.668 67.6513Z" fill="#B6C2D3"/>
<path d="M121.542 68.3689L104.125 67.1012L104.201 66.7651L121.617 68.0329L121.542 68.3689Z" fill="#B6C2D3"/>
<path d="M121.391 69.0871L103.975 67.8041L104.05 67.468L121.466 68.7358L121.391 69.0871Z" fill="#B6C2D3"/>
<path d="M103.901 68.178L103.832 68.5269L121.249 69.803L121.318 69.4541L103.901 68.178Z" fill="#B6C2D3"/>
<path d="M120.888 72.8905L103.421 71.6075L103.597 70.7063L121.064 71.9893L120.888 72.8905Z" fill="#B6C2D3"/>
<path d="M120.661 74.036L103.195 72.7529L103.27 72.4016L120.736 73.6847L120.661 74.036Z" fill="#B6C2D3"/>
<path d="M120.51 74.754L103.044 73.4709L103.119 73.1196L120.586 74.4027L120.51 74.754Z" fill="#B6C2D3"/>
<path d="M102.979 73.8416L102.91 74.1904L120.375 75.4718L120.445 75.123L102.979 73.8416Z" fill="#B6C2D3"/>
<path d="M120.233 76.1896L102.742 74.9067L102.817 74.5554L120.309 75.8383L120.233 76.1896Z" fill="#B6C2D3"/>
<path d="M89.5002 40.616C89.3858 40.4938 88.7977 40.4785 88.2096 40.5549C88.52 40.3563 88.8304 40.173 89.0428 40.1272C89.4185 40.0508 90.0066 39.0275 89.8595 38.554C89.7125 38.0805 88.7977 38.8442 88.471 39.058C88.128 39.2871 85.7756 39.6995 85.3672 39.837C84.9425 39.9897 82.8678 41.8685 82.5901 42.067C82.3287 42.2503 75.8597 44.5414 73.8341 44.7858C73.8341 44.7858 74.7489 49.3681 74.9449 49.3222C75.1736 49.2764 83.6029 45.9772 83.897 45.855C84.2074 45.7328 86.38 45.4884 86.9354 45.351C87.4909 45.2135 88.5037 44.74 88.8141 44.5414C88.8141 44.5414 89.7452 40.8298 89.5002 40.616Z" fill="#D8A798"/>
<path opacity="0.4" d="M80.8585 46.6646L83.5049 45.7787L86.3963 45.4121L88.0136 44.7553L88.3893 44.2513L88.9447 41.5783L88.0463 40.4175L80.2214 44.236L80.8585 46.6646Z" fill="url(#paint0_linear)"/>
<path d="M79.3555 42.907L81.4792 42.1433L83.7172 47.6725L81.0545 49.7193L79.3555 42.907Z" fill="#D4D5D6"/>
<path d="M63.9999 30.5959C64.6043 30.7945 66.1889 31.9401 66.4013 33.0856C66.5973 34.2312 70.6649 42.0515 71.057 43.1971C71.449 44.3426 72.1842 44.1594 73.1806 43.9608C74.1771 43.7622 80.7605 42.4945 80.7605 42.4945C80.7605 42.4945 81.3486 48.5125 83.1455 49.8566C75.7617 52.7281 70.0442 53.7209 68.6393 53.3391C67.2507 52.9572 61.1575 45.4729 60.9614 43.5637C60.7654 41.6544 63.9999 30.5959 63.9999 30.5959Z" fill="#151823"/>
<path d="M9.87923 62.0911C9.11145 62.2133 7.51054 62.473 6.72642 62.4424C5.9423 62.4272 4.92948 63.2825 3.57361 63.4353C3.08353 63.4811 2.59346 63.9698 3.13254 64.1989C3.67162 64.4433 4.52108 64.1531 5.28887 64.2906C6.25268 64.4586 4.06368 66.0318 3.45925 66.4137C2.95284 66.7497 0.192093 69.1477 0.502473 69.4685C1.07423 70.0489 3.91666 67.0552 4.08002 67.3454C4.2107 67.5898 0.584152 70.2322 1.00888 70.5224C1.90735 71.1333 4.27605 68.4451 4.92948 68.5826C4.92948 68.5826 4.25971 69.163 3.5246 69.7739C2.85483 70.3391 2.05438 70.7515 2.05438 70.9806C2.08705 72.5691 5.87696 68.3535 6.15466 69.0102C6.38337 69.5296 3.81864 71.1791 4.40673 71.5457C4.70078 71.729 7.44519 69.3768 7.44519 69.3768C7.44519 69.3768 11.7742 66.8261 13.081 65.6041C13.8652 64.8557 17.0016 63.6644 17.0016 63.6644L13.3914 60.5332C13.3914 60.5332 11.2024 61.8773 9.87923 62.0911Z" fill="#D8A798"/>
<path d="M11.3495 60.3804L9.37286 61.862C9.37286 61.862 13.0648 66.9483 13.4241 67.712L16.3156 65.6805L11.3495 60.3804Z" fill="#D4D5D6"/>
<path d="M28.4696 30.2144C30.3809 27.5873 32.0471 28.4273 33.256 30.0922C34.7099 32.0778 34.0564 39.058 32.9946 42.2503C32.0308 45.1523 31.6714 51.598 29.27 56.3329C26.885 61.0679 15.4172 70.3545 15.3029 69.6518C14.9272 67.3913 11.1699 62.0607 10.3858 60.9457C13.7183 57.9367 21.0204 51.6438 21.4942 50.5746C23.0134 47.1838 28.4696 30.2144 28.4696 30.2144Z" fill="#151823"/>
<path d="M42.8942 24.7924C43.2372 24.0745 43.5476 23.4941 44.3481 23.5857C45.1485 23.6774 54.0352 25.0215 54.2802 26.4115C54.5416 27.8014 51.6828 29.1608 50.3433 29.3441C48.9711 29.5427 42.8942 24.7924 42.8942 24.7924Z" fill="#4A75DD"/>
<path d="M52.794 22.7762C52.2713 24.5174 52.2876 26.4419 52.9084 27.9998C53.5128 29.5578 50.8827 31.9558 49.9026 31.8947C48.9224 31.8183 43.3519 26.8696 43.3519 26.8696C43.3519 26.8696 44.3321 20.9433 44.5608 19.5687C44.7731 18.1788 52.794 22.7762 52.794 22.7762Z" fill="#CC9483"/>
<path d="M53.1528 23.4938C53.1364 23.7535 52.8424 24.9601 52.8914 25.9988C51.9766 27.0985 45.671 31.3294 44.1027 31.2072C42.7959 31.1003 43.9067 28.8856 43.1553 27.9691C43.433 26.7166 44.5602 19.492 44.5765 19.1865L53.1528 23.4938Z" fill="url(#paint1_linear)"/>
<path d="M59.6546 40.8909L61.1411 30.8405L53.8881 26.7471C53.447 27.2817 51.3723 30.3518 50.0328 30.2296C48.7096 30.0921 49.314 32.4443 49.314 32.4443L50.0818 62.0149L58.8868 61.9233C58.8868 61.9233 60.063 60.625 60.063 55.0805C60.0793 53.385 60.3407 45.4578 59.6546 40.8909Z" fill="#6597EF"/>
<path d="M51.1274 54.1031C50.9804 45.1983 50.2126 30.9017 48.8077 30.2297C47.6152 29.6645 43.5312 27.0527 43.0902 26.1362L42.7308 25.5405C38.8265 26.8846 34.8896 27.908 33.3704 27.908C33.3704 27.908 35.4287 38.1264 35.7717 41.4409C36.1801 45.4579 35.298 53.5532 35.0529 57.387C34.9059 59.5559 36.2128 61.9845 36.2128 61.9845C36.2128 61.9845 47.1251 62.458 50.6046 61.9998C51.6174 61.8776 51.2254 59.1588 51.1274 54.1031Z" fill="#4A75DD"/>
<path d="M47.566 140.722C47.4516 139.21 48.3828 138.263 47.6803 130.534C47.5986 129.602 54.8681 129.282 54.8681 129.282C54.5413 133.085 53.5122 135.452 57.3348 140.019C58.1679 141.012 60.5692 142.86 61.4187 143.67C62.0231 144.25 62.7092 146.908 59.1317 146.908C54.6067 146.908 51.1435 145.594 50 143.532C49.902 143.364 49.6243 143.426 49.6243 143.426C49.6243 143.426 47.86 144.632 47.566 140.722Z" fill="#151823"/>
<path d="M43.8416 64.8712C43.4986 69.8352 41.9467 75.4408 41.9467 75.4408C41.9467 75.4408 40.5091 76.1892 37.2583 76.6933C33.256 77.3042 27.9796 74.4938 27.9796 74.2036C27.9796 66.5208 31.165 60.2431 31.2794 56.7301C31.3611 54.0113 31.8185 46.6339 31.4101 45.4731C31.0017 44.3123 29.8582 33.6357 30.4136 31.0391C30.6586 29.8936 29.3191 28.6717 30.4626 28.4426C33.7134 27.8316 35.445 27.801 41.1789 25.4641C41.1789 25.4641 40.1661 31.925 41.1462 33.819C42.1427 35.7435 42.2897 43.8999 42.9595 45.855C43.3842 47.0005 44.3154 58.12 43.8416 64.8712Z" fill="#151823"/>
<path d="M36.6864 133.772L29.8253 132.871C29.8253 132.871 29.7273 133.513 29.1882 135.788C28.1917 140.004 25.6597 142.31 24.5979 143.471C23.6504 144.495 23.4707 145.671 23.7157 146.648L23.6994 147.152C23.6994 147.152 24.0915 149.138 25.4963 149.138C26.9012 149.138 32.6514 148.237 33.3539 147.274C33.6643 146.862 33.7296 146.434 33.7296 146.083C33.7623 146.037 33.7949 145.991 33.8113 145.93C33.8113 145.93 34.4157 143.624 35.2162 143.823C35.2162 143.823 36.572 142.509 35.7716 140.401C34.9875 138.278 36.6864 133.772 36.6864 133.772Z" fill="#151823"/>
<path d="M59.8668 61.3275C59.8995 62.0148 61.1737 64.642 61.2064 65.2988C61.4187 72.4165 61.2064 75.1963 61.2064 77.0751C61.2064 79.1218 59.4094 103.133 57.8085 108.265C56.2076 113.382 55.9462 132.321 57.0081 133.864C58.0699 135.407 57.8085 139.363 57.8085 139.363C57.8085 139.363 46.7655 140.264 46.4878 142.311C46.4878 142.311 46.0794 140.142 45.818 135.651C45.2953 126.777 45.5567 124.196 46.1447 108.83C46.2591 105.76 46.9452 87.324 46.9452 84.2539C46.9452 81.9628 42.4202 106.004 40.2965 113.183C40.2965 113.183 36.7843 128.335 37.6665 134.948C38.4669 140.89 36.572 142.433 36.572 142.433C36.572 142.433 29.9233 139.134 26.1987 141.18C26.068 139.134 25.823 138.904 26.2967 135.193C26.9012 130.595 27.7343 119.842 28.3224 113.366C29.0248 105.714 31.3935 87.0643 31.9163 77.8388C32.4553 68.6285 35.3468 64.199 36.4413 62.3509C37.5521 60.5027 59.8668 61.3275 59.8668 61.3275Z" fill="#151823"/>
<path d="M59.8668 77.579C59.4747 88.0722 54.9334 105.362 53.7409 109.975C52.5484 114.588 54.1329 112.847 53.5448 115.55C52.9404 118.238 53.1528 131.863 53.1528 132.825C53.1528 133.787 47.3699 134.933 48.5624 135.697C49.755 136.46 54.1493 135.116 54.1493 135.697C54.1493 136.277 50.7514 137.423 50.7514 137.423C50.7514 137.423 57.5471 137.805 57.9392 137.606C58.3312 137.423 57.6778 135.743 57.4001 133.711C57.1387 131.664 55.5378 117.841 57.1387 112.847C58.7396 107.852 61.533 81.6113 60.945 78.3427C60.3405 75.0893 59.8668 77.579 59.8668 77.579Z" fill="#282A35"/>
<path d="M47.4352 81.0923C45.2462 85.3079 40.6395 107.012 39.6594 110.082C38.6629 113.152 36.9966 115.902 36.1962 116.864C35.3957 117.826 30.9034 133.177 31.5078 135.865C33.5008 136.048 35.4937 135.666 35.7061 136.629C35.9021 137.591 30.5113 137.209 30.5113 137.209L37.307 140.661C37.307 140.661 37.6991 137.392 37.6991 134.903C37.6991 132.398 38.1238 120.621 40.1331 114.481C42.1261 108.341 42.3221 104.309 43.1226 98.9323C43.9067 93.5711 47.4352 81.0923 47.4352 81.0923Z" fill="#282A35"/>
<path d="M36.3925 60.0142L29.8255 62.122L29.6948 65.4517L36.2618 64.0007L36.3925 60.0142Z" fill="#282A35"/>
<path d="M43.6291 51.2317C44.2335 55.264 43.6781 70.2937 43.335 73.0277C42.9593 75.9756 41.4891 76.7699 38.712 77.1212C34.7261 77.6405 29.0576 74.8911 29.0576 74.8911C29.0576 74.8911 39.5615 78.0376 41.3748 75.4716C44.1682 71.5003 43.6291 51.2317 43.6291 51.2317Z" fill="#282A35"/>
<path d="M64.5879 57.2953C63.9834 52.6826 63.3953 42.1282 63.9834 39.2414C64.5879 36.3698 65.372 31.3599 63.9834 30.5962C63.8854 30.5504 60.0465 29.0994 54.9987 26.7625L55.2111 30.8559C56.4036 43.8541 57.4001 50.7733 57.4001 50.7733L59.246 60.5487C59.7198 65.4822 60.1608 69.6062 60.4059 70.5532C61.0103 72.8596 62.0068 75.2577 64.1958 75.3493C65.5843 75.4104 68.1817 74.7689 68.1817 74.7689C68.1817 74.7689 65.1923 61.8928 64.5879 57.2953Z" fill="#282A35"/>
<path d="M52.5647 61.6788L50.049 29.2979L47.517 29.3284L46.6348 29.8324L48.6768 31.757L48.6605 58.9906L52.5647 61.6788Z" fill="#D4D5D6"/>
<path d="M55.3418 59.0519L51.3395 31.5433L52.189 30.077L51.7642 29.0383L49.6732 29.3285L49.9673 31.6349H49.9836L52.5647 61.6791L55.3418 59.0519Z" fill="white"/>
<path d="M54.2149 25.0976C54.3293 26.2432 51.5358 28.9161 51.1274 29.1147C51.6829 29.2979 53.4798 32.7193 53.4798 32.7193L55.2768 28.1066C55.2604 28.1066 54.1496 24.6089 54.2149 25.0976Z" fill="#4A75DD"/>
<path d="M43.384 23.9214C43.335 24.792 46.8962 28.3509 49.6733 29.3284C48.8238 29.6645 45.524 32.0319 44.7726 32.9026C42.3712 30.4129 40.6723 26.2583 41.048 25.9987C41.7831 25.4641 43.384 23.9214 43.384 23.9214Z" fill="#6597EF"/>
<path d="M42.7797 24.0743C42.796 23.9368 39.0388 25.9835 39.0388 25.9835L37.9443 28.9925L40.656 29.7257L36.9315 31.7571L43.5148 48.7725C43.5148 48.7725 42.3713 30.3061 41.9302 28.1066C41.3585 25.4184 42.7797 24.0743 42.7797 24.0743Z" fill="#282A35"/>
<path d="M54.1004 25.2656C54.4435 25.3725 57.4002 28.015 57.4002 28.015L58.315 30.2297L55.6196 30.5505L58.413 31.9404L57.3676 49.6584C57.3676 49.6584 54.9172 30.7796 54.8682 28.5496C54.7865 26.625 54.1004 25.2656 54.1004 25.2656Z" fill="#151823"/>
<path d="M62.3989 59.9834L66.1888 61.5108L66.5972 65.7418L62.5949 63.4354L62.3989 59.9834Z" fill="#151823"/>
<path d="M42.551 13.3665C42.3549 14.6037 42.992 19.2012 42.9104 19.4303C42.845 19.6747 42.649 20.5147 42.4203 20.3925C42.1752 20.2704 43.7435 21.8894 44.2336 21.5381C44.7073 21.1868 46.2265 15.3368 46.0632 14.9855C45.8835 14.6495 42.551 13.3665 42.551 13.3665Z" fill="#380F01"/>
<path d="M55.832 20.1788C56.6815 17.9641 57.4493 14.5427 56.6815 12.0072C56.1751 10.3881 52.5485 8.69274 51.6827 8.63164C46.2102 8.17342 45.6711 11.4726 45.3281 14.894C44.1519 14.0845 43.5312 15.1995 43.4985 16.5741C43.4821 17.628 43.9232 18.8499 44.6257 19.2471C44.789 22.2255 46.635 24.6235 50.4412 25.3261C51.111 25.4483 51.7317 25.3719 52.2871 25.1276C53.1529 24.8526 53.8064 24.1806 54.3455 23.3099C54.8845 22.5462 55.7667 20.3162 55.832 20.1788Z" fill="#D8A798"/>
<path d="M45.4424 7.92903C45.9652 7.13477 48.6116 7.69992 48.4809 8.35672C48.4972 8.35672 49.7878 8.47891 49.7878 8.46364C49.9348 7.25697 48.2522 10.3882 48.2849 10.6631C45.132 10.4646 46.7166 14.2831 46.3409 14.7719C45.8345 15.4287 45.9161 16.0397 45.9161 16.0397L45.2137 15.6426L44.5113 14.4512L42.8123 15.6273C42.8287 15.6273 41.2114 9.2579 45.4424 7.92903Z" fill="#380F01"/>
<path d="M56.4855 9.15126C55.3256 8.26537 51.1437 5.71462 48.922 6.84489C46.7003 7.99044 47.6968 8.31119 47.6968 8.31119L48.2849 10.6634C49.1344 9.18181 50.915 10.7397 51.5521 11.5187C53.545 13.9167 56.6325 13.321 56.6488 13.3363C57.1553 14.1 56.6652 17.5977 56.6652 17.5977L57.2859 17.3228C57.2859 17.3228 58.2334 15.9176 58.2988 14.1153C58.3151 13.6723 58.1354 13.3669 58.1191 13.0003C59.0339 11.8547 57.6453 10.0524 56.4855 9.15126Z" fill="#5B250E"/>
<path d="M56.2894 19.0029C56.2241 20.2096 55.4726 24.1503 54.7538 25.2195C54.0187 26.3039 51.9277 27.5717 50.6862 27.5106C50.0818 26.4872 51.1436 22.9284 51.1436 22.9284C51.1436 22.9284 52.9079 23.3408 54.3128 22.1952C55.7177 21.0649 56.2894 19.0029 56.2894 19.0029Z" fill="#5B250E"/>
<path d="M53.0059 20.4378C53.5777 20.56 54.2475 22.2554 54.3128 22.8969C54.3781 23.5536 52.3688 21.4153 51.8134 21.5986C51.8134 20.2393 51.8134 20.2393 51.8134 20.2393L53.0059 20.4378Z" fill="#5B250E"/>
<path d="M51.8136 20.24C51.8136 20.24 50.5557 20.1026 50.0656 20.5303C49.5592 20.9732 48.236 22.2562 48.236 22.2562C48.236 22.2562 48.8567 22.8672 50.1799 22.0118C50.8987 21.5536 51.8136 21.5994 51.8136 21.5994V20.24Z" fill="#380F01"/>
<path d="M45.5735 13.2751C45.6061 14.4818 46.2269 18.9877 46.9457 20.6373C47.6318 22.1952 50.7846 22.7451 51.438 22.9742C51.5034 23.7074 50.7519 27.5259 50.7519 27.5259C50.7519 27.5259 47.0927 27.0218 45.5081 23.9823C44.6423 22.3327 44.528 20.7136 44.6096 19.8583C44.773 18.4378 45.5735 13.2751 45.5735 13.2751Z" fill="#380F01"/>
<path d="M75.6474 48.8791C75.5004 48.9555 75.3371 48.9708 75.3044 48.9097L75.1574 48.6653C75.1084 48.5889 75.19 48.4667 75.3371 48.3904L100.315 34.3078C100.462 34.2161 100.739 34.2619 100.739 34.2619C100.788 34.323 100.674 34.4452 100.511 34.5216L75.6474 48.8791Z" fill="#96A6BC"/>
<path d="M87.3929 44.7398L86.282 44.526C86.282 44.526 85.7756 44.5107 85.5959 43.9914C85.5143 43.7776 86.0207 43.579 86.3474 43.6095C86.4454 43.6248 87.4419 43.7012 87.4419 43.7012C87.4419 43.7012 87.0825 43.6706 86.7885 43.5179C86.2167 43.2429 85.7103 42.9375 85.9717 42.4945C86.2167 42.0515 87.2459 42.6472 87.6869 42.6014C87.3439 42.4792 86.3147 41.8988 86.5107 41.5475C86.7231 41.2114 88.03 41.4253 88.128 41.4253C88.2423 41.4406 88.7651 41.2573 88.7651 41.2573C88.7651 41.2573 87.8666 41.0587 87.7196 40.9365C87.5889 40.8143 87.5236 40.5699 87.7359 40.3103C87.9483 40.0353 88.9611 40.0659 89.1898 40.0811C89.4022 40.0964 90.2026 39.7298 90.4967 39.7451C90.7907 39.7604 90.7907 40.6157 90.8071 40.8143C90.8397 41.0282 90.3006 41.1198 90.268 41.3336C90.2516 41.5475 90.3333 42.1432 90.1046 42.3723C89.8596 42.6014 89.4512 42.9069 89.4512 42.9069C89.4512 42.9069 89.4022 43.3346 89.1898 43.7928C88.9775 44.2358 88.6181 44.1441 88.6017 44.4191C88.5691 44.7093 87.3929 44.7398 87.3929 44.7398Z" fill="#D8A798"/>
<defs>
<linearGradient id="paint0_linear" x1="81.945" y1="45.0982" x2="93.9978" y2="39.467" gradientUnits="userSpaceOnUse">
<stop offset="0.2143" stop-color="white"/>
<stop offset="0.2187" stop-color="#FCFCFC"/>
<stop offset="0.3068" stop-color="#BABABA"/>
<stop offset="0.3935" stop-color="#818181"/>
<stop offset="0.4766" stop-color="#535353"/>
<stop offset="0.5554" stop-color="#2F2F2F"/>
<stop offset="0.6288" stop-color="#151515"/>
<stop offset="0.6949" stop-color="#050505"/>
<stop offset="0.7473"/>
</linearGradient>
<linearGradient id="paint1_linear" x1="41.0587" y1="27.738" x2="61.6361" y2="12.5496" gradientUnits="userSpaceOnUse">
<stop stop-color="white"/>
<stop offset="0.5165" stop-color="#C6C0B9"/>
</linearGradient>
</defs>
</svg>
