<svg width="175" height="175" viewBox="0 0 175 175" fill="none" xmlns="http://www.w3.org/2000/svg">
<g clip-path="url(#clip0)">
<path d="M0.478241 67.3501V73.669L32.9808 84.4443L36.3775 74.8662L0.478241 67.3501Z" fill="#96A6BC"/>
<path d="M139.914 147.921H143.778L135.117 68.9243H127.41L139.914 147.921Z" fill="#96A6BC"/>
<path d="M8.35449 153.398H4.51193L15.1267 74.4006H22.8331L8.35449 153.398Z" fill="#96A6BC"/>
<path d="M164.074 157.167H168.128L157.981 74.1345H149.829L164.074 157.167Z" fill="#B6C2D3"/>
<path d="M32.3438 166.878H27.9705L38.8613 77.9038H47.6079L32.3438 166.878Z" fill="#B6C2D3"/>
<path d="M32.9808 76.3517V79.9213L174.391 77.9037V74.3341L128.174 64.9556L0.478241 67.3501L32.9808 76.3517Z" fill="#B6C2D3"/>
<path d="M32.9809 84.4443L174.391 80.3648V74.4006L32.9809 76.4182V84.4443Z" fill="#96A6BC"/>
<path d="M55.314 71.7398L63.4237 74.866L116.498 73.8461L116.477 72.7597L63.4662 73.4026L55.2503 70.3208L55.314 71.7398Z" fill="#DCE1E5"/>
<path d="M63.6364 73.4471L116.541 72.8041L107.73 70.6757L55.2295 70.2766L63.6364 73.4471Z" fill="white"/>
<path d="M67.1184 29.9919C67.1184 29.9919 62.2144 57.2185 59.4758 68.2377C59.2635 69.1246 77.6271 68.6368 77.6271 68.6368L73.8482 30.125L67.1184 29.9919Z" fill="#96A6BC"/>
<path d="M67.5851 29.8137C67.5851 29.8137 63.0632 55.9095 60.0486 67.9708C59.815 68.8577 77.7328 68.2147 77.7328 68.2147L74.2087 29.8581L67.5851 29.8137Z" fill="#CCD6E2"/>
<path d="M87.6471 69.2345C88.0717 69.301 88.4326 69.9218 87.732 69.9218L65.4409 70.0105C64.7616 70.0105 64.0822 69.8996 63.233 69.7223L59.8787 68.6359C59.2206 68.5028 59.3268 67.7933 59.7301 67.8377L78.858 68.3476C79.4312 68.3476 80.7262 68.4585 81.809 68.6137L87.6471 69.2345Z" fill="#96A6BC"/>
<path d="M86.713 68.9464C88.093 69.1238 88.1991 69.3233 87.5198 69.3233L65.1862 69.279C64.5068 69.279 64.0823 69.1238 63.2331 68.9464L59.7514 67.8822C59.3905 67.8157 60.1123 67.7492 60.2822 67.7492L78.7095 67.7048C79.2827 67.7048 79.6648 67.727 80.7475 67.86L86.713 68.9464Z" fill="#E4E9EF"/>
<path d="M103.845 56.4648C103.909 57.6177 102.38 58.6597 101.234 58.7262L36.0804 59.1032C34.6793 59.1697 33.5116 58.1941 33.4904 56.9082L32.1954 3.25322C32.1742 2.03379 33.7876 0.503962 35.1675 0.548305L98.4318 3.09802C99.5782 3.14237 100.534 4.0514 100.597 5.18214L103.845 56.4648Z" fill="#96A6BC"/>
<path d="M104.058 55.7544C104.121 56.9073 103.23 57.8829 102.083 57.9272L36.9934 58.282C35.5922 58.3485 34.4246 57.3729 34.4033 56.087L33.1083 2.47638C33.0659 1.25695 34.1698 0.303579 35.5497 0.347922L99.2811 2.36553C100.427 2.40987 101.383 3.3189 101.447 4.42747L104.058 55.7544Z" fill="#B6C2D3"/>
<path d="M101.086 52.5174C101.149 53.5151 100.343 54.3576 99.3235 54.402L41.5152 54.4685C40.2839 54.5128 39.2437 53.6703 39.2224 52.5839L38.0336 6.04601C37.9911 5.00395 38.9677 4.16143 40.1778 4.20578L96.8184 5.89081C97.8374 5.91298 98.7078 6.73332 98.7503 7.6867L101.086 52.5174Z" fill="white"/>
<path d="M77.4145 30.9224C76.3743 30.4789 73.1898 29.9912 72.8289 25.8673C72.8289 25.8673 72.3406 23.2954 72.3406 22.9628L70.154 22.8076H70.1328H70.1115L68.0098 22.9628C68.0098 23.6501 67.1394 29.2373 67.1394 29.2373L68.8802 33.8047L70.897 39.9018C70.897 39.924 78.4972 31.1219 77.4145 30.9224Z" fill="#CC9483"/>
<path d="M70.7059 23.2288H70.6847H70.6635L68.0097 23.384C68.0097 23.6057 67.8187 25.4459 67.7338 26.3549C68.4131 27.3748 70.8545 31.3657 76.2044 34.0928C77.7329 34.8688 77.7754 31.4765 78.4335 30.7227C76.8625 30.4345 73.9753 29.082 73.3172 27.7739C72.5529 26.2219 72.8713 23.7609 72.8713 23.5835L70.7059 23.2288Z" fill="url(#paint0_linear)"/>
<path d="M69.9416 12.2097C70.1327 12.2097 70.3025 12.2319 70.4724 12.254V11.8328C75.1004 11.8993 76.2468 15.9123 75.9072 20.014C75.4826 25.1135 72.383 27.508 70.5998 27.508C70.5785 27.508 70.5785 27.508 70.5573 27.508C70.4299 27.5523 70.3025 27.5523 70.1752 27.5523C68.1796 27.5523 65.5683 25.4682 64.6979 20.4796C63.9974 16.3336 64.9527 12.1653 69.9416 12.2097Z" fill="#D8A798"/>
<path d="M64.0823 49.0143C65.356 46.2429 64.4856 40.8995 63.318 39.5027C63.318 39.5027 64.4432 36.3544 61.3224 31.8092C61.7682 30.5233 65.9292 29.5699 65.9292 29.5699C66.736 31.1663 69.1562 29.8803 69.8567 30.5455C70.4299 31.0998 69.9204 33.4943 70.7271 33.8268C71.0031 33.4056 71.0881 32.5187 71.3003 30.6563C72.0222 29.8582 73.9965 30.4346 74.5485 29.2595C74.5485 29.2595 78.4335 31.1441 80.79 31.7206C77.7754 33.3169 78.7944 39.2589 78.7944 39.2589C77.7754 40.567 76.7139 46.5976 77.5419 48.2161C78.3698 49.8568 62.9571 51.4532 64.0823 49.0143Z" fill="#6597EF"/>
<path d="M74.2726 16.8658C75.6737 20.8345 74.591 22.5639 73.763 23.2069C74.039 23.3399 75.1217 23.6725 75.143 22.6969C75.0793 23.2069 74.8033 24.2046 73.6144 24.5815C74.2301 25.2245 75.1642 25.4462 75.3553 25.1801C75.2067 25.424 74.2089 25.8675 74.2089 25.8675C74.2089 25.8675 75.2916 26.976 77.3933 25.4018C79.3677 23.9385 80.2805 22.8078 79.8772 19.1938C79.1766 20.4133 78.7732 20.635 78.5397 20.2359C79.0705 20.1916 79.6437 18.7504 79.6437 18.7504C79.6437 18.7504 78.4336 18.7948 78.1151 16.6663C77.3509 15.3582 76.629 13.1854 74.1239 11.9216C73.0837 11.4116 74.2726 16.8658 74.2726 16.8658Z" fill="#BA784A"/>
<path d="M68.2646 15.8679C68.2646 15.8679 68.0311 13.7395 68.0311 13.4734C68.0098 13.2073 67.5852 10.6798 65.2075 12.8969C65.0589 13.03 65.0377 13.0965 64.8891 13.2295C63.3181 14.4711 63.0633 16.3779 62.4477 17.4421C61.7471 18.6394 60.537 18.8167 60.537 18.8167C60.537 18.8167 61.1102 19.5484 61.6622 19.5927C61.6197 19.7036 60.7281 19.6371 60.2823 19.0828C59.9426 22.7411 60.9828 24.2931 62.9572 25.4682C65.1651 27.0423 66.4176 26.1555 66.4176 26.1555C66.4176 26.1555 65.4835 25.6899 65.3137 25.4682C65.526 25.7564 66.6299 26.0003 67.2456 25.3573C66.4601 25.1134 65.9081 24.7365 65.6109 24.3596C65.9293 24.537 66.3752 24.4039 66.5662 24.3374C65.7383 23.7166 64.9315 21.7212 65.9506 18.1516C66.545 16.91 67.5216 17.4199 68.2646 15.8679Z" fill="#A0593A"/>
<path d="M67.3516 15.491C69.4746 18.8388 73.1048 15.8014 74.3998 17.952C75.0155 18.9719 76.268 21.2999 75.4189 23.5392C74.9093 24.9138 76.5653 19.8587 76.5653 19.8587C76.5653 19.8587 78.1575 14.7593 74.3574 12.0765C72.659 10.8793 68.965 10.3693 67.0968 12.1874C66.9482 12.3426 67.3516 15.491 67.3516 15.491Z" fill="#BA784A"/>
<path d="M76.2043 29.7695C78.2424 30.4568 80.1318 30.9446 80.6838 31.4102C80.6838 31.4102 79.2826 41.6313 79.0491 42.5403C78.8156 43.4493 79.4525 49.3691 79.8983 51.032C80.3441 52.6727 71.1092 52.9609 71.088 51.8745C71.0667 50.7659 70.536 42.5625 70.536 42.5625C70.536 42.5625 73.7841 34.3147 74.4635 33.1174C75.1428 31.9202 76.2043 29.7695 76.2043 29.7695Z" fill="#545A66"/>
<path d="M74.6122 28.5056L77.3509 30.0798V33.4055L75.4827 32.8956L76.162 35.3344C76.162 35.3344 76.4168 35.0684 74.2089 37.2855C73.3597 38.128 70.4512 43.7152 70.4512 43.7152C70.4512 43.7152 71.173 40.1013 71.9161 37.6624C72.744 34.9575 73.2535 33.0286 73.5083 31.6983C73.7631 30.3902 74.6122 28.5056 74.6122 28.5056Z" fill="#3B404C"/>
<path d="M73.8692 27.7075L71.1942 30.5233L74.039 33.6495L74.9519 28.6831L73.8692 27.7075Z" fill="#6597EF"/>
<path d="M65.1861 29.5698C63.1056 30.3015 60.9826 30.7006 60.4094 31.1883C60.4094 31.1883 61.5771 42.651 61.8318 43.56C62.0866 44.4691 62.5112 48.3047 62.0866 49.9897C61.662 51.6748 71.3639 52.9386 71.3639 51.8521C71.3639 50.7436 71.3002 42.5845 71.3002 42.5845C71.3002 42.5845 67.8823 34.4032 67.1817 33.2503C66.4811 32.0752 65.1861 29.5698 65.1861 29.5698Z" fill="#545A66"/>
<path d="M66.9483 28.6165L64.2096 30.235L64.2733 33.605L66.1628 33.0507L65.5046 35.5339C65.5046 35.5339 65.2286 35.2679 67.5002 37.4185C68.3706 38.261 71.4065 43.7374 71.4065 43.7374C71.4065 43.7374 70.621 40.1678 69.8355 37.7289C68.9438 35.024 68.4131 33.0951 68.1371 31.7648C67.8399 30.501 66.9483 28.6165 66.9483 28.6165Z" fill="#3B404C"/>
<path d="M70.2175 30.4124L67.2666 28.04L66.0353 29.2595L67.2666 33.339L70.2175 30.4124Z" fill="#6597EF"/>
<path d="M41.9611 53.9808L98.8777 53.9143C99.8967 53.87 100.682 53.1383 100.618 52.2736L100.47 49.9678L39.6258 50.1008L39.6895 52.3401C39.7319 53.2713 40.751 54.003 41.9611 53.9808Z" fill="#96A6BC"/>
<path d="M66.0566 51.7858L75.4401 51.4976L76.8413 37.9951L64.7829 38.1947L66.0566 51.7858Z" fill="#E5E5E5"/>
<path d="M83.5075 49.8125C83.4013 49.8347 77.8392 49.0143 77.733 49.0143C76.7989 49.0808 76.162 48.9922 75.4827 48.6596C74.5486 48.2162 73.6782 47.8614 72.6379 47.8171C71.5977 47.7727 71.4278 47.684 71.3854 47.5067C71.3429 47.3071 72.001 47.3293 72.6167 47.2406C73.2111 47.1519 74.4 47.418 74.2089 47.285C74.0178 47.1519 71.7251 47.1076 71.3854 47.0411C71.0457 46.9746 70.2814 46.7085 70.706 46.5976C71.1094 46.4646 73.3597 46.3759 73.6782 46.3538C73.9966 46.3316 70.9396 46.2872 70.7273 46.2429C70.4725 46.1764 70.5787 45.9325 71.0669 45.866C71.4066 45.8216 73.4659 45.733 73.6994 45.733C73.8056 45.733 73.0625 45.5778 72.7865 45.5778C72.2983 45.5556 72.1072 45.5334 71.8312 45.5334C71.3217 45.5112 70.9608 45.223 71.6401 45.1565C72.2558 45.09 72.6379 44.957 72.8714 45.0013C73.105 45.0456 73.7631 45.1343 74.4 45.3782C74.6335 45.4669 76.0347 46.1764 76.6928 46.3094C79.0068 46.775 83.8472 46.4868 84.1019 46.5976L83.5075 49.8125Z" fill="#CC9483"/>
<path d="M78.2211 45.9768L77.1809 46.132L76.8624 49.7681L78.4334 50.012L78.2211 46.3981V45.9768Z" fill="white"/>
<path d="M79.962 31.1219C81.4693 30.612 82.5945 31.5875 83.2101 35.4676C83.7621 38.9041 86.1611 44.5579 86.5432 49.6795C86.6918 51.4975 79.5586 51.0763 78.3273 51.1871C77.9876 49.7903 77.9452 45.7773 77.9452 45.7773C77.9452 45.7773 80.0682 45.8216 80.6201 45.7995C81.2995 45.7995 78.8581 42.6955 78.8581 41.1435C78.8581 40.2344 79.962 31.1219 79.962 31.1219Z" fill="#3B404C"/>
<path d="M55.739 49.3913C55.8239 49.48 61.3012 50.3225 61.4286 50.389C62.2353 50.9212 62.9783 50.9877 63.7426 51.0542C64.8041 51.1429 65.7594 51.2759 66.6723 51.7637C67.5851 52.2515 67.7762 52.2515 67.9036 52.1184C68.031 51.9411 67.4578 51.6528 66.9695 51.2759C66.5024 50.899 65.3348 50.5221 65.5683 50.4999C65.8019 50.4777 67.8187 51.5641 68.1371 51.6972C68.4556 51.8302 69.2411 51.9632 68.9651 51.6528C68.6891 51.3424 66.7996 50.1452 66.5237 49.9678C66.2689 49.7904 68.9226 51.2759 69.1349 51.3424C69.3897 51.4089 69.4109 51.1429 69.0288 50.8546C68.774 50.6329 67.0119 49.5465 66.8421 49.4357C66.7572 49.3913 67.4578 49.6352 67.7338 49.7461C68.1583 49.9678 68.3282 50.0565 68.5829 50.1895C69.0288 50.4112 69.4746 50.3447 68.9438 49.9678C68.4343 49.613 68.1796 49.3026 67.946 49.214C67.7338 49.1253 67.1181 48.8814 66.4175 48.7484C66.1628 48.704 63.3817 48.6597 62.7236 48.438C60.4308 47.662 57.034 46.1765 56.7156 46.1543L55.739 49.3913Z" fill="#CC9483"/>
<path d="M62.3205 47.9502L63.297 48.4158L62.3841 51.9854L60.7707 51.7415L62.1719 48.3493L62.3205 47.9502Z" fill="white"/>
<path d="M61.1102 31.0333C60.261 30.7894 58.9873 30.6564 58.2442 34.1817C57.5012 37.6848 51.2597 49.6574 52.215 50.7216C53.1703 51.7858 60.261 52.6948 61.5136 52.7392C61.832 51.298 62.7874 48.0167 62.7874 48.0167L60.0487 46.9081C60.0275 46.2208 62.2142 44.691 62.1717 43.1168C63.212 36.2436 61.1102 31.0333 61.1102 31.0333Z" fill="#3B404C"/>
<path d="M126.051 149.939C127.177 152.001 130 158.253 128.726 160.293C127.453 162.355 126.794 162.443 124.459 162.599C122.145 162.754 120.956 161.845 119.47 161.246C117.963 160.648 111.679 160.825 109.917 159.694C108.431 158.741 105.055 156.014 108.303 153.619C109.195 152.954 112.507 153.752 118.833 152.511L126.051 149.939Z" fill="#151823"/>
<path d="M125.181 111.826C125.181 111.826 130.637 147.389 130.212 155.726C119.513 156.679 111.997 152.311 112.125 149.85C112.252 147.367 104.779 113.023 104.588 111.161C104.397 109.299 105.268 98.479 110.087 95.9292C126.03 87.4819 125.181 111.826 125.181 111.826Z" fill="#151823"/>
<path d="M105.438 151.07C106.86 154.329 109.153 159.916 108.389 162.177C107.624 164.439 104.843 164.749 101.871 163.663C101.213 163.441 99.1537 162.488 97.2642 163.109C94.8016 163.907 91.1501 164.683 85.6941 162.288C80.9387 160.204 82.8918 154.706 87.6897 155.726C92.2116 156.679 95.2262 152.577 96.6274 151.07C98.0285 149.54 105.438 151.07 105.438 151.07Z" fill="#151823"/>
<path d="M99.2597 94.9092C72.468 87.7257 79.41 105.197 84.123 117.635C86.522 123.932 89.4092 148.01 88.1991 152.245C96.415 155.57 108.856 156.346 108.856 156.346C108.856 156.346 105.395 121.626 103.93 114.575C101.956 105.086 99.2597 94.9092 99.2597 94.9092Z" fill="#151823"/>
<path d="M157.28 170.292L159.17 170.27L154.903 114.642L154.032 108.434L116.647 112.314L118.642 174.261L121.063 174.039L122.23 118.943L150.444 115.906L157.28 170.292Z" fill="#4A75DD"/>
<path d="M88.4326 101.583L113.42 99.9866L154.881 107.015L154.818 113.046C154.754 113.799 155.306 116.637 152.78 116.992C152.78 116.992 122.039 119.63 118.876 118.588L88.3264 112.358L88.4326 101.583Z" fill="#4A75DD"/>
<path d="M115.883 109.631C120.362 110.673 122.209 110.984 126.052 110.562L152.737 109.01C155.497 108.634 155.922 106.062 151.994 105.042L140.318 103.113C137.133 101.805 118.706 100.253 114.481 100.696L93.1032 103.224C88.6025 103.689 90.131 105.663 90.7679 105.796L115.883 109.631Z" fill="#6597EF"/>
<path d="M90.5556 109.809L85.7365 167.255L87.2226 167.055L95.6507 111.405L90.5556 109.809Z" fill="#4A75DD"/>
<path d="M124.693 91.406C124.905 95.8847 128.429 107.414 124.565 108.079C120.702 108.744 102.338 105.995 97.3914 104.199C92.4449 102.403 84.0804 107.347 83.8682 108.456C83.6559 109.587 78.8155 101.605 80.3016 97.1263C81.8089 92.6255 84.9509 87.6591 88.1778 87.8808C91.4047 88.1025 111.658 87.2156 117.029 87.8808C122.4 88.5681 124.693 91.406 124.693 91.406Z" fill="#151823"/>
<path d="M96.988 68.7025C96.8394 69.4785 96.2662 70.8532 96.8182 70.6093C97.3489 70.3432 97.2428 69.9441 97.7523 69.5007C98.2406 69.0573 99.0261 67.5053 99.0261 67.5053C99.0261 67.5053 97.0729 70.2324 97.5824 70.4541C98.092 70.6758 99.7266 68.3256 99.7266 68.3256C99.7266 68.3256 98.7076 70.0106 98.9411 69.9441C99.0261 69.922 99.1747 69.9885 99.3445 69.8776C99.6417 69.7002 100.024 69.2568 100.364 68.9242C100.894 68.4143 103.909 67.2392 103.251 66.7958C102.593 66.3524 101.191 65.6872 99.578 66.5297C97.9433 67.3944 96.988 68.7025 96.988 68.7025Z" fill="#D8A798"/>
<path d="M106.563 65.2215C104.312 65.0441 100.236 65.2658 99.2384 65.6649C98.2406 66.064 96.3087 67.3943 96.3087 67.3943C96.3087 67.3943 94.4193 69.5893 95.2472 69.8553C95.6506 69.9883 96.6059 68.3255 97.1155 68.1038C97.6037 67.8821 99.0049 67.2834 99.0049 67.2834L101.722 67.5495C101.722 67.5495 98.4741 68.0151 98.4954 68.5472C98.5166 69.0793 98.8138 69.0571 100.003 68.9906C101.17 68.9241 102.38 69.5671 103.421 69.6114C105.14 69.6779 105.374 69.3454 106.393 69.0793C107.221 68.8576 111.233 70.1657 111.233 70.1657L111.615 66.0862L106.563 65.2215Z" fill="#CC9987"/>
<path d="M115.224 61.7851C113.144 63.9801 106.117 66.0864 102.041 70.9641C99.7481 70.2325 85.6728 71.0085 85.3332 70.7867C83.9108 69.8999 82.9554 69.2569 81.7453 68.747C80.7263 68.3257 78.9006 68.6361 77.5631 68.6139C77.0111 68.6139 76.1195 68.7913 76.6078 69.0574C77.181 69.3678 78.6883 69.5673 79.5162 69.7225C80.5565 69.8999 77.6056 69.5451 76.8413 69.3456C76.1832 69.1682 72.9987 68.4366 72.9563 68.9243C72.8714 69.8555 76.8625 70.1881 76.5016 70.3211C76.2681 70.3877 72.3194 69.013 72.4043 69.5895C72.5317 70.8311 75.9496 71.0306 76.3318 71.6958C76.3318 71.6958 75.61 71.5184 74.591 71.1193C73.6781 70.7646 72.8714 70.2546 72.6591 70.5207C71.9585 71.3632 77.4782 73.0261 76.7351 73.3586C76.4379 73.4917 73.5295 71.341 73.6569 72.1392C73.6993 72.5383 77.2659 74.7998 77.2659 74.7998C77.2659 74.7998 80.79 76.0857 82.7644 76.2188C83.9532 76.3074 100.385 77.7929 102.869 77.9481C107.815 78.2807 120.447 66.552 120.447 66.552C120.447 66.552 117.305 59.568 115.224 61.7851Z" fill="#D8A798"/>
<path d="M138.365 23.5171C138.152 25.6899 139.638 33.2282 140.997 36.2435C142.334 39.2588 144.84 44.5356 144.84 44.5356L130.446 49.6794C130.446 49.6794 129.639 37.3521 126.03 35.7114C123.801 34.7137 138.365 23.5171 138.365 23.5171Z" fill="#CC9483"/>
<path d="M121.169 20.1026C121.063 21.1003 121.445 23.1623 121.423 24.2265C121.402 25.069 120.765 25.9337 120.765 26.7762C120.85 32.4965 122.06 36.7312 124.035 36.9751C125.181 37.1303 128.365 38.5271 130.382 37.8176C133.864 36.5982 137.155 32.2082 138.471 28.3947C140.551 22.3419 138.365 15.5353 132.42 14.338C125.924 13.0077 121.763 13.6951 121.169 20.1026Z" fill="#CC9483"/>
<path d="M119.534 13.7394C119.407 14.9367 119.895 15.1363 120.213 15.1363C119.364 13.8946 120.022 11.4336 120.022 11.4336C122.888 14.8037 131.274 5.82423 139.49 11.9657C140.318 12.5865 139.299 12.9634 139.978 13.4956C145.625 17.9299 145.795 20.7678 144.373 24.9582C142.78 29.6586 142.08 31.521 142.589 33.8933C142.993 35.8222 131.019 35.7557 131.019 35.7557C131.019 35.7557 128.514 34.6028 127.75 32.6961C127.24 31.4101 125.775 29.0378 125.967 28.6165C127.75 24.3596 125.139 23.118 124.311 25.0026C123.674 26.4437 123.928 27.3306 123.928 27.3306L122.549 26.5546C122.549 26.5546 123.525 21.9429 122.549 19.9253C122.315 19.4375 121.445 18.1294 120.532 16.7769C118.727 16.4 119.704 12.1209 119.534 13.7394Z" fill="#151823"/>
<path d="M116.116 47.7727C116.116 47.7727 117.071 46.3981 122.23 44.3583C125.797 42.9615 129.342 41.6534 129.342 41.6534L141.995 39.281C147.599 42.6511 151.76 44.5578 152.143 45.5112C157.259 58.3485 147.111 66.818 147.663 71.8731C149.913 92.5147 143.905 99.787 143.226 102.403C142.908 103.689 134.458 97.9689 127.346 98.0798C123.483 99.3435 111.785 88.6125 110.49 87.504C109.853 85.7746 114.948 87.8587 117.814 72.9151C118.175 70.9197 116.116 47.7727 116.116 47.7727Z" fill="#AA0031"/>
<path d="M126.625 43.294L127.58 40.6778C127.58 40.6778 138.683 36.8643 143.566 37.9728C145.243 39.3475 146.432 42.0302 146.432 42.0302L126.625 43.294Z" fill="#AA0031"/>
<path d="M119.852 46.1985C116.519 45.5777 113.802 51.431 110.936 56.6635C108.07 61.8959 103.93 69.9442 101.786 69.9442C99.6419 69.9442 89.027 69.7003 87.8169 70.1881C86.6281 70.6759 85.5454 76.4183 86.2672 77.1721C86.989 77.9259 105.841 81.6507 109.662 78.9236C113.484 76.1744 122.782 67.2836 123.037 61.3195C123.27 55.3332 119.852 46.1985 119.852 46.1985Z" fill="#AA0031"/>
<path d="M122.803 104.177C122.761 107.281 125.181 109.276 129.469 108.855L150.381 107.658C155.306 106.86 154.605 106.305 155.178 103.113L159.807 56.5526C160.698 51.6527 158.915 46.1099 153.225 46.775L130.467 47.684C124.863 48.327 126.179 50.4555 126.115 55.2223L122.803 104.177Z" fill="#4A75DD"/>
<path d="M127.814 48.3714C126.073 48.2384 123.44 53.3379 123.143 56.9075C122.846 60.4549 119.067 103.29 120.511 106.15C121.954 109.01 125.436 109.454 125.287 108.212C123.844 96.6388 128.811 53.4931 129.809 51.1872C130.828 48.837 127.814 48.3714 127.814 48.3714Z" fill="#6597EF"/>
</g>
<defs>
<linearGradient id="paint0_linear" x1="75.4333" y1="36.7906" x2="70.5767" y2="21.2012" gradientUnits="userSpaceOnUse">
<stop offset="0.25" stop-color="white"/>
<stop offset="0.6429" stop-color="#C6C0B9"/>
</linearGradient>
<clipPath id="clip0">
<rect width="173.913" height="173.913" fill="white" transform="translate(0.478241 0.3479)"/>
</clipPath>
</defs>
</svg>
