<svg width="227" height="157" viewBox="0 0 227 157" fill="none" xmlns="http://www.w3.org/2000/svg">
<path d="M121.383 23.679C121.383 23.679 124.443 21.9061 125.273 21.0116C125.875 19.5422 126.737 15.8526 126.656 13.6165L129.471 13.1693H129.487L129.52 13.1533V13.1693L137.12 14.8144C136.16 21.363 136.29 24.1262 136.29 24.1262L127.144 31.5054L121.383 23.679Z" fill="#D8A798"/>
<path d="M138.584 15.7257C138.064 17.7062 135.216 19.9743 136.908 24.0152C136.03 25.3729 130.887 30.8833 129.13 30.9152C127.681 30.9472 122.002 24.9736 121.042 24.0152C125.142 23.6798 124.817 21.1243 125.549 20.4215C126.379 17.4986 126.396 13.8409 127.144 13.3298L138.584 15.7257Z" fill="url(#paint0_linear)"/>
<path d="M135.753 23.0724C135.249 23.6953 133.263 25.3724 131.75 25.2126C130.399 24.5578 126.331 21.8425 125.843 20.7883C125.436 21.2196 121.725 24.446 121.725 24.446L120.847 60.8946H133.491V61.0064L142.214 60.8946L142.409 27.7682L135.753 23.0724Z" fill="white"/>
<path d="M140.098 24.0146L133.198 36.8083C133.198 36.8083 125.468 36.3132 123.613 30.1C121.758 23.8868 125.029 21.2195 125.029 21.2195C125.029 21.2195 129.065 23.9028 130.041 24.2223C131.017 24.5417 134.939 25.5 137.201 22.3216C137.82 21.4431 140.098 24.0146 140.098 24.0146Z" fill="url(#paint1_linear)"/>
<path d="M131.522 26.9373L133.149 26.9053L132.58 24.094L130.399 24.1259L129.651 25.1323L131.522 26.9373Z" fill="#AA0031"/>
<path d="M131.376 26.5062L130.92 53.7388L134.94 56.2464L133.052 26.4583L131.376 26.5062Z" fill="#AA0031"/>
<path d="M133.833 26.8259H132.938L132.498 24.0944L134.728 24.0625L135.444 24.9091L133.833 26.8259Z" fill="#D1203D"/>
<path d="M133.898 26.3147L137.755 53.4994L134.875 56.1348L132.824 26.3307L133.898 26.3147Z" fill="#D1203D"/>
<path d="M133.898 24.0146L137.136 27.7202L138.65 22.657L136.632 21.1077L133.898 24.0146Z" fill="white"/>
<path d="M125.566 18.9673C125.68 19.9895 128.837 22.8166 131.831 24.2061C131.831 24.2061 130.92 24.27 130.301 25.0846C129.618 25.979 128.023 28.5985 128.023 28.5985C128.023 28.5985 121.937 23.2478 122.881 22.4492C123.857 21.6506 125.566 18.9673 125.566 18.9673Z" fill="white"/>
<path d="M146.184 54.6975C146.103 51.7427 146.07 42.4948 146.494 41.233C146.917 39.9711 148.056 30.1323 148.056 30.1323C148.056 30.1323 148.495 26.283 147.844 26.1392C141.433 24.7496 140.895 23.5517 138.454 22.1302L138.666 22.8649C137.885 27.2892 133.898 30.5316 132.905 31.2823C125.436 26.7142 123.906 21.0601 123.906 21.0601C118.812 23.6316 116.225 25.1649 112.758 25.8357C111.538 26.0753 110.61 29.4135 110.366 30.6594C109.764 33.4864 113.588 35.4031 113.588 35.4031C113.588 35.4031 114.776 40.3704 115.199 41.6482C115.639 42.926 115.362 49.6343 115.281 52.5892C115.167 56.2947 113.963 69.344 113.816 77.6815C113.816 77.953 114.321 78.6079 115.053 78.6878C115.557 78.7357 129.667 78.3364 134.028 78.6398C134.891 78.7037 135.33 77.7614 135.33 77.7614L136.567 78.3364L147.47 77.6975C148.202 77.4898 148.365 77.0107 148.365 76.7711C148.105 70.1426 146.233 56.3746 146.184 54.6975Z" fill="#151823"/>
<path d="M125.143 13.7928C126.168 16.6997 126.477 19.3351 128.023 20.7726C128.951 21.6351 131.652 23.2483 133.54 22.9448C136.062 22.5455 136.957 21.2358 137.771 20.0539C138.389 19.1594 138.406 16.4282 138.666 13.9046C138.698 13.6011 138.601 12.5629 138.633 12.2594C138.682 11.8921 138.731 11.0456 138.78 10.6622C139.431 6.04627 137.331 2.66016 131.489 3.0435C122.555 3.66641 123.597 9.43237 125.143 13.7928Z" fill="#D8A798"/>
<path d="M125.663 10.7737C124.915 10.7417 123.759 11.157 123.776 12.1314C123.808 13.1217 124.834 16.0448 125.598 15.917C126.38 15.7733 125.663 10.7737 125.663 10.7737Z" fill="#D8A798"/>
<path d="M138.406 10.5181C139.431 9.47985 139.887 10.2306 139.464 11.8439C139.106 13.2815 139.22 15.5177 138.292 15.3899C137.787 15.326 138.406 10.5181 138.406 10.5181Z" fill="#D8A798"/>
<path d="M134.972 6.078C138.894 4.16134 138.601 8.01064 138.878 10.2308C139.61 9.99119 139.447 10.5662 139.447 10.5662C139.447 10.5662 139.642 9.20855 139.952 7.69119C140.651 4.28912 136.339 -0.790031 132.824 1.50996C129.276 3.8419 134.972 6.078 134.972 6.078Z" fill="#CCD4DD"/>
<path d="M135.72 6.39722C134.939 7.40347 130.139 7.1 128.918 6.39722C126.868 5.21528 125.663 7.69097 125.549 8.40972C125.452 9.14444 126.005 12.4986 126.005 12.4986L124.703 11.6521C124.703 11.6521 123.922 11.716 123.792 12.1792C123.711 12.4347 123.206 11.668 122.555 8.32986C121.644 3.72986 129.602 -0.614576 131.978 0.29584C133.735 0.966672 134.614 0.647228 135.362 2.26042C137.022 5.88611 135.72 6.39722 135.72 6.39722Z" fill="#BFBFCB"/>
<path d="M133.507 7.24467C131.262 7.62804 132.498 6.76547 129.569 6.60574C127.795 6.5099 126.982 8.21905 126.982 8.21905C126.982 8.21905 128.381 5.16814 130.855 6.06264C133.328 6.95715 133.67 6.07862 133.67 6.07862C133.67 6.07862 129.179 4.64101 127.681 6.60574C128.284 5.0723 130.383 3.87429 132.531 4.78478C132.954 4.70491 130.464 3.87429 130.106 4.14584C130.611 3.23536 134.175 2.11722 135.509 3.76248C136.86 5.40774 136.111 5.7911 135.542 6.20641C134.956 6.60574 133.507 7.24467 133.507 7.24467Z" fill="#CCD4DD"/>
<path d="M132.026 11.9396C132.124 11.3965 133.458 11.109 134.207 11.5243C134.321 11.8597 134.191 12.0514 134.191 12.0514C134.191 12.0514 133.1 11.4125 132.124 12.2591C132.026 11.9396 132.026 11.9396 132.026 11.9396Z" fill="#96A6BC"/>
<path opacity="0.37" d="M134.093 11.4925C134.321 12.6107 134.451 14.1441 135.574 14.3677C136.697 14.5914 138.91 14.5754 138.975 12.1155C138.992 10.6939 138.747 10.9335 137.364 10.8856C135.981 10.8696 134.093 11.4925 134.093 11.4925Z" fill="white"/>
<path d="M134.093 11.4927C134.435 11.2051 137.104 10.055 139.024 11.0614L138.975 12.1156L138.552 12.0677C138.552 12.0677 138.633 11.3649 138.031 11.1572C137.771 11.0614 134.337 11.3489 134.223 12.1156L134.093 11.4927Z" fill="#96A6BC"/>
<path opacity="0.37" d="M132.205 11.6681C132.157 12.8022 132.287 14.3356 131.082 14.7669C129.878 15.1982 127.453 15.5655 126.949 13.1695C126.672 11.7639 126.982 11.9715 128.495 11.6681C130.008 11.3965 132.205 11.6681 132.205 11.6681Z" fill="white"/>
<path d="M132.205 11.6685C131.782 11.4449 128.625 10.8059 126.689 12.1477L126.933 13.186L127.372 13.0582C127.372 13.0582 127.16 12.3873 127.795 12.0679C128.072 11.9241 131.896 11.5886 132.173 12.3234L132.205 11.6685Z" fill="#96A6BC"/>
<path d="M127.145 12.946C126.933 12.7543 124.476 11.4126 123.776 11.5883C123.857 11.3327 123.922 11.2369 124.085 11.189C124.899 10.9174 127.112 11.9397 127.112 11.9397L127.145 12.946Z" fill="#96A6BC"/>
<path d="M139.577 22.8962C140.293 23.5032 138.747 25.7395 139.17 26.2346C139.577 26.7458 145.338 27.6083 146.07 28.2153C146.786 28.8223 147.6 26.2187 147.6 26.2187C147.6 26.2187 144.036 25.8193 141.807 24.6054C140.066 23.663 139.577 22.8962 139.577 22.8962Z" fill="#282A35"/>
<path d="M122.441 21.7786C121.888 22.2577 114.402 25.4841 113.718 25.548C114.548 26.4265 116.078 27.1133 116.013 27.9917C121.725 25.0848 123.727 24.6855 123.727 24.6855L122.441 21.7786Z" fill="#282A35"/>
<path d="M190.774 118.346H58.2419V128.473H190.774V118.346Z" fill="#96A6BC"/>
<path d="M190.725 62.3477H58.2419V120.726H190.725V62.3477Z" fill="#B6C2D3"/>
<path d="M199.09 60.8782L171.945 100.409H58.2419V57.9233L199.09 60.8782Z" fill="url(#paint2_linear)"/>
<path d="M52.9691 55.9746H195.672L199.936 57.6518V61.3736H47.9731V57.6518L52.9691 55.9746Z" fill="#B6C2D3"/>
<path d="M199.92 57.6519H47.7453V63.913H199.92V57.6519Z" fill="#96A6BC"/>
<path opacity="0.8" d="M68.1362 56.6775C67.534 56.6615 67.1923 55.9108 67.176 55.0643V43.0851C67.1923 42.2386 68.1524 41.0886 68.7871 40.6893C68.9336 40.4817 68.9661 40.5775 68.9824 40.1463C68.9824 40.0344 68.9824 39.9067 68.9661 39.715L68.9498 39.5872H69.08C69.9751 39.5553 70.3331 39.5393 70.3656 39.6671L70.4958 39.5393C70.4958 39.5393 70.4958 39.5393 70.5447 39.5393C70.5935 39.5393 70.5935 39.5393 70.7237 39.6671L70.5935 39.5393C70.7562 39.5393 71.1142 39.5553 72.0093 39.5872H72.172L72.1395 39.7469C72.0906 39.9386 72.0744 40.0983 72.0744 40.2101C72.0744 40.4976 72.172 40.5136 72.3185 40.6733C73.002 41.2004 73.9296 42.2546 73.9458 43.0851V55.0643C73.9458 55.9108 73.5878 56.6615 72.9857 56.6775H68.1362ZM69.259 40.1463C69.2753 40.5935 69.1126 40.7053 68.9824 40.865C68.3803 41.2324 67.4364 42.4143 67.4527 43.0851V55.0643C67.4527 55.8629 67.8432 56.4219 68.1524 56.4219H73.0182C73.3437 56.4219 73.718 55.8629 73.718 55.0643V43.0851C73.7343 42.4303 72.823 41.3282 72.172 40.865L72.2534 40.7532L72.1557 40.8331C72.0744 40.7213 71.8465 40.5775 71.8465 40.1942C71.8465 40.0824 71.8628 39.9706 71.8954 39.8108C71.2119 39.7789 70.8701 39.7629 70.626 39.6831L70.5935 39.715L70.6423 39.7629C70.6423 39.7629 70.6423 39.7629 70.5935 39.7629C70.5609 39.7629 70.5447 39.7629 70.5772 39.731L70.5284 39.7949C70.3819 39.7949 70.0564 39.8108 69.259 39.8428C69.259 39.9546 69.259 40.0664 69.259 40.1463ZM70.5772 39.731C70.5772 39.731 70.5935 39.715 70.6098 39.699C70.5772 39.6831 70.5447 39.6671 70.5121 39.6671L70.5772 39.731Z" fill="white"/>
<path d="M72.2534 40.7854C72.0907 40.5938 71.8628 40.5299 72.0418 39.7313C71.1468 39.6993 70.7888 39.6833 70.626 39.6833C70.626 39.6833 70.626 39.6833 70.5772 39.6833C70.5284 39.6833 70.5284 39.6833 70.5284 39.6833C70.3819 39.6833 70.0076 39.6993 69.1126 39.7313C69.1777 40.6097 69.0638 40.5778 68.901 40.7854C68.364 41.009 67.3062 42.3507 67.3062 43.1174V55.0966C67.3062 55.9271 67.6805 56.598 68.1362 56.598H73.002C73.4576 56.598 73.8319 55.9271 73.8319 55.0966V43.1174C73.8482 42.3667 72.7904 41.025 72.2534 40.7854Z" fill="#8ACDFF"/>
<path opacity="0.39" d="M73.5065 45.5449L73.5228 54.8887C73.5228 55.6554 73.1811 56.2783 72.7742 56.2783H68.3803C67.9572 56.2783 67.6318 55.6554 67.6318 54.8887L67.5341 45.513C67.5341 45.497 70.0565 45.8484 73.5065 45.5449Z" fill="white"/>
<path opacity="0.7" d="M73.4741 45.4814C73.4741 45.5772 72.1559 45.657 70.5123 45.657C68.8849 45.657 67.5505 45.5772 67.5505 45.4814C67.5505 45.3855 68.8686 45.3057 70.5123 45.3057C72.1559 45.3057 73.4741 45.3855 73.4741 45.4814Z" fill="white"/>
<path d="M69.3243 54.7125V42.9091C69.3243 42.1584 70.3659 40.8327 70.8866 40.6091C71.0331 40.4334 71.1307 40.4334 71.0982 39.7945C70.8866 39.7945 70.7727 39.7786 70.6913 39.7786C70.6913 39.7786 70.6913 39.7786 70.6425 39.7786C70.5937 39.7786 70.5937 39.7786 70.5937 39.7786C70.4472 39.7786 70.0892 39.7945 69.1942 39.8265C69.2593 40.689 69.1616 40.673 68.9989 40.8647C68.4781 41.0723 67.4366 42.414 67.4366 43.1487V54.9521C67.4366 55.7667 67.7946 56.4216 68.2503 56.4216H73.051C73.2137 56.4216 73.3602 56.3098 73.4904 56.166H70.1543C69.6824 56.182 69.3243 55.5271 69.3243 54.7125Z" fill="#66BCF7"/>
<path opacity="0.4" d="M72.0906 39.8265L71.0654 42.2863L68.9173 41.7432L69.2265 39.7786L72.0906 39.8265Z" fill="url(#paint3_linear)"/>
<path d="M72.2373 40.0347V38.9325C72.2373 38.5492 72.042 38.2297 71.7979 38.2297H69.2592C69.0314 38.2297 68.8361 38.5492 68.8361 38.9325V40.0347H72.2373Z" fill="#CDE3E8"/>
<path d="M72.0094 39.699C72.0094 39.747 71.9769 39.7949 71.928 39.7949C71.8792 39.7949 71.8467 39.747 71.8467 39.699V38.7246C71.8467 38.6767 71.8792 38.6448 71.928 38.6448C71.9769 38.6448 72.0094 38.6767 72.0094 38.7246V39.699Z" fill="white"/>
<path d="M71.7002 39.699C71.7002 39.747 71.6677 39.7949 71.6188 39.7949C71.5863 39.7949 71.5375 39.747 71.5375 39.699V38.7246C71.5375 38.6767 71.57 38.6448 71.6188 38.6448C71.6677 38.6448 71.7002 38.6767 71.7002 38.7246V39.699Z" fill="white"/>
<path d="M71.391 39.699C71.391 39.747 71.3585 39.7949 71.3096 39.7949C71.2771 39.7949 71.2283 39.747 71.2283 39.699V38.7246C71.2283 38.6767 71.2608 38.6448 71.3096 38.6448C71.3585 38.6448 71.391 38.6767 71.391 38.7246V39.699Z" fill="white"/>
<path d="M71.0657 39.699C71.0657 39.747 71.0332 39.7949 70.9844 39.7949C70.9518 39.7949 70.903 39.747 70.903 39.699V38.7246C70.903 38.6767 70.9355 38.6448 70.9844 38.6448C71.0332 38.6448 71.0657 38.6767 71.0657 38.7246V39.699Z" fill="white"/>
<path d="M70.7562 39.699C70.7562 39.747 70.7237 39.7949 70.6748 39.7949C70.6423 39.7949 70.5935 39.747 70.5935 39.699V38.7246C70.5935 38.6767 70.626 38.6448 70.6748 38.6448C70.7237 38.6448 70.7562 38.6767 70.7562 38.7246V39.699Z" fill="white"/>
<path d="M70.4473 39.699C70.4473 39.747 70.4147 39.7949 70.3659 39.7949C70.3171 39.7949 70.2845 39.747 70.2845 39.699V38.7246C70.2845 38.6767 70.3171 38.6448 70.3659 38.6448C70.4147 38.6448 70.4473 38.6767 70.4473 38.7246V39.699Z" fill="white"/>
<path d="M70.1379 39.699C70.1379 39.747 70.1053 39.7949 70.0728 39.7949C70.0239 39.7949 69.9914 39.747 69.9914 39.699V38.7246C69.9914 38.6767 70.0239 38.6448 70.0728 38.6448C70.1053 38.6448 70.1379 38.6767 70.1379 38.7246V39.699Z" fill="white"/>
<path d="M69.8289 39.699C69.8289 39.747 69.7963 39.7949 69.7475 39.7949C69.715 39.7949 69.6824 39.747 69.6824 39.699V38.7246C69.6824 38.6767 69.715 38.6448 69.7475 38.6448C69.7963 38.6448 69.8289 38.6767 69.8289 38.7246V39.699Z" fill="white"/>
<path d="M69.5196 39.699C69.5196 39.747 69.4871 39.7949 69.4383 39.7949C69.3894 39.7949 69.3569 39.747 69.3569 39.699V38.7246C69.3569 38.6767 69.3894 38.6448 69.4383 38.6448C69.4871 38.6448 69.5196 38.6767 69.5196 38.7246V39.699Z" fill="white"/>
<path d="M69.2104 39.699C69.2104 39.747 69.1778 39.7949 69.129 39.7949C69.0802 39.7949 69.0476 39.747 69.0476 39.699V38.7246C69.0476 38.6767 69.0802 38.6448 69.129 38.6448C69.1616 38.6448 69.2104 38.6767 69.2104 38.7246V39.699Z" fill="white"/>
<path opacity="0.8" d="M76.2567 56.6775C75.6546 56.6615 75.3128 55.9108 75.2966 55.0643V43.0851C75.3128 42.2386 76.273 41.0886 76.9077 40.6893C77.0541 40.4817 77.0867 40.5775 77.1029 40.1463C77.1029 40.0344 77.1029 39.9067 77.0867 39.715L77.0704 39.5872H77.2006C78.0956 39.5553 78.4537 39.5393 78.4862 39.6671L78.6164 39.5393C78.6164 39.5393 78.6164 39.5393 78.6652 39.5393C78.714 39.5393 78.714 39.5393 78.8442 39.6671L78.714 39.5393C78.8768 39.5393 79.2348 39.5553 80.1298 39.5872H80.2926L80.26 39.7469C80.2112 39.9386 80.1949 40.0983 80.1949 40.2101C80.1949 40.4976 80.2926 40.5136 80.439 40.6733C81.1225 41.2004 82.0501 42.2546 82.0664 43.0851V55.0643C82.0664 55.9108 81.7084 56.6615 81.1062 56.6775H76.2567ZM77.3796 40.1463C77.3959 40.5935 77.2494 40.7053 77.1029 40.865C76.5008 41.2324 75.557 42.4143 75.5732 43.0851V55.0643C75.5732 55.8629 75.9638 56.4219 76.273 56.4219H81.1388C81.4643 56.4219 81.8386 55.8629 81.8386 55.0643V43.0851C81.8548 42.4303 80.9435 41.3282 80.2926 40.865L80.3739 40.7532L80.2763 40.8331C80.1949 40.7213 79.9671 40.5775 79.9671 40.1942C79.9671 40.0824 79.9834 39.9706 80.0159 39.8108C79.3324 39.7789 78.9907 39.7629 78.7303 39.6831L78.6978 39.715L78.7628 39.7629C78.7628 39.7629 78.7628 39.7629 78.6978 39.7629C78.6652 39.7629 78.6489 39.7629 78.6815 39.731L78.6489 39.7789C78.5025 39.7789 78.177 39.7949 77.3633 39.8268C77.3633 39.9546 77.3796 40.0664 77.3796 40.1463ZM78.6978 39.731C78.714 39.731 78.714 39.715 78.7303 39.699C78.6978 39.6831 78.6652 39.6671 78.6327 39.6671L78.6978 39.731Z" fill="white"/>
<path d="M80.3739 40.7854C80.2111 40.5938 79.9833 40.5299 80.1623 39.7313C79.2672 39.6993 78.9092 39.6833 78.7465 39.6833C78.7465 39.6833 78.7465 39.6833 78.6977 39.6833C78.6488 39.6833 78.6326 39.6833 78.6326 39.6833C78.4861 39.6833 78.1118 39.6993 77.2168 39.7313C77.2819 40.6097 77.1842 40.5778 77.0052 40.7854C76.4682 41.009 75.4104 42.3507 75.4104 43.1174V55.0966C75.4104 55.9271 75.7847 56.598 76.2404 56.598H81.1062C81.5618 56.598 81.9361 55.9271 81.9361 55.0966V43.1174C81.9687 42.3667 80.9109 41.025 80.3739 40.7854Z" fill="#8ACDFF"/>
<path opacity="0.39" d="M81.6267 45.5449L81.643 54.8887C81.643 55.6554 81.3012 56.2783 80.8944 56.2783H76.5005C76.0774 56.2783 75.7519 55.6554 75.7519 54.8887L75.6705 45.513C75.6543 45.497 78.1604 45.8484 81.6267 45.5449Z" fill="white"/>
<path opacity="0.7" d="M81.5944 45.4814C81.5944 45.5772 80.2762 45.657 78.6326 45.657C76.9889 45.657 75.6708 45.5772 75.6708 45.4814C75.6708 45.3855 76.9889 45.3057 78.6326 45.3057C80.2762 45.3057 81.5944 45.3855 81.5944 45.4814Z" fill="white"/>
<path d="M77.4445 54.7125V42.9091C77.4445 42.1584 78.486 40.8327 79.0067 40.6091C79.1532 40.4334 79.2508 40.4334 79.2183 39.7945C79.0067 39.7945 78.8928 39.7786 78.8115 39.7786C78.8115 39.7786 78.8115 39.7786 78.7464 39.7786C78.6975 39.7786 78.6975 39.7786 78.6975 39.7786C78.5511 39.7786 78.1931 39.7945 77.298 39.8265C77.3631 40.689 77.2655 40.673 77.1027 40.8647C76.582 41.0723 75.5242 42.414 75.5242 43.1487V54.9521C75.5242 55.7667 75.8822 56.4216 76.3379 56.4216H81.1386C81.3013 56.4216 81.4478 56.3098 81.578 56.166H78.2419C77.8025 56.182 77.4445 55.5271 77.4445 54.7125Z" fill="#66BCF7"/>
<path opacity="0.4" d="M80.211 39.8265L79.1857 42.2863L77.0376 41.7432L77.3468 39.7786L80.211 39.8265Z" fill="url(#paint4_linear)"/>
<path d="M80.3575 40.0347V38.9325C80.3575 38.5492 80.1622 38.2297 79.9181 38.2297H77.3794C77.1353 38.2297 76.94 38.5492 76.94 38.9325V40.0347H80.3575Z" fill="#CDE3E8"/>
<path d="M80.1131 39.699C80.1131 39.747 80.0806 39.7949 80.0318 39.7949C79.983 39.7949 79.9504 39.747 79.9504 39.699V38.7246C79.9504 38.6767 79.983 38.6448 80.0318 38.6448C80.0806 38.6448 80.1131 38.6767 80.1131 38.7246V39.699Z" fill="white"/>
<path d="M79.8206 39.699C79.8206 39.747 79.788 39.7949 79.7392 39.7949C79.7067 39.7949 79.6578 39.747 79.6578 39.699V38.7246C79.6578 38.6767 79.6904 38.6448 79.7392 38.6448C79.788 38.6448 79.8206 38.6767 79.8206 38.7246V39.699Z" fill="white"/>
<path d="M79.5111 39.699C79.5111 39.747 79.4785 39.7949 79.4297 39.7949C79.3972 39.7949 79.3484 39.747 79.3484 39.699V38.7246C79.3484 38.6767 79.3809 38.6448 79.4297 38.6448C79.4785 38.6448 79.5111 38.6767 79.5111 38.7246V39.699Z" fill="white"/>
<path d="M79.1858 39.699C79.1858 39.747 79.1533 39.7949 79.1044 39.7949C79.0556 39.7949 79.0231 39.747 79.0231 39.699V38.7246C79.0231 38.6767 79.0556 38.6448 79.1044 38.6448C79.1533 38.6448 79.1858 38.6767 79.1858 38.7246V39.699Z" fill="white"/>
<path d="M78.8764 39.699C78.8764 39.747 78.8438 39.7949 78.795 39.7949C78.7624 39.7949 78.7299 39.747 78.7299 39.699V38.7246C78.7299 38.6767 78.7624 38.6448 78.795 38.6448C78.8438 38.6448 78.8764 38.6767 78.8764 38.7246V39.699Z" fill="white"/>
<path d="M78.5675 39.699C78.5675 39.747 78.5349 39.7949 78.5024 39.7949C78.4698 39.7949 78.421 39.747 78.421 39.699V38.7246C78.421 38.6767 78.4536 38.6448 78.5024 38.6448C78.5512 38.6448 78.5675 38.6767 78.5675 38.7246V39.699Z" fill="white"/>
<path d="M78.2582 39.699C78.2582 39.747 78.2256 39.7949 78.1768 39.7949C78.128 39.7949 78.0954 39.747 78.0954 39.699V38.7246C78.0954 38.6767 78.128 38.6448 78.1768 38.6448C78.2093 38.6448 78.2582 38.6767 78.2582 38.7246V39.699Z" fill="white"/>
<path d="M77.949 39.699C77.949 39.747 77.9165 39.7949 77.8676 39.7949C77.8351 39.7949 77.8026 39.747 77.8026 39.699V38.7246C77.8026 38.6767 77.8351 38.6448 77.8676 38.6448C77.9165 38.6448 77.949 38.6767 77.949 38.7246V39.699Z" fill="white"/>
<path d="M77.6397 39.699C77.6397 39.747 77.6072 39.7949 77.5584 39.7949C77.5095 39.7949 77.477 39.747 77.477 39.699V38.7246C77.477 38.6767 77.5095 38.6448 77.5584 38.6448C77.6072 38.6448 77.6397 38.6767 77.6397 38.7246V39.699Z" fill="white"/>
<path d="M77.3305 39.699C77.3305 39.747 77.2979 39.7949 77.2491 39.7949C77.2003 39.7949 77.1678 39.747 77.1678 39.699V38.7246C77.1678 38.6767 77.2003 38.6448 77.2491 38.6448C77.2817 38.6448 77.3305 38.6767 77.3305 38.7246V39.699Z" fill="white"/>
<path d="M88.8362 48.7557C88.8362 48.8994 87.6157 49.0272 86.1022 49.0272C84.5888 49.0432 83.3683 48.9314 83.3683 48.8036C83.3683 48.6598 84.5888 48.548 86.1022 48.532C87.6157 48.5161 88.8362 48.6279 88.8362 48.7557Z" fill="#B0E1FF"/>
<path d="M88.8199 48.7393H88.8036L88.8199 48.7552V48.7393ZM86.0859 49.0108C84.6538 49.0268 83.5798 48.915 83.3845 48.8511L84.3772 56.3899C84.3772 56.3899 84.3609 56.3899 84.3609 56.4059C84.3609 56.5337 85.0281 56.7253 86.0534 56.7093C87.0298 56.7093 87.9899 56.5017 88.0387 56.3739H88.055L88.8361 48.7712C88.7711 48.899 87.5831 48.9948 86.0859 49.0108ZM83.352 48.8191C83.352 48.8191 83.3682 48.8351 83.3682 48.8511V48.8031C83.3682 48.8031 83.352 48.8031 83.352 48.8191Z" fill="#8ACDFF"/>
<path d="M147.584 26.2185C148.251 26.49 149.52 27.9116 150.204 29.2692C150.887 30.6109 155.021 39.8748 156.811 41.488C158.601 43.1171 155.444 49.9213 154.468 50.6081C153.508 51.2789 152.466 51.822 150.416 50.8796C148.349 49.9373 144.85 44.8102 144.02 41.4241C143.19 38.0539 147.584 26.2185 147.584 26.2185Z" fill="#151823"/>
<path d="M165.712 33.5337C166.087 32.8788 166.9 31.5212 167.161 30.8184C167.421 30.0996 168.609 29.4927 169.227 28.3267C169.455 27.8955 170.09 27.6239 170.139 28.1989C170.188 28.774 169.602 29.4288 169.472 30.1795C169.309 31.1059 171.62 29.7003 172.206 29.301C172.71 28.9656 176.03 27.3524 176.241 27.7358C176.616 28.4545 172.677 29.9399 172.905 30.1955C173.101 30.4031 176.974 28.0712 177.104 28.5663C177.397 29.6045 173.931 30.7545 173.833 31.4094C173.833 31.4094 174.63 31.0101 175.493 30.5628C176.29 30.1635 176.957 29.5885 177.185 29.6684C178.748 30.2753 173.263 32.176 173.817 32.6712C174.256 33.0705 176.762 31.3455 176.909 32.0163C176.99 32.3358 173.719 33.9649 173.719 33.9649C173.719 33.9649 169.716 36.9517 168.039 37.6865C167.031 38.1337 164.768 40.5295 164.768 40.5295L162.978 36.1372C162.962 36.1531 165.045 34.6517 165.712 33.5337Z" fill="#D8A798"/>
<path d="M163.125 34.8276L165.273 33.5818C165.273 33.5818 169 38.7727 169.634 39.3796L166.624 41.2484L163.125 34.8276Z" fill="#CCD4DD"/>
<path d="M152.677 51.4866C158.178 51.0393 168.332 41.0567 167.665 40.6893C165.566 39.5233 164.638 35.3226 163.808 34.2046C156.225 38.597 152.661 40.6254 151.636 41.1525C148.235 42.9414 147.177 51.9338 152.677 51.4866Z" fill="#151823"/>
<path d="M148.3 27.0493C149.26 27.3208 153.556 35.9618 154.647 38.6451C154.858 39.1882 163.841 34.2048 163.841 34.2048C163.841 34.2048 164.704 36.7285 165.387 37.6868C161.677 37.6868 156.404 38.9326 155.721 40.418C155.037 41.9034 155.037 45.4173 154.354 44.475C153.67 43.5326 154.484 40.418 154.484 40.418C154.484 40.418 152.694 41.3604 151.864 42.3027C151.034 43.2451 151.994 40.9451 152.417 39.4597C152.824 37.9743 149.83 29.3333 148.17 29.3333C146.51 29.3333 148.3 27.0493 148.3 27.0493Z" fill="#282A35"/>
<path d="M116.973 40.9128C116.973 38.8843 113.051 26.0906 113.051 26.0906C110.187 26.426 108.511 32.9746 108.381 34.1885C108.251 35.4024 101.22 49.8572 101.09 52.5565C100.96 55.2558 107.909 57.6676 109.553 56.5975C109.601 56.5656 109.666 56.4857 109.732 56.4378C110.545 56.7093 111.294 56.7892 111.815 56.5656C113.67 55.751 116.664 50.1288 116.664 50.1288C116.664 50.1288 115.313 49.3301 113.719 48.819C115.541 45.5767 116.973 41.967 116.973 40.9128Z" fill="#151823"/>
<path d="M116.762 50.0808L113.67 49.3621C113.67 49.3621 107.226 54.2017 109.439 56.4538C110.936 57.9711 114.191 56.8052 116.046 53.7704C117.901 50.7516 116.762 50.0808 116.762 50.0808Z" fill="white"/>
<path d="M117.624 50.5918C118.145 51.1029 118.715 52.1412 119.121 52.8919C119.528 53.6266 120.163 55.6391 119.756 55.8947C119.317 56.1502 118.666 54.8884 117.933 53.7863C117.559 53.2273 117.152 52.9557 116.876 52.5405C116.876 52.5405 117.478 53.3391 118.096 54.3294C118.617 55.1599 119.593 56.6294 118.812 57.1085C118.243 57.4599 117.462 55.719 116.957 55.2558C116.078 54.4571 115.379 53.8342 115.379 53.8342C115.379 53.8342 115.72 54.3613 116.404 55.3676C117.152 56.4697 118.031 56.7252 117.689 57.0447C116.99 57.6676 116.274 57.0606 115.216 56.2301C114.321 55.5433 113.833 54.7926 113.833 54.7926C113.833 54.7926 114.191 55.2558 114.728 55.9426C115.265 56.6134 116.062 56.837 115.639 57.2204C115.313 57.5079 114.304 57.1565 113.816 56.821C113.116 56.3419 112.498 55.9106 111.929 55.2877C111.31 54.6169 111.961 52.4606 113.393 51.1828C115.785 49.0106 117.624 50.5918 117.624 50.5918Z" fill="#DBAB9C"/>
<path d="M114.288 26.7773C114.841 28.1349 114.418 34.2044 113.458 35.9613C112.498 37.7183 108.511 43.6599 108.088 45.1454C107.681 46.6308 112.482 45.4169 111.945 46.3593C111.392 47.3016 105.614 45.2731 105.614 47.0301C105.614 48.787 110.431 46.3593 110.838 47.7009C111.245 49.0586 103.206 46.7586 101.546 50.544C99.8861 54.3294 106.021 39.8745 107.941 35.2905C107.941 35.2905 109.585 27.0488 112.075 26.5058C114.565 25.9627 114.288 26.7773 114.288 26.7773Z" fill="#282A35"/>
<path d="M151.912 24.3339C151.701 23.9985 149.536 22.6089 147.551 21.4269C145.549 20.229 143.629 19.1589 143.613 19.1589L143.938 18.5999C143.971 18.6318 151.571 22.8485 152.433 23.9665C153.247 25.1644 157.283 47.0783 158.145 55.1443L157.494 55.2081C156.713 47.3339 152.482 25.0207 151.912 24.3339Z" fill="#282A35"/>
<path d="M141.351 18.6796C141.351 19.7498 142.23 20.6124 143.304 20.6124C144.394 20.6124 145.273 19.7498 145.273 18.6796C145.273 17.6094 144.394 16.7468 143.304 16.7468C142.23 16.7468 141.351 17.6094 141.351 18.6796Z" fill="#282A35"/>
<path d="M148.869 56.0069C148.902 56.2305 149.292 56.4062 149.732 56.4062H165.436C165.859 56.4062 166.266 56.2305 166.331 56.0069L166.721 54.5692C166.787 54.3296 166.461 54.1379 166.022 54.1379H149.374C148.918 54.1379 148.495 54.4095 148.528 54.6491L148.869 56.0069Z" fill="#282A35"/>
<path d="M20.7961 120.551C20.7961 120.551 20.6659 141.139 20.9426 146.346C28.0704 146.953 31.2438 143.694 31.1461 142.161C31.0648 140.628 32.6108 120.758 32.741 119.576C32.8711 118.41 35.6377 109.801 32.4318 108.204C21.8214 102.901 20.7961 120.551 20.7961 120.551Z" fill="#151823"/>
<path d="M22.7327 107.933C26.8173 106.543 36.0282 101.879 38.7622 101.528C44.5556 100.793 48.6728 105.074 48.2822 110.728C47.7452 118.554 50.3978 140.404 50.8534 142.576C45.6622 145.244 39.5758 144.205 39.5758 144.205C39.5758 144.205 33.457 116.941 35.4912 113.539C36.5978 111.702 22.7327 107.933 22.7327 107.933Z" fill="#151823"/>
<path d="M40.243 142.496C39.527 144.7 38.8923 145.882 39.5921 147.288C40.2918 148.693 43.6767 148.166 45.6296 147.256C46.8013 146.713 49.4051 147.671 50.7558 147.623C53.6362 147.543 56.126 142.815 53.7664 142.624C51.3904 142.432 48.3961 142.927 47.322 142.049C46.248 141.17 40.243 142.496 40.243 142.496Z" fill="#151823"/>
<path d="M23.2047 143.694C22.9443 145.116 21.7563 146.521 22.9443 147.432C24.116 148.326 25.304 148.326 26.7523 147.943C28.1844 147.559 28.7214 146.777 29.5026 146.138C30.3 145.499 32.3993 145.116 33.0502 144.205C33.7012 143.295 34.1405 140.819 32.9526 140.596C31.3089 140.292 29.2747 140.5 26.0037 141.298L23.2047 143.694Z" fill="#151823"/>
<path d="M12.7406 64.8391C13.1637 66.1808 13.1312 71.1322 12.5941 73.2245C12.0734 75.3169 9.51843 78.128 9.51843 78.128L21.4307 80.3322C21.4307 80.3322 20.3892 72.4259 22.6024 70.9245C23.9857 69.9982 12.7406 64.8391 12.7406 64.8391Z" fill="#CC9483"/>
<path d="M24.0507 60.2234C24.3436 61.1178 24.2134 62.2039 24.4087 63.1303C25.1898 66.8518 25.3688 71.2442 23.8717 72.1546C22.0165 73.2886 15.8813 71.4678 13.6193 67.9539C11.3736 64.4241 11.8943 59.84 15.7023 58.2269C19.8684 56.4539 22.7651 56.2782 24.0507 60.2234Z" fill="#CC9483"/>
<path d="M24.7832 60.8303C25.548 57.1248 15.6537 52.3331 11.032 56.8373C10.5438 57.3004 10.495 57.6678 10.1207 58.0831C9.76265 58.4824 9.486 58.3706 9.12798 58.6581C6.8985 60.3991 7.58199 65.3664 8.94897 67.5386C10.674 70.2699 10.7879 70.5733 10.5601 71.324C10.1858 72.5379 19.3641 71.9949 19.3641 71.9949L20.5846 68.2414L21.9353 67.1713L22.7327 64.9192L23.4976 64.0088C23.4976 64.0088 22.9768 61.9484 23.0419 60.8622C23.107 59.3449 24.7832 60.8303 24.7832 60.8303Z" fill="#A0593A"/>
<path d="M3.10663 155.386H4.32715L10.2345 118.953H7.07738L3.10663 155.386Z" fill="#96A6BC"/>
<path d="M11.5688 149.157H12.236L17.1669 119.832H14.3027L11.5688 149.157Z" fill="#96A6BC"/>
<path d="M42.7329 148.566H43.4001L39.7385 115.743L37.2487 119.225L42.7329 148.566Z" fill="#96A6BC"/>
<path d="M37.3302 156.696H38.5344L33.6523 120.263H30.5603L37.3302 156.696Z" fill="#96A6BC"/>
<path d="M5.27096 117.053C6.42639 115.95 6.88205 115.599 7.712 115.056C8.08629 114.816 12.0082 111.255 12.0082 111.255L38.1274 112.756C38.1274 112.756 38.8922 112.9 39.7384 113.203C40.2917 113.395 40.5684 114.896 40.5033 116.126C40.4219 117.484 38.0948 119.959 35.9141 121.317C32.871 123.202 24.3273 122.85 23.1068 122.85C22.9766 122.85 21.6259 122.85 21.4957 122.85C20.2752 122.85 7.82592 123.154 4.76648 121.269C3.65988 120.566 4.29455 117.963 5.27096 117.053Z" fill="#4A75DD"/>
<path d="M41.008 110.743C38.5507 112.947 33.0502 116.366 30.8044 116.957C28.5587 117.563 19.7709 114.752 18.5504 112.149C17.3299 109.545 28.9655 106.143 32.6434 106.143C36.3212 106.127 41.008 110.743 41.008 110.743Z" fill="#151823"/>
<path d="M11.0968 73.7517C9.09515 74.8538 7.32133 76.451 3.20411 79.3739C3.20411 79.3739 1.65812 79.4538 1.39774 80.0607C-2.11736 88.3343 4.73383 91.7364 4.35953 94.9947C2.81354 108.316 8.24892 112.74 8.72086 114.433C8.94869 115.263 21.0237 113.666 25.9058 113.746C28.5584 114.561 34.5471 109.482 35.4584 108.763C35.8815 107.645 34.2867 105.201 32.4478 102.933C31.0971 101.256 30.4136 99.0996 30.7065 95.4579C30.918 92.8066 30.0718 90.6024 30.918 89.101C31.7643 87.5836 30.7879 79.6135 30.7879 79.6135C30.7879 79.6135 27.289 77.8566 22.293 75.1093C21.0725 74.4225 18.0131 75.4128 18.0131 75.4128L11.0968 73.7517Z" fill="#0D2263"/>
<path d="M10.7553 72.7457L8.85126 75.1417C8.85126 75.1417 13.1312 74.966 15.5723 75.1736C19.4942 75.541 23.5789 76.0522 23.5789 76.0522L22.7001 73.6083C22.7001 73.6083 21.1053 72.9374 15.377 72.602C13.7984 72.5061 10.7553 72.7457 10.7553 72.7457Z" fill="#0D2263"/>
<path d="M29.1608 79.071C32.0249 77.4737 33.8964 83.0161 35.2959 88.239C36.2072 91.689 37.3464 94.2925 37.7532 95.2988C39.1365 98.7488 38.3716 101.911 36.9884 102.965C34.6124 104.786 30.2511 102.965 27.4846 98.1578C24.7343 93.3501 29.1608 79.071 29.1608 79.071Z" fill="#0D2263"/>
<path d="M30.1694 78.9908C28.5421 79.7894 27.7935 80.8755 27.7935 80.8755C27.7935 80.8755 27.11 78.272 19.7706 77.4734C7.64677 76.1477 3.18781 79.3741 3.18781 79.3741C3.18781 79.3741 8.24889 75.0137 9.48569 75.0137C10.7062 75.0137 17.2645 74.1193 23.188 75.6845C24.3597 75.988 27.9399 77.9366 28.477 78.2401L30.1694 78.9908Z" fill="#1F3E93"/>
<path d="M33.2291 82.377C33.0175 85.1881 30.8206 88.3186 31.0158 88.2867C31.8458 88.1749 34.1566 85.827 34.1566 85.827C34.1566 85.827 34.2706 86.2422 34.1566 87.3284C34.0753 88.0471 33.701 90.411 33.0663 91.0818C32.4479 91.7367 34.9378 89.0693 34.9378 88.079C34.9052 87.0888 33.2291 82.377 33.2291 82.377Z" fill="#1F3E93"/>
<path d="M28.1028 91.6886C27.3868 89.8837 20.0799 88.5101 16.4184 88.2386C5.88937 87.4879 0.567899 89.1969 1.20257 91.6886C5.95446 110.328 0.991012 114.736 4.66884 118.346C6.70304 120.359 39.5757 120.758 35.8979 118.745C32.2363 116.733 30.1858 115.535 29.779 107.916C29.3722 100.314 28.1028 91.6886 28.1028 91.6886Z" fill="#4A75DD"/>
<path d="M12.3987 56.5975C13.3263 55.9906 16.0766 56.4538 16.6136 57.6837C17.2157 59.0732 16.4671 56.5975 16.4671 56.5975C16.4671 56.5975 17.5737 57.0927 17.5737 58.5941C18.957 57.6996 17.9969 56.9809 17.9969 56.9809L18.9082 58.626L19.9822 57.8753C19.9822 57.8753 22.4395 59.0093 21.3655 60.351C24.3598 58.9295 22.1303 57.492 22.1303 57.492C22.1303 57.492 24.4249 58.5462 24.9294 60.9739C26.0035 59.0093 24.5714 56.5816 21.3492 55.2399C18.8268 54.1857 17.9806 54.7128 17.9806 54.7128C17.9806 54.7128 13.9935 54.2656 11.4711 56.5177C10.511 57.3802 10.1042 58.083 10.1042 58.083L12.3987 56.5975Z" fill="#BA784A"/>
<path d="M22.1305 63.7373C20.91 63.5936 19.9824 64.4881 20.91 66.4368C21.8376 68.3855 22.6025 68.689 23.3673 68.082C24.1159 67.491 22.1305 63.7373 22.1305 63.7373Z" fill="#CC9483"/>
<path d="M63.9047 102.166C65.5158 103.157 66.8828 109.609 67.3059 117.212C67.5825 121.892 66.8014 130.661 67.1269 133.009C67.6639 136.714 68.8356 138.279 71.2929 143.854C71.6509 144.668 64.7347 140.532 64.3278 139.541C63.7582 138.168 62.733 137.641 62.8306 136.554C62.9446 135.229 63.6443 134.047 62.8795 131.811C61.0406 126.46 61.008 125.07 59.0714 117.755C57.0535 110.105 57.3464 98.1733 63.9047 102.166Z" fill="#CC9483"/>
<path d="M62.4887 136.427C62.5864 135.165 65.6621 135.037 66.8175 137.273C66.8175 137.273 67.859 138.567 69.8932 141.187C70.1699 141.554 70.4628 141.857 70.7394 142.129C72.025 141.953 73.4408 141.841 73.6199 142.528C73.864 143.375 73.6036 144.189 73.1642 144.621C72.497 145.371 70.3326 145.819 68.3309 145.707C67.7614 145.675 66.4106 143.407 66.1665 142.385C65.9224 141.362 64.2951 140.755 63.3349 140.037C62.3911 139.318 62.3422 138.28 62.4887 136.427Z" fill="#151823"/>
<path d="M62.8795 139.414C63.5467 140.261 64.6696 142.864 65.3368 146.41C65.7925 146.378 66.1179 146.234 66.1179 146.234C66.1179 146.234 64.4418 140.436 64.7184 139.606C65.0113 138.791 62.8795 139.414 62.8795 139.414Z" fill="#151823"/>
<path d="M78.4043 106.447C79.3319 108.076 77.0698 113.89 73.7175 120.742C71.6507 124.959 66.0852 132.434 65.2227 134.654C63.8557 138.152 65.3366 140.691 63.0257 145.036C62.6026 145.834 61.4635 145.164 60.7312 142.049C60.3569 140.468 58.9899 137.321 59.6083 136.411C60.3731 135.293 61.7727 133.504 62.1958 131.188C63.2047 125.63 63.5465 124.16 65.4505 116.845C67.4359 109.178 74.6125 99.8346 78.4043 106.447Z" fill="#D8A798"/>
<path d="M59.7057 135.228C60.4055 134.174 63.172 135.5 63.0743 138.008C63.0743 138.008 63.351 139.637 63.8392 142.895C63.9043 143.358 64.0019 143.758 64.1158 144.125C65.3201 144.572 66.622 145.147 66.4592 145.834C66.2477 146.697 65.6293 147.272 65.0272 147.463C64.0833 147.799 61.9515 147.176 60.259 146.122C59.7871 145.834 59.7057 143.199 59.9986 142.192C60.2915 141.186 59.1524 139.876 58.6805 138.806C58.176 137.72 58.6642 136.794 59.7057 135.228Z" fill="#151823"/>
<path d="M58.5668 138.04C58.7295 139.11 58.4366 141.921 57.2812 145.339C57.7043 145.531 58.0461 145.563 58.0461 145.563C58.0461 145.563 59.4293 139.701 60.0803 139.094C60.7475 138.487 58.5668 138.04 58.5668 138.04Z" fill="#151823"/>
<path d="M66.2645 102.422C70.9513 100.217 77.4933 102.214 77.9001 103.428C78.307 104.626 78.8928 106.974 79.6577 111.35C79.853 112.42 68.9334 118.106 68.9334 118.106L66.2645 102.422Z" fill="#151823"/>
<path d="M58.9574 77.2175C64.051 80.1404 66.1829 79.7092 68.1032 80.6995C70.0235 81.6738 69.9909 87.1522 69.9909 87.1522C69.9909 87.1522 66.9477 91.0495 66.6874 91.912C66.5084 92.5509 65.1414 96.5759 65.4994 100.106C65.7598 102.661 68.0218 104.306 69.4864 109.37C69.6492 109.913 52.3503 108.236 52.3503 108.236L50.8206 87.8391C50.8206 87.8391 48.3145 83.8779 49.4048 77.9682L58.9574 77.2175Z" fill="#151823"/>
<path d="M49.4375 78.3037C44.9786 80.7314 44.6531 81.0349 42.8955 82.2808C41.138 83.5266 39.4293 101.927 39.4293 101.927C39.4293 101.927 40.1453 113.059 44.2788 105.393C44.4415 105.105 44.5717 92.3273 44.6368 92.455C44.9135 93.062 46.492 97.2307 45.9712 102.981C45.7434 105.52 43.2861 106.766 43.5953 110.855C43.6278 111.254 56.5979 107.389 56.5979 107.389L58.1602 78.2717L49.4375 78.3037Z" fill="#151823"/>
<path d="M69.4051 83.0476C74.0105 95.9212 75.1497 102.661 73.148 104.163C70.7884 105.936 68.2334 100.425 67.8591 99.8025C65.9388 96.5601 65.532 92.6469 65.4343 92.3754C65.1902 91.6566 69.4051 83.0476 69.4051 83.0476Z" fill="#151823"/>
<path d="M38.4528 154.779H39.657L45.5643 118.362H42.4072L38.4528 154.779Z" fill="#96A6BC"/>
<path d="M77.3467 154.587H78.5672L73.6851 118.155H70.5769L77.3467 154.587Z" fill="#96A6BC"/>
<path d="M46.8986 148.566H47.5658L52.513 119.225H49.6488L46.8986 148.566Z" fill="#96A6BC"/>
<path d="M80.5198 147.959H81.1871L77.5255 115.152L75.0194 118.618L80.5198 147.959Z" fill="#96A6BC"/>
<path d="M43.0581 116.445C44.2135 115.343 44.6692 114.992 45.5154 114.449C45.8897 114.193 49.7954 110.632 49.7954 110.632L75.9145 112.133C75.9145 112.133 76.6794 112.293 77.5256 112.58C78.0789 112.772 78.3555 114.273 78.2904 115.503C78.2091 116.861 75.8819 119.336 73.7013 120.694C70.6581 122.579 62.1145 122.227 60.894 122.227C60.7638 122.227 59.4131 122.227 59.2829 122.227C58.0624 122.227 45.6131 122.531 42.5699 120.646C41.4307 119.975 42.0817 117.372 43.0581 116.445Z" fill="#4A75DD"/>
<path d="M47.3543 103.428C47.0451 108.332 45.5154 115.343 48.3795 116.557C51.2437 117.771 67.3708 118.761 71.8623 116.158C72.7086 115.663 76.4189 113.762 76.305 112.005C76.1423 109.274 71.6833 106.255 70.8371 104.339C69.4376 101.16 47.3543 103.428 47.3543 103.428Z" fill="#151823"/>
<path d="M65.8738 91.0971C65.1577 89.2923 57.8672 87.9187 54.1893 87.6471C43.6603 86.8805 38.3226 88.6055 38.9573 91.0971C43.7091 109.737 38.7457 114.145 42.4235 117.755C44.474 119.751 77.3304 120.167 73.6688 118.154C70.0073 116.142 67.9568 114.944 67.55 107.325C67.1594 99.7062 65.8738 91.0971 65.8738 91.0971Z" fill="#4A75DD"/>
<path d="M65.272 64.2642C65.6951 65.2864 66.0694 66.644 65.9718 67.794C65.8741 68.944 66.2484 70.2218 66.4925 70.6211C66.8668 71.2281 66.6553 73.1767 66.5413 73.9434C66.4274 74.71 65.6788 74.6621 66.6064 75.4128C67.534 76.1635 67.7293 76.3232 66.9645 77.042C66.1345 77.8246 66.7855 77.9045 67.3225 78.4156C67.8595 78.9107 67.2737 78.9267 67.2737 79.31C67.3062 81.0031 69.0638 80.6836 69.0638 80.6836C69.0638 80.6836 65.0767 82.3128 65.2232 80.1565C65.4998 76.0996 64.1003 76.9302 64.1003 76.9302C64.1003 76.9302 62.8147 77.4732 62.7821 76.0677C62.7496 74.6621 63.2703 74.3906 62.3428 73.8954C61.4152 73.4003 60.9107 73.9274 60.4062 72.7135C59.9017 71.4996 57.9001 72.5538 59.1694 70.4614C60.4225 68.385 59.6088 68.1774 60.8456 65.0788C62.0824 61.9642 62.5706 60.4149 63.2378 61.0538C63.905 61.6767 65.272 64.2642 65.272 64.2642Z" fill="#C12900"/>
<path d="M67.1433 87.041C66.7528 86.6576 67.3712 86.6736 67.2898 86.0826C67.2247 85.4916 67.0132 85.1562 66.7528 84.5014C66.4924 83.8465 66.9481 83.7986 66.9643 83.0958C66.9643 82.7125 66.0205 83 66.4599 81.5465C66.7691 80.4764 66.0367 80.5403 65.9066 80.2048C65.7764 79.8694 65.9554 79.4861 66.1181 78.6076C66.1995 78.1924 65.8577 77.1701 65.4997 76.0681C65.6624 75.6687 65.7113 75.2535 65.3858 74.934C64.8813 74.4229 65.7601 73.8479 65.6299 72.9215C65.4997 71.9951 65.4997 71.8674 65.4183 71.5639C65.4021 71.516 65.3695 71.4521 65.3532 71.3882C65.3532 71.0049 65.3533 70.6056 65.337 70.1903C65.6136 69.5674 65.3207 68.5611 65.4346 68.1618C65.5648 67.7465 65.337 66.5806 65.337 66.5806C65.337 66.5806 64.865 66.0056 64.9952 65.5903C65.0766 65.3188 64.7837 64.025 64.2304 63.0986C63.9537 62.1243 63.6608 61.4215 63.4004 61.166C60.8617 58.5306 58.8601 59.8882 58.8601 59.8882C56.8747 59.441 55.4426 58.9778 52.6924 60.9264C52.5948 60.9903 52.4971 61.1181 52.3995 61.2139C50.5931 61.9486 48.9007 64.1688 48.9007 64.7278C48.9169 65.3667 47.908 66.0215 47.908 66.0215C47.908 66.0215 47.0292 67.6507 47.0455 68.2896C47.0617 68.9285 46.0202 70.382 46.2969 71.4042C46.5898 72.4264 45.8087 72.8097 45.5483 73.209C45.3042 73.6083 45.2228 73.8 44.6044 75.0938C43.986 76.3875 45.1252 77.5694 44.0999 78.0965C43.0747 78.6236 43.3351 79.8694 43.7419 80.7479C44.1488 81.6423 41.8542 82.4569 43.9535 83.1597C44.9136 83.4792 40.8127 84.2778 44.5068 86.5618C44.6044 86.6257 45.5808 85.891 45.6785 85.9069C46.4271 86.4979 44.0511 85.6035 45.4669 88.3666C45.6785 88.7979 47.615 88.7979 48.2823 89.9159C49.2099 91.4653 50.886 90.8583 51.6509 90.2673C52.4157 89.6604 52.3344 90.1396 52.6273 90.5708C53.3433 91.625 54.7917 91.1618 55.4915 90.8264C56.4191 90.3791 56.7771 91.7368 57.8349 91.5771C58.9089 91.4173 58.2417 90.9701 59.625 90.6666C61.0082 90.3632 60.2922 91.9125 61.7242 90.3153C62.2613 89.7083 63.0587 91.018 64.1165 89.6604C64.7837 88.8139 64.9627 88.4465 64.9139 87.3285C65.2556 87.8236 65.4997 88.175 65.5974 88.2229C66.1669 88.5903 67.2735 88.2868 67.5665 87.8236C67.8919 87.3764 67.5339 87.4243 67.1433 87.041Z" fill="#931F00"/>
<path d="M45.1252 83.4791C45.1089 83.4791 45.1089 83.4631 45.0926 83.4631C45.1415 83.527 45.174 83.5909 45.2391 83.6388C45.2879 83.5749 45.2717 83.511 45.1252 83.4791ZM66.0856 84.8687C65.7438 84.5173 66.2809 84.5332 66.2158 83.9902C66.1507 83.4471 65.9717 83.1437 65.7438 82.5367C65.516 81.9298 65.9228 81.8819 65.9228 81.243C65.9228 80.8916 65.0929 81.1471 65.4672 79.8055C65.7438 78.8312 65.0929 78.8791 64.979 78.5756C64.8651 78.2721 65.0115 77.9208 65.158 77.1062C65.2231 76.7388 64.9302 75.7964 64.621 74.7742C64.7674 74.4069 64.8 74.0235 64.5233 73.736C64.0839 73.2728 64.8488 72.7458 64.7511 71.8833C64.6372 71.0367 64.6372 70.909 64.5721 70.6374C64.5559 70.5895 64.5233 70.5416 64.507 70.4777C64.507 70.1103 64.507 69.743 64.4908 69.3916C64.7349 68.8166 64.4745 67.8902 64.5721 67.5228C64.686 67.1555 64.4908 66.0694 64.4908 66.0694C64.4908 66.0694 64.0839 65.5423 64.1816 65.159C64.2629 64.9034 64.0026 63.7055 63.5143 62.859C63.2702 61.9645 62.9773 61.102 62.7495 60.8624C60.52 58.4506 58.3882 59.8083 58.3882 59.8083C56.6306 59.393 54.5476 58.9138 51.9601 61.0541C51.8787 61.118 53.2457 60.4791 53.1481 60.5749C53.083 60.6069 52.0577 61.4374 51.9926 61.4534C55.2311 59.2333 56.9235 60.7506 57.1026 60.7666C57.1026 60.7666 57.9 59.5527 60.341 61.7569C60.5688 61.9645 60.8943 62.5874 61.2198 63.4499C61.7893 64.2485 62.1474 65.4145 62.0985 65.6701C62.0172 66.0534 62.4728 66.5485 62.4728 66.5485C62.4728 66.5485 62.7658 67.6027 62.6844 67.986C62.6193 68.3534 62.961 69.2638 62.7495 69.8548C62.7983 70.2221 62.8309 70.5895 62.8471 70.9409C62.8797 70.9888 62.9122 71.0527 62.9285 71.0846C63.0261 71.3562 63.0261 71.468 63.2214 72.3145C63.4167 73.161 62.6844 73.752 63.1726 74.1673C63.4818 74.4388 63.4818 74.8221 63.3679 75.1895C63.7747 76.1798 64.149 77.0742 64.1165 77.4576C64.0514 78.2721 63.9212 78.6395 64.0676 78.927C64.1978 79.2145 64.8488 79.1027 64.6535 80.1089C64.3931 81.4826 65.2068 81.1471 65.2231 81.4985C65.2719 82.1374 64.8813 82.2173 65.158 82.7923C65.4346 83.3673 65.6462 83.6548 65.7601 84.1978C65.874 84.7409 65.337 84.7728 65.7113 85.0923C66.0856 85.4117 66.3948 85.3478 66.1669 85.795C66.1669 85.811 66.1507 85.827 66.1344 85.843C66.2809 85.7631 66.3948 85.6673 66.4599 85.5555C66.7365 85.1881 66.4436 85.2201 66.0856 84.8687ZM45.7273 81.2909C43.8884 80.652 45.9063 79.9013 45.5483 79.0867C45.1903 78.2721 44.9462 77.1381 45.8575 76.643C46.7688 76.1478 45.7599 75.0777 46.3132 73.8798C46.8665 72.6819 46.9153 72.5062 47.1431 72.1548C47.3709 71.8034 48.0544 71.436 47.7941 70.4937C47.55 69.5513 48.4613 68.2256 48.445 67.6346C48.445 67.0437 49.2099 65.5583 49.2099 65.5583C49.2099 65.5583 50.0886 64.9513 50.0724 64.3603C50.0561 63.8812 52.2368 61.118 53.7502 60.3353C52.5785 60.3034 51.7323 61.2138 50.9674 61.8847C50.886 61.9645 50.8209 62.0763 50.7396 62.1722C49.2099 62.9867 47.908 65.702 47.9731 66.2131C48.0382 66.8041 46.899 67.9381 46.899 67.9381C46.899 67.9381 46.5735 69.0402 46.6386 69.6312C46.7037 70.2062 45.9063 71.6277 46.2318 72.5381C46.5573 73.4485 45.9063 73.8638 45.7273 74.2471C45.532 74.6305 45.4995 74.8062 45.0601 76.052C44.6207 77.2978 45.711 78.2721 44.8485 78.8471C44.0023 79.4062 44.3278 80.5242 44.7672 81.2909C45.1903 82.0735 43.27 82.9999 45.1089 83.4631C44.0674 82.0895 46.4271 81.5464 45.7273 81.2909Z" fill="#C12900"/>
<path d="M91.2933 113.858C91.2933 113.858 91.3259 132.705 91.6025 137.912C98.7304 138.503 104.198 138.711 104.117 137.161C104.036 135.612 103.124 119.352 103.271 118.186C103.401 117.02 106.167 108.411 102.961 106.814C92.3186 101.512 91.2933 113.858 91.2933 113.858Z" fill="#151823"/>
<path d="M94.8737 107.533C98.9584 106.143 110.203 102.773 112.954 102.422C118.747 101.687 121.627 104.77 120.423 110.328C119.073 116.557 105.207 135.053 106.314 137.609C101.123 140.276 95.0364 139.254 95.0364 139.254C95.0364 139.254 103.271 118.043 103.759 115.966C104.231 113.89 94.8737 107.533 94.8737 107.533Z" fill="#151823"/>
<path d="M75.2475 154.986H76.4517L82.3591 118.57H79.2183L75.2475 154.986Z" fill="#96A6BC"/>
<path d="M111.7 154.795H112.905L108.023 118.362H104.931L111.7 154.795Z" fill="#96A6BC"/>
<path d="M83.6937 148.774H84.3609L89.3081 119.433H86.444L83.6937 148.774Z" fill="#96A6BC"/>
<path d="M117.315 148.167H117.982L114.321 115.36L111.815 118.826L117.315 148.167Z" fill="#96A6BC"/>
<path d="M79.8528 116.653C81.0083 115.567 81.4639 115.2 82.2939 114.657C82.6682 114.401 86.5738 110.839 86.5738 110.839L112.693 112.341C112.693 112.341 113.458 112.484 114.304 112.788C114.857 112.98 115.134 114.481 115.069 115.711C114.988 117.069 112.66 119.544 110.48 120.902C107.437 122.787 98.8767 122.435 97.6724 122.435C97.5422 122.435 96.1915 122.435 96.0613 122.435C94.8408 122.435 82.3915 122.739 79.3483 120.854C78.2255 120.183 78.8764 117.58 79.8528 116.653Z" fill="#4A75DD"/>
<path d="M99.5768 63.9129L99.5605 66.229C99.5605 66.229 100.521 66.7561 101.22 66.4047C101.904 66.0533 102.034 65.031 102.083 64.5198C102.148 64.0087 100.179 63.6573 99.5768 63.9129ZM101.09 66.2609C100.488 66.5804 99.6256 66.1172 99.6256 66.1172L99.6419 64.0726C100.163 63.8649 101.92 64.1684 101.855 64.6157C101.806 65.047 101.709 65.9415 101.09 66.2609Z" fill="#282A35"/>
<path d="M87.3227 64.4397C87.7458 65.7973 87.7133 70.7487 87.1763 72.8251C86.6555 74.9175 84.1006 77.7286 84.1006 77.7286L95.9965 79.9327C95.9965 79.9327 94.955 72.0265 97.1682 70.5251C98.5678 69.5987 87.3227 64.4397 87.3227 64.4397Z" fill="#CC9483"/>
<path d="M101.09 63.3381C101.09 64.4561 100.732 64.3763 100.586 65.4784C100.537 65.8457 100.732 66.293 100.667 66.6443C100.13 69.727 99.1702 72.4423 97.7218 72.8096C95.6063 73.3367 89.5362 70.3818 88.4784 66.3568C87.4369 62.3318 91.0659 57.5402 95.1994 57.1249C99.7072 56.6936 101.074 59.2013 101.09 63.3381Z" fill="#CC9483"/>
<path d="M85.6791 73.3687C83.6938 74.4707 81.7409 76.9305 78.3886 77.777C78.3886 77.777 76.8426 77.8568 76.5822 78.4798C73.0671 86.7534 79.2999 91.3533 78.9256 94.6117C77.3796 107.932 82.815 112.357 83.2869 114.05C83.5148 114.88 88.2992 115.887 93.1813 115.967C95.8339 116.781 106.9 113.555 107.795 112.836C108.218 111.718 107.242 109.21 106.558 106.383C104.833 99.3394 105.891 99.5631 106.2 95.9214C106.412 93.254 109.26 92.9665 110.106 91.4652C110.952 89.9478 106.461 78.0964 106.461 78.0964C106.461 78.0964 101.855 77.4735 96.8591 74.7103C95.6386 74.0395 92.5629 75.0138 92.5629 75.0138L85.6791 73.3687Z" fill="#151823"/>
<path d="M86.5253 71.228C86.8996 71.4197 92.7744 73.1608 96.3545 72.8094C96.8916 73.4803 96.2569 75.1415 96.2569 75.1415C96.2569 75.1415 85.614 73.7678 85.3048 73.3365C84.9793 72.9052 86.5253 71.228 86.5253 71.228Z" fill="#D4D5D6"/>
<path d="M85.6794 72.0586L83.4337 74.7581C83.4337 74.7581 87.7299 74.9817 89.5037 75.4289C93.3118 76.4033 98.1613 75.6526 98.1613 75.6526L97.3151 73.5441C97.3151 73.5441 93.8813 73.8636 89.5037 72.9052C87.9577 72.5857 85.6794 72.0586 85.6794 72.0586Z" fill="#151823"/>
<path d="M115.59 110.344C113.133 112.548 107.632 115.95 105.387 116.557C103.141 117.148 94.3531 114.353 93.1326 111.75C91.9121 109.146 103.548 105.728 107.226 105.728C110.887 105.744 115.59 110.344 115.59 110.344Z" fill="#151823"/>
<path d="M106.282 78.0003C108.495 77.9204 108.934 82.6322 110.383 87.2003C111.961 92.1197 114.158 97.4385 114.158 98.5246C114.158 100.617 115.232 106.543 112.531 106.143C108.446 105.536 106.509 101.735 103.743 96.9273C100.993 92.1037 106.282 78.0003 106.282 78.0003Z" fill="#151823"/>
<path d="M102.311 56.8213C100.879 58.5303 93.7835 50.2088 88.4295 54.9685C87.925 55.4158 88.0552 55.847 87.9251 55.9109C87.7135 56.0227 87.4694 56.0067 87.0625 56.1664C84.41 57.1727 84.0194 61.3255 84.6541 63.8011C85.4515 66.9157 87.3717 68.8004 86.8673 70.5094C86.5092 71.7233 94.6786 72.0588 94.6786 72.0588C94.6786 72.0588 97.1359 68.465 96.8755 67.7782C95.8828 65.0789 97.2661 63.5935 97.7218 64.8393C98.0635 65.7977 98.1123 65.8935 98.1123 65.8935L98.4866 66.165C98.4866 66.165 98.5029 62.5074 99.8699 61.9484C102.018 61.038 102.311 56.8213 102.311 56.8213Z" fill="#5B250E"/>
<path d="M96.7454 54.6489C98.0635 55.2719 100.244 56.9491 101.237 56.422C100.374 56.7734 99.5281 56.5977 99.5281 56.5977C99.5281 56.5977 101.318 57.2047 102.002 56.5977C101.465 57.572 100.618 57.4762 100.618 57.4762C100.618 57.4762 102.23 57.4762 102.767 56.422C102.148 58.2908 102.23 58.2429 101.156 58.0033C99.577 57.6359 97.201 54.9524 94.6461 53.9461C93.9951 53.6746 95.2156 53.9301 96.7454 54.6489Z" fill="#873F26"/>
<path d="M99.3002 58.227C100.374 58.8819 102.474 59.5847 103.076 57.62C102.506 58.1791 99.9023 58.7222 98.5353 57.3166C97.152 55.9269 99.3002 58.227 99.3002 58.227Z" fill="#873F26"/>
<path d="M97.3148 64.344C97.3148 64.344 101.351 64.935 101.871 64.7593C102.213 64.6475 101.644 65.6538 101.644 65.6538L97.6891 64.8551L97.3148 64.344Z" fill="#282A35"/>
<path d="M98.9908 135.037C98.6654 132.977 95.6548 132.529 94.5807 133.136C93.1974 133.903 92.7418 136.714 93.051 138.822C93.23 140.068 91.505 142.224 91.1307 143.502C90.8215 144.524 90.7076 146.345 92.1722 146.984C93.0022 147.336 93.6043 147.815 96.8753 148.358C97.7215 148.486 98.5677 148.757 98.763 147.799C99.0071 146.505 98.9908 144.636 99.0722 141.586C99.0722 140.228 98.9908 135.037 98.9908 135.037Z" fill="#151823"/>
<path d="M93.1647 137.385L97.8353 138.088L97.6074 138.983L93.0183 138.471L93.1647 137.385Z" fill="#282A35"/>
<path d="M93.6531 134.957C94.483 134.286 98.3887 134.718 98.4863 136.012C98.9583 134.67 97.9168 133.424 95.9802 133.232C94.0274 133.041 93.6531 134.957 93.6531 134.957Z" fill="#282A35"/>
<path d="M98.942 135.101C97.1031 134.047 94.8574 136.059 94.6458 137.257C94.3854 138.791 96.3057 140.915 98.1609 142.017C99.2512 142.688 99.8696 145.355 100.634 146.441C102.278 148.773 110.057 147.943 109.862 145.611C109.699 143.63 108.234 142.64 104.15 139.19C103.092 138.327 98.942 135.101 98.942 135.101Z" fill="#282A35"/>
<path d="M97.1031 141.011L100.634 137.912L101.188 138.663L97.8842 141.826L97.1031 141.011Z" fill="#151823"/>
<path d="M95.5245 139.111C95.5245 138.056 98.3399 135.357 99.3976 136.108C98.6328 134.91 96.9891 134.91 95.6222 136.251C94.2552 137.609 95.5245 139.111 95.5245 139.111Z" fill="#151823"/>
<path d="M102.669 91.3049C101.969 89.5 94.662 88.1264 90.9842 87.8549C80.4552 87.0882 75.1174 88.8132 75.7521 91.3049C80.504 109.944 75.5406 114.353 79.2184 117.963C81.2526 119.975 114.125 120.374 110.464 118.362C106.802 116.349 104.752 115.151 104.345 107.533C103.954 99.9139 102.669 91.3049 102.669 91.3049Z" fill="#4A75DD"/>
<path d="M179.464 142.256C177.739 142.304 176.453 142.544 175.444 142.879C175.298 142.576 175.168 142.256 175.037 141.953L171.49 142.895C171.49 142.895 170.041 146.106 170.041 147.527C170.041 148.949 173.768 149.859 175.867 148.438C176.209 148.198 176.437 147.942 176.583 147.671C177.95 147.08 179.22 146.808 180.147 146.154C181.352 145.307 181.189 142.208 179.464 142.256Z" fill="#151823"/>
<path d="M181.905 117.101C180.587 127.435 180.977 137.369 179.155 145.212C174.598 145.739 169 145.26 169 145.26C169 145.26 170.367 125.326 170.351 119.608C170.334 112.74 172.971 113.651 172.971 113.651C172.45 108.348 183.125 107.326 181.905 117.101Z" fill="#151823"/>
<path d="M179.171 145.18C180.994 137.337 181.726 117.532 181.726 117.532C181.726 117.532 181.319 116.446 181.531 114.146C182.117 107.549 180.473 106.591 179.659 117.596C178.943 127.227 177.348 139.685 176.909 145.227C179.529 145.02 177.788 145.515 179.171 145.18Z" fill="#282A35"/>
<path d="M162.491 142.656L158.65 141.634C158.52 141.969 158.357 142.321 158.211 142.64C157.12 142.273 155.721 142.017 153.866 141.969C151.994 141.921 151.815 145.275 153.101 146.17C154.126 146.889 155.493 147.176 156.974 147.815C157.137 148.119 157.381 148.406 157.755 148.662C160.033 150.195 164.069 149.221 164.069 147.671C164.069 146.122 162.491 142.656 162.491 142.656Z" fill="#151823"/>
<path d="M162.621 116.254C161.726 113.347 163.125 107.996 163.125 107.996C161.905 107.9 153.686 103.891 153.686 103.891C150.627 103.891 148.577 105.441 148.577 109.05C148.577 112.66 150.985 119.368 151.587 123.282C152.206 127.195 153.019 139.765 152.401 140.979C152.14 141.474 153.345 142.017 154.826 142.464C158.666 147.384 164.411 144.7 164.411 144.7C164.411 144.7 165.68 126.284 162.621 116.254Z" fill="#151823"/>
<path d="M183.988 149.572H183.32L178.39 120.231H181.254L183.988 149.572Z" fill="#AFB3BC"/>
<path d="M150.318 149.077H149.651L153.312 116.254L155.818 119.736L150.318 149.077Z" fill="#AFB3BC"/>
<path d="M185.176 81.9776C188.854 81.8338 188.951 94.0526 189.472 105.137C189.553 106.782 184.411 111.095 181.042 111.606C179.806 111.798 173.703 110.073 173.703 110.073L182.295 104.115L181.286 96.2887L182.312 88.8616L185.176 81.9776Z" fill="#151823"/>
<path d="M163.646 67.203C162.979 66.9794 162.409 66.4842 162.36 67.5544C162.311 68.6247 163.06 70.0782 163.565 70.4456C164.053 70.829 164.687 70.8769 164.671 70.6852C164.655 70.5095 163.646 67.203 163.646 67.203Z" fill="#CC9483"/>
<path d="M177.218 66.9955C177.836 66.692 178.357 66.133 178.536 67.1712C178.715 68.2255 178.162 69.7589 177.723 70.1901C177.283 70.6214 176.648 70.7492 176.648 70.5575C176.648 70.3818 177.218 66.9955 177.218 66.9955Z" fill="#CC9483"/>
<path d="M170.709 82.6802L164.932 80.492C164.932 80.492 166.526 72.442 166.526 71.6274L170.4 71.324H170.416H170.432L174.24 71.4997C174.24 72.2983 175.607 79.374 175.607 79.374L170.709 82.6802Z" fill="#D8A798"/>
<path d="M188.154 155.801H186.95L181.042 119.368H184.183L188.154 155.801Z" fill="#96A6BC"/>
<path d="M151.701 155.29H150.497L155.379 118.873H158.471L151.701 155.29Z" fill="#96A6BC"/>
<path d="M185.387 117.468C184.216 116.366 183.776 116.014 182.93 115.471C182.556 115.216 178.65 111.67 178.65 111.67L154.988 112.788C154.988 112.788 154.223 112.932 153.377 113.251C152.824 113.443 152.547 114.944 152.612 116.174C152.694 117.532 154.028 120.439 154.76 121.732C155.672 123.378 157.429 123.378 158.633 123.378C158.764 123.378 170.237 123.378 170.383 123.378C171.604 123.378 181.351 123.026 184.883 122.435C186.168 122.196 186.347 118.378 185.387 117.468Z" fill="#4A75DD"/>
<path d="M185.794 86.3379C185.794 86.3379 186.282 82.2331 184.769 81.5782C182.214 80.4761 180.277 80.7796 176.599 78.0803C176.485 77.7289 176.111 76.8664 175.916 76.2754C173.589 74.0713 164.882 76.1956 164.882 76.1956L164.036 78.1442C161.172 79.374 158.357 80.7157 155.964 81.1789C152.482 81.8497 154.841 91.3053 154.841 91.3053C154.841 91.3053 158.975 101.176 158.894 103.764C158.845 105.712 157.396 110.232 157.396 118.362C157.396 118.889 183.337 118.362 183.337 118.362C183.337 113.107 181.644 105.425 181.612 103.891C181.546 101.304 182.393 96.033 182.767 94.915C183.141 93.7969 185.794 86.3379 185.794 86.3379Z" fill="#151823"/>
<path d="M178.292 64.2486C178.015 62.1403 177.364 62.1403 177.071 61.166C176.795 60.2077 177.25 60.2077 176.307 59.2493C175.363 58.291 171.864 57.5243 170.725 57.6202C169.667 57.716 168.544 57.9875 168.479 58.2431C167.812 58.3229 166.705 58.0354 166.25 58.3229C165.208 58.9938 164.199 59.9202 163.337 61.741C162.49 63.5618 162.393 65.1111 162.588 66.2611C162.783 67.4111 162.913 67.475 162.913 67.475L164.411 71.8354C164.411 71.8354 165.338 74.1194 164.101 74.0076C163.678 73.9757 166.835 76.659 169.358 76.1479C169.325 76.2277 169.309 76.2757 169.309 76.2757C170.709 76.3395 171.799 76.2756 172.466 75.6687C172.905 75.2694 173.068 75.2694 173.703 75.6048C175.151 76.3715 177.69 73.7361 177.185 73.4646C176.339 73.0014 177.641 69.1201 177.641 69.1201C177.641 69.1201 178.585 66.3729 178.292 64.2486Z" fill="#5B250E"/>
<path d="M152.71 111.446C153.328 112.5 155.77 118.506 159.138 118.665C162.507 118.809 157.153 105.281 157.153 105.281L152.71 111.446Z" fill="#151823"/>
<path d="M157.104 81.7855C155.362 81.1786 155.069 84.0855 154.239 85.8903C153.426 87.6952 152.091 93.4132 149.943 98.8278C148.788 101.751 149.178 108.603 151.424 108.794C153.67 109.002 157.185 108.044 158.829 105.632C160.456 103.22 161.888 96.2084 162.1 93.3973C162.311 90.6021 157.104 81.7855 157.104 81.7855Z" fill="#151823"/>
<path d="M155.167 81.5781C153.947 82.2809 153.638 84.5809 153.426 85.8906C153.231 87.1844 151.555 96.017 150.334 97.6142C149.113 99.2115 149.081 103.652 149.488 105.664C149.895 107.661 151.164 109.194 152.498 109.194C153.817 109.194 157.169 107.421 157.755 106.143C157.885 105.84 154.289 109.114 152.401 108.396C151.701 108.124 150.057 101.432 151.376 99.1316C152.694 96.8316 154.126 91.417 154.533 88.3024C154.939 85.2038 155.558 83.0955 156.16 82.5844C156.795 82.0733 155.167 81.5781 155.167 81.5781Z" fill="#282A35"/>
<path d="M175.151 87.3601C173.28 87.3601 171.457 87.1205 169.814 87.1844C158.992 87.5837 157.771 90.5066 157.95 93.0782C159.154 111.893 153.263 116.126 156.697 119.656C156.518 120.119 182.328 120.758 184.362 118.761C188.04 115.152 183.695 114.257 185.176 92.7108C185.339 90.299 184.265 87.1046 175.151 87.3601Z" fill="#4A75DD"/>
<path d="M200.945 104.243C199.594 105.552 199.741 112.149 201.059 119.64C201.856 124.256 204.606 132.641 204.834 135.005C205.16 138.743 204.379 140.516 203.256 146.489C203.093 147.368 208.886 141.809 209.065 140.755C209.293 139.286 210.188 138.551 209.847 137.513C209.423 136.235 208.48 135.245 208.724 132.913C209.31 127.291 209.017 125.933 209.228 118.378C209.456 110.456 206.445 98.892 200.945 104.243Z" fill="#CC9483"/>
<path d="M210.14 137.305C209.749 136.107 206.739 136.634 206.12 139.078C206.12 139.078 205.388 140.563 204.021 143.566C203.826 143.997 203.614 144.349 203.419 144.668C202.133 144.78 200.717 144.988 200.701 145.691C200.668 146.569 201.092 147.304 201.629 147.639C202.442 148.23 204.656 148.182 206.592 147.639C207.129 147.495 207.943 144.988 207.943 143.934C207.943 142.879 209.391 141.937 210.156 141.027C210.905 140.116 210.709 139.078 210.14 137.305Z" fill="#151823"/>
<path d="M210.449 140.308C209.993 141.282 209.489 144.062 209.652 147.671C209.196 147.751 208.838 147.671 208.838 147.671C208.838 147.671 209.147 141.666 208.691 140.915C208.236 140.164 210.449 140.308 210.449 140.308Z" fill="#151823"/>
<path d="M191.962 104.929C190.611 106.239 191.164 112.436 192.483 119.927C193.28 124.543 196.551 133.232 196.763 135.596C197.088 139.317 194.972 141.378 195.965 146.17C196.144 147.048 197.43 146.713 199.008 143.917C199.806 142.512 202.003 139.845 201.661 138.806C201.254 137.529 200.408 135.436 200.636 133.088C201.205 127.466 201.303 125.965 201.514 118.41C201.742 110.504 197.446 99.5945 191.962 104.929Z" fill="#CC9483"/>
<path d="M201.905 137.656C201.515 136.458 198.504 136.986 197.886 139.429C197.886 139.429 197.153 140.915 195.786 143.933C195.591 144.365 195.38 144.716 195.184 145.036C193.899 145.147 192.483 145.355 192.467 146.042C192.434 146.92 192.857 147.655 193.394 147.99C194.208 148.565 196.421 148.533 198.358 147.974C198.895 147.815 199.708 145.323 199.708 144.269C199.708 143.215 201.173 142.272 201.938 141.362C202.654 140.468 202.459 139.429 201.905 137.656Z" fill="#151823"/>
<path d="M202.198 140.66C201.743 141.634 201.238 144.413 201.401 148.023C200.929 148.103 200.587 148.023 200.587 148.023C200.587 148.023 200.896 142.001 200.441 141.251C199.985 140.516 202.198 140.66 202.198 140.66Z" fill="#151823"/>
<path d="M197.072 104.339C192.385 102.135 188.805 103.333 188.398 104.546C187.991 105.744 186.559 108.603 185.794 112.964C185.599 114.034 196.518 119.736 196.518 119.736L197.072 104.339Z" fill="#151823"/>
<path d="M205.876 78.6235C200.782 81.5464 198.65 81.1152 196.73 82.1055C194.81 83.0798 194.842 88.5582 194.842 88.5582C194.842 88.5582 197.886 92.4555 198.13 93.318C198.309 93.9568 199.676 97.9978 199.318 101.512C199.057 104.067 196.795 105.712 195.314 110.776C195.152 111.319 212.45 109.642 212.45 109.642L213.98 89.245C213.98 89.245 206.738 85.9867 205.632 80.061L205.876 78.6235Z" fill="#151823"/>
<path d="M216.47 79.7256C220.929 82.1534 221.271 82.4409 223.012 83.7027C224.769 84.9485 226.478 103.348 226.478 103.348C226.478 103.348 225.762 114.481 221.629 106.814C221.482 106.527 221.336 93.7492 221.271 93.8929C220.994 94.4999 219.415 98.6686 219.936 104.419C220.164 106.958 222.621 108.204 222.312 112.293C222.28 112.692 209.31 108.827 209.31 108.827L208.349 81.3228L216.47 79.7256Z" fill="#282A35"/>
<path d="M196.03 83.3032C191.425 96.1768 191.246 102.023 190.579 105.313C190.009 108.172 198.846 111.941 198.846 111.941L203.305 103.923C203.305 103.923 197.755 103.652 197.788 102.917C197.869 100.537 199.285 94.0525 199.383 93.781C199.659 93.0622 196.03 83.3032 196.03 83.3032Z" fill="#151823"/>
<path d="M226.397 156.2H225.176L219.269 119.768H222.426L226.397 156.2Z" fill="#96A6BC"/>
<path d="M187.487 155.993H186.282L191.148 119.576H194.256L187.487 155.993Z" fill="#96A6BC"/>
<path d="M217.934 149.972H217.267L212.336 120.631H215.201L217.934 149.972Z" fill="#96A6BC"/>
<path d="M184.313 149.364H183.646L187.324 116.557L189.814 120.023L184.313 149.364Z" fill="#96A6BC"/>
<path d="M221.775 117.867C220.603 116.765 220.164 116.414 219.318 115.855C218.944 115.599 215.038 112.053 215.038 112.053L188.919 113.555C188.919 113.555 188.154 113.714 187.308 114.002C186.754 114.194 186.478 115.695 186.543 116.941C186.624 118.298 188.951 120.774 191.132 122.132C194.175 124.016 202.735 123.665 203.956 123.665C204.086 123.665 205.436 123.665 205.567 123.665C206.787 123.665 219.236 123.969 222.296 122.068C223.403 121.381 222.752 118.778 221.775 117.867Z" fill="#4A75DD"/>
<path d="M217.495 104.834C217.804 109.737 219.334 116.749 216.47 117.963C213.606 119.177 197.479 120.167 192.987 117.564C192.141 117.085 188.447 115.184 188.544 113.411C188.707 110.696 193.166 107.661 194.012 105.744C195.412 102.566 217.495 104.834 217.495 104.834Z" fill="#151823"/>
<path d="M198.959 92.5034C199.675 90.6985 206.982 89.3249 210.644 89.0534C221.173 88.2867 226.494 90.0117 225.876 92.5034C221.124 111.143 226.088 115.551 222.41 119.161C220.375 121.174 187.503 121.573 191.164 119.56C194.826 117.548 196.876 116.35 197.283 108.731C197.69 101.128 198.959 92.5034 198.959 92.5034Z" fill="#4A75DD"/>
<path d="M202.653 90.2035C203.288 90.6188 203.939 90.9861 204.623 91.2736C204.916 90.4271 205.957 87.5521 205.859 87.9035C205.778 88.2069 205.648 90.5389 205.583 91.641C205.794 91.7049 206.022 91.7688 206.25 91.8326L206.266 91.8167L207.487 88.0153L207.129 92.0243C207.161 92.0243 207.194 92.0403 207.226 92.0403C207.503 90.9861 208.105 88.6701 208.724 86.8014C208.724 87.5521 208.089 91.0021 207.877 92.1361C208.366 92.2 208.854 92.2479 209.342 92.2639C209.798 89.6125 209.977 80.0931 210.156 85.3C210.302 89.5326 209.977 91.4493 209.895 92.2639C211.571 92.2639 213.231 92.0243 214.777 91.6569C214.566 89.7403 213.964 84.2139 214.143 85.3958C214.338 86.7375 215.461 91.066 215.558 91.4653C215.868 91.3854 216.161 91.3056 216.453 91.2097C216.356 90.5389 216.03 88.3188 215.982 87.9035C216.063 88.4625 216.893 90.2194 217.251 90.9701C217.283 90.9542 217.332 90.9382 217.365 90.9222C217.3 90.3792 217.17 89.309 217.056 88.3347C216.86 87.616 216.698 86.8972 216.698 86.4021C216.698 85.6993 216.877 86.9292 217.056 88.3347C217.349 89.3569 217.723 90.3792 217.869 90.7625C218.178 90.6507 218.471 90.5389 218.764 90.4271L218.846 89.5007L219.139 90.2674C219.448 90.1396 219.741 90.0278 220.017 89.9C219.806 89.1014 218.992 86.0667 219.253 86.5938C219.497 87.0729 220.408 88.8139 220.799 89.5646C221.401 89.2771 221.921 89.0215 222.312 88.8139C222.117 87.9195 221.694 85.9708 221.336 84.3576C220.961 83.1757 220.685 82.1535 220.685 81.882C220.685 81.5945 220.978 82.8243 221.336 84.3576C221.824 85.907 222.458 87.7278 222.865 88.5104C223.109 88.3826 223.24 88.3028 223.24 88.3028C223.24 88.3028 220.131 74.4549 219.562 69.5674C218.65 61.757 215.786 59.8403 215.786 59.8403C213.345 57.8917 210.335 59.6806 209.261 59.441C205.68 58.6424 202.946 63.1306 202.621 66.6604C202.003 73.2729 201.807 82.1854 200.587 88.3986C200.977 88.8299 201.4 89.2132 201.824 89.5646C202.344 88.159 203.386 85.3799 204.069 83.7028C204.02 85.6993 202.914 89.325 202.653 90.2035Z" fill="#BA784A"/>
<path d="M205.453 60.4309C201.466 63.7372 201.775 74.9656 200.863 76.9622C199.936 78.9747 197.592 81.5782 196.876 81.5782C198.406 82.0733 199.122 81.3705 200.147 80.6837C201.173 79.9809 200.359 87.9032 200.554 88.3983C200.766 88.8934 204.134 80.6837 204.021 67.3469C203.988 63.0344 205.453 60.4309 205.453 60.4309Z" fill="#A0593A"/>
<path d="M214.989 59.377C216.925 59.9839 218.211 62.8429 219.122 67.0436C220.05 71.2443 222.54 86.2422 223.777 87.7436C221.27 85.0443 221.124 81.5304 220.603 80.1249C220.603 80.1249 220.961 85.8908 221.27 86.9929C220.359 86.2902 219.643 82.0735 219.334 78.1763C219.025 74.2631 217.43 63.9929 217.039 62.3478C216.567 60.3832 214.989 59.377 214.989 59.377Z" fill="#A0593A"/>
<path d="M150.041 107.645C150.854 105.137 150.854 103.796 150.399 102.582C149.26 99.627 144.931 101.128 142.799 102.933L142.099 107.102C140.179 108.364 138.731 117.165 137.705 123.793C137.136 127.435 137.25 132.961 135.866 138.232C135.606 139.238 134.76 140.819 134.386 141.49C133.832 142.512 134.223 144.19 135.248 144.844C135.785 145.18 137.185 145.244 139.951 145.547C143.434 146.186 143.352 142.097 143.352 142.097C143.352 142.097 141.188 141.746 140.342 141.538C139.935 141.442 139.316 140.532 139.837 138.903C141.985 132.051 149.666 114.625 150.041 107.645Z" fill="#CC9483"/>
<path d="M135.085 140.723C137.542 139.973 138.307 142.608 139.43 143.423C140.553 144.221 142.473 143.343 142.392 142.992C142.132 141.794 140 141.426 140 141.426C140 141.426 140.13 141.314 141.139 141.458C142.441 141.65 143.954 140.755 144.361 141.458C144.768 142.161 143.385 145.659 142.262 146.154C141.139 146.665 139.886 146.122 139.886 146.122C139.284 145.755 137.721 145.659 137.721 145.659C137.721 145.659 135.264 146.266 134.19 145.499C133.116 144.749 133.686 142.097 134.45 141.059L135.085 140.723Z" fill="#151823"/>
<path d="M117.608 148.87H118.275L123.222 119.529H120.358L117.608 148.87Z" fill="#AFB3BC"/>
<path d="M151.278 148.374H151.961L148.283 115.551L145.793 119.033L151.278 148.374Z" fill="#AFB3BC"/>
<path d="M113.441 155.082H114.662L120.569 118.666H117.412L113.441 155.082Z" fill="#96A6BC"/>
<path d="M149.894 154.587H151.115L146.233 118.171H143.124L149.894 154.587Z" fill="#96A6BC"/>
<path d="M138.096 113.347C138.909 110.84 138.909 109.482 138.454 108.284C137.331 105.329 132.791 106.335 130.642 108.14L129.926 112.309C128.006 113.571 127.258 118.969 127.062 124.783C126.932 128.473 126.965 132.594 124.914 138.408C124.572 139.382 123.336 140.34 122.978 141.011C122.408 142.033 122.815 143.726 123.84 144.365C124.377 144.701 126.753 145.212 129.503 145.515C132.986 146.154 132.872 142.96 132.872 142.96C132.872 142.96 130.708 141.905 129.861 141.714C129.454 141.618 128.478 141.794 128.999 140.164C131.163 133.312 137.705 120.343 138.096 113.347Z" fill="#CC9483"/>
<path d="M123.694 140.277C125.533 140.165 127.404 142.145 128.511 142.944C129.634 143.743 132.075 143.311 131.961 142.976C131.7 142.209 129.211 141.618 129.211 141.618C129.211 141.618 128.983 141.57 130.512 141.65C132.14 141.73 133.507 140.74 133.914 141.443C134.32 142.145 133.311 144.781 132.189 145.276C131.066 145.771 130.122 145.723 130.122 145.723C128.901 145.42 126.298 145.18 126.298 145.18C126.298 145.18 123.856 145.787 122.782 145.021C121.708 144.27 122.278 141.618 123.043 140.58L123.694 140.277Z" fill="#151823"/>
<path d="M116.224 116.765C117.396 115.663 117.835 115.312 118.682 114.769C119.056 114.513 122.962 110.967 122.962 110.967L147.567 111.399C147.567 111.399 148.332 111.542 149.178 111.846C149.732 112.037 150.008 113.539 149.943 114.769C149.862 116.126 147.584 119.72 146.851 121.03C145.94 122.691 144.182 122.691 142.962 122.691C142.832 122.691 131.359 122.691 131.212 122.691C129.992 122.691 120.244 122.339 116.713 121.732C115.443 121.493 115.248 117.676 116.224 116.765Z" fill="#4A75DD"/>
<path d="M134.109 116.861C135.329 118.666 143.189 119.816 144.524 118.059C148.804 112.453 150.35 110.137 150.35 110.137C150.35 110.137 150.138 105.729 148.918 103.317C147.827 101.193 141.774 100.713 137.477 101.911C133.197 103.125 134.109 116.861 134.109 116.861Z" fill="#151823"/>
<path d="M142.376 95.3144C143.808 98.1255 144.833 102.023 146.461 102.837C148.088 103.636 149.829 103.332 149.829 102.534C149.829 101.735 149.781 98.0776 148.348 95.4741C146.916 92.8706 144.671 85.9067 144.671 85.9067L142.376 95.3144Z" fill="#D8A798"/>
<path d="M126.834 76.9466C125.175 78.7994 120.748 80.0293 119.869 81.2272C118.991 82.4251 122.294 95.9056 120.553 104.722C120.195 106.511 139.023 108.124 139.023 108.124L141.546 92.4876L143.84 81.2112C143.84 81.2112 139.121 79.1029 136.403 77.4577C133.914 75.9563 126.834 76.9466 126.834 76.9466Z" fill="#7F1C5C"/>
<path d="M142.864 81.179C144.231 81.179 144.426 80.7797 145.191 82.7921C145.972 84.7887 149.113 94.915 149.113 94.915C149.113 94.915 144.508 98.4768 143.141 99.2754C141.774 100.074 139.756 92.0081 139.756 90.8102C139.756 89.5963 142.864 81.179 142.864 81.179Z" fill="#7F1C5C"/>
<path d="M121.074 80.6841C119.332 80.4924 117.965 81.4827 117.77 83.8945C117.575 86.3063 118.161 94.9154 119.902 95.3147C121.643 95.714 124.377 93.1105 124.377 93.1105L121.074 80.6841Z" fill="#7F1C5C"/>
<path d="M126.444 86.6575C128.315 86.6575 130.138 86.4179 131.798 86.4818C142.62 86.8811 143.84 89.804 143.678 92.3755C142.473 111.191 147.827 115.727 144.394 119.257C144.573 119.72 119.3 120.055 117.266 118.059C113.588 114.449 119.121 106.335 114.841 93.1102C114.06 90.8102 117.331 86.4019 126.444 86.6575Z" fill="#4A75DD"/>
<path d="M136.257 76.5629C136.664 78.5755 142.897 80.7798 142.897 80.7798L140.863 81.9778C140.863 81.9778 132.596 78.7832 133.1 76.8664C133.605 74.9656 136.257 76.5629 136.257 76.5629Z" fill="#992C75"/>
<path d="M141.367 82.5848C140.374 82.7925 143.531 80.0452 144.54 81.2272C146.217 83.2237 149.536 94.5001 149.536 94.5001L148.267 95.6022C148.251 95.6182 144.687 81.914 141.367 82.5848Z" fill="#992C75"/>
<path d="M139.105 64.3605C139.023 63.498 138.714 61.8689 138.389 61.1501C137.315 58.7543 134.19 58.4987 133.621 58.8342C133.621 58.8342 130.935 74.1994 130.773 75.3334C130.643 76.2438 132.156 76.2917 134.109 75.3334C134.223 77.1542 135.069 77.873 135.362 77.9528C136.42 78.3042 140.976 77.5056 142.62 75.3653C141.009 75.557 139.772 67.6987 139.105 64.3605Z" fill="#873F26"/>
<path d="M134.581 58.6586C133.507 58.0517 132.823 57.7961 130.919 57.8281C129.829 57.86 127.974 58.2753 126.444 59.3614C126.428 59.3614 126.395 59.3455 126.395 59.3455C126.363 59.3774 126.33 59.4093 126.314 59.4413C125.5 60.0482 124.784 60.8628 124.361 61.9649C123.661 63.1788 123.515 64.8878 123.205 67.651C122.685 72.4906 123.271 74.6468 121.285 76.0684C122.473 78.2086 133.23 80.0135 140.293 77.0427C140.293 77.0427 138.714 74.7107 138.096 69.36C137.656 62.6198 137.477 60.2878 134.581 58.6586Z" fill="#5B250E"/>
<defs>
<linearGradient id="paint0_linear" x1="129.224" y1="24.594" x2="131.656" y2="4.24097" gradientUnits="userSpaceOnUse">
<stop stop-color="white"/>
<stop offset="0.4121" stop-color="#BAADA6"/>
</linearGradient>
<linearGradient id="paint1_linear" x1="134.001" y1="40.4058" x2="131.219" y2="22.9732" gradientUnits="userSpaceOnUse">
<stop stop-color="white"/>
<stop offset="0.2392" stop-color="#FCFCFC"/>
<stop offset="0.433" stop-color="#F2F2F2"/>
<stop offset="0.6109" stop-color="#E1E1E1"/>
<stop offset="0.7782" stop-color="#C9C9C9"/>
<stop offset="0.9121" stop-color="#B0B0B0"/>
</linearGradient>
<linearGradient id="paint2_linear" x1="128.666" y1="88.4903" x2="128.666" y2="39.1859" gradientUnits="userSpaceOnUse">
<stop stop-color="white"/>
<stop offset="0.093" stop-color="#F9F8F8"/>
<stop offset="0.2283" stop-color="#E7E5E5"/>
<stop offset="0.3894" stop-color="#C9C5C5"/>
<stop offset="0.5703" stop-color="#A1999A"/>
<stop offset="0.7654" stop-color="#6D6162"/>
<stop offset="0.8681" stop-color="#4F4042"/>
</linearGradient>
<linearGradient id="paint3_linear" x1="70.4992" y1="41.1064" x2="70.5638" y2="38.5884" gradientUnits="userSpaceOnUse">
<stop offset="0.1044" stop-color="white"/>
<stop offset="0.1729" stop-color="#EFEFEF"/>
<stop offset="0.3064" stop-color="#C6C6C6"/>
<stop offset="0.4919" stop-color="#838383"/>
<stop offset="0.7199" stop-color="#272727"/>
<stop offset="0.8132"/>
</linearGradient>
<linearGradient id="paint4_linear" x1="78.6176" y1="41.1064" x2="78.682" y2="38.5884" gradientUnits="userSpaceOnUse">
<stop offset="0.1044" stop-color="white"/>
<stop offset="0.1729" stop-color="#EFEFEF"/>
<stop offset="0.3064" stop-color="#C6C6C6"/>
<stop offset="0.4919" stop-color="#838383"/>
<stop offset="0.7199" stop-color="#272727"/>
<stop offset="0.8132"/>
</linearGradient>
</defs>
</svg>
